<svg width="391" height="515" viewBox="0 0 391 515" fill="none" xmlns="http://www.w3.org/2000/svg">
<path d="M69.2316 376.269L120.788 360.959L285.108 357.954L313.575 380.128L249.639 432.15L140.694 430L69.2316 376.269Z" fill="#263238"/>
<path d="M160.476 410.597L229.126 429.063L206.615 514.503C198.578 511.844 193.822 463.308 193.822 463.308L149.351 453.303L160.476 410.597Z" fill="#455A64"/>
<g opacity="0.6">
<path d="M197.076 435.953C197.538 435.193 198.267 434.631 199.12 434.377C199.973 434.122 200.89 434.193 201.694 434.575C202.465 435.014 203.037 435.732 203.294 436.58C203.55 437.429 203.471 438.344 203.072 439.136C202.572 439.931 201.795 440.512 200.891 440.767C199.986 441.022 199.02 440.932 198.178 440.514C196.703 439.522 196.042 436.904 197.255 435.608" fill="white"/>
</g>
<path d="M229.126 429.063L222.234 427.203L203.21 510.039C203.21 510.039 203.872 514.283 206.656 514.559L229.126 429.063Z" fill="#263238"/>
<path d="M193.023 464.59C193.436 464.686 194.181 462.646 196.069 460.951C197.958 459.256 199.998 458.623 199.929 458.195C199.86 457.768 197.282 457.754 195.049 459.849C192.816 461.944 192.609 464.576 193.023 464.59Z" fill="#263238"/>
<path d="M194.374 474.539C194.746 474.732 195.931 473.161 198.082 472.169C200.232 471.176 202.217 471.287 202.286 470.873C202.355 470.46 200.081 469.564 197.448 470.873C194.815 472.182 193.974 474.415 194.374 474.539Z" fill="#263238"/>
<path d="M203.761 482.449C203.954 482.091 202.025 480.961 199.447 481.43C196.869 481.898 195.463 483.621 195.766 483.883C196.069 484.144 197.599 483.262 199.722 482.918C201.845 482.573 203.61 482.808 203.761 482.449Z" fill="#263238"/>
<path d="M183.139 461.186C183.566 461.117 183.497 459.05 184.283 456.735C185.069 454.419 186.282 452.766 185.992 452.463C185.703 452.159 183.732 453.524 182.849 456.266C181.967 459.008 182.822 461.31 183.139 461.186Z" fill="#263238"/>
<path d="M173.531 456.487C173.696 456.487 174.399 454.957 174.633 452.201C174.768 450.582 174.703 448.953 174.44 447.35C174.284 446.417 174.063 445.496 173.779 444.594C173.64 444.044 173.416 443.519 173.117 443.037C172.891 442.685 172.554 442.419 172.16 442.279C171.766 442.139 171.336 442.134 170.939 442.265C170.604 442.404 170.306 442.618 170.067 442.89C169.828 443.163 169.655 443.486 169.56 443.836C169.412 444.379 169.342 444.94 169.354 445.503C169.341 446.477 169.415 447.45 169.574 448.411C169.845 450.023 170.37 451.581 171.132 453.028C172.51 455.494 173.889 456.583 173.889 456.473C173.889 456.363 173.02 454.998 172.042 452.587C171.468 451.182 171.079 449.709 170.884 448.204C170.783 447.322 170.747 446.433 170.773 445.545C170.773 444.58 170.98 443.808 171.435 443.684C171.614 443.684 171.683 443.684 171.89 443.905C172.111 444.258 172.274 444.644 172.373 445.049C172.659 445.897 172.894 446.762 173.076 447.639C173.384 449.141 173.55 450.668 173.572 452.201C173.613 454.792 173.296 456.431 173.531 456.487Z" fill="#263238"/>
<path d="M174.275 456.101C174.371 455.963 173.103 454.722 170.429 453.882C168.866 453.387 167.228 453.168 165.59 453.234C164.619 453.269 163.653 453.403 162.709 453.634C162.081 453.715 161.485 453.957 160.978 454.336C160.471 454.715 160.07 455.218 159.814 455.797C159.725 456.182 159.746 456.584 159.875 456.957C160.005 457.33 160.237 457.659 160.545 457.906C160.993 458.252 161.484 458.54 162.006 458.76C162.924 459.153 163.895 459.409 164.887 459.518C166.552 459.7 168.237 459.473 169.795 458.857C172.441 457.768 173.406 456.101 173.269 456.101C173.131 456.101 171.89 457.162 169.436 457.878C168.018 458.29 166.527 458.389 165.066 458.168C164.218 458.041 163.392 457.795 162.613 457.437C161.73 457.065 161.096 456.528 161.234 456.225C161.372 455.921 162.213 455.246 163.026 455.095C163.878 454.86 164.75 454.708 165.632 454.64C167.136 454.53 168.648 454.627 170.126 454.929C172.703 455.453 174.151 456.307 174.275 456.101Z" fill="#263238"/>
<g opacity="0.3">
<path d="M160.476 410.597L229.126 429.063L206.615 514.503C198.578 511.844 193.822 463.308 193.822 463.308L149.351 453.303L160.476 410.597Z" fill="black"/>
</g>
<path d="M247.185 401.24L189.177 442.306L239.92 514.71C246.537 509.432 234.185 462.247 234.185 462.247L272.426 437.441L247.185 401.24Z" fill="#455A64"/>
<g opacity="0.6">
<path d="M221.627 437.662C220.926 437.116 220.048 436.847 219.161 436.905C218.274 436.964 217.44 437.346 216.816 437.979C216.246 438.66 215.958 439.532 216.009 440.418C216.06 441.304 216.447 442.137 217.092 442.747C217.835 443.325 218.765 443.607 219.704 443.541C220.643 443.475 221.524 443.065 222.178 442.389C223.212 440.942 222.937 438.255 221.351 437.455" fill="white"/>
</g>
<path d="M189.177 442.306L195.035 438.172L241.588 509.281C241.588 509.281 242.443 513.498 239.92 514.724L189.177 442.306Z" fill="#263238"/>
<path d="M235.371 463.17C235.013 463.404 233.606 461.792 231.235 460.8C228.864 459.808 226.741 459.973 226.659 459.546C226.576 459.119 228.988 458.168 231.814 459.422C234.64 460.676 235.743 463.019 235.371 463.17Z" fill="#263238"/>
<path d="M237.549 472.954C237.26 473.285 235.592 472.169 233.248 472.017C230.905 471.866 229.113 472.624 228.864 472.265C228.616 471.907 230.463 470.281 233.372 470.515C236.281 470.749 237.88 472.72 237.549 472.954Z" fill="#263238"/>
<path d="M231.483 483.635C231.18 483.373 232.6 481.637 235.178 481.196C237.756 480.755 239.672 481.857 239.493 482.216C239.313 482.574 237.549 482.216 235.44 482.67C233.331 483.125 231.759 483.966 231.483 483.635Z" fill="#263238"/>
<path d="M243.477 456.624C243.049 456.693 242.401 454.736 240.857 452.835C239.314 450.933 237.604 449.817 237.783 449.417C237.963 449.017 240.265 449.638 242.043 451.898C243.821 454.158 243.863 456.528 243.477 456.624Z" fill="#263238"/>
<path d="M250.838 448.81C250.7 448.921 249.459 447.667 248.315 445.172C247.64 443.697 247.14 442.148 246.826 440.556C246.64 439.614 246.52 438.661 246.468 437.703C246.415 437.136 246.448 436.565 246.565 436.008C246.653 435.601 246.875 435.236 247.194 434.969C247.514 434.702 247.913 434.549 248.329 434.534C248.699 434.536 249.063 434.626 249.391 434.796C249.719 434.966 250.002 435.212 250.218 435.512C250.547 435.967 250.807 436.469 250.99 437C251.343 437.892 251.611 438.814 251.789 439.756C252.095 441.365 252.146 443.011 251.941 444.635C251.569 447.391 250.645 448.907 250.493 448.838C250.342 448.769 250.797 447.17 250.879 444.552C250.967 442.142 250.54 439.741 249.625 437.51C249.28 436.601 248.839 435.953 248.357 435.994C248.177 435.994 248.122 435.994 247.998 436.353C247.946 436.764 247.946 437.181 247.998 437.593C248.029 438.493 248.112 439.39 248.246 440.28C248.479 441.795 248.853 443.286 249.363 444.731C250.176 447.253 251.045 448.686 250.838 448.81Z" fill="#263238"/>
<path d="M250.011 448.701C249.873 448.618 250.645 447.033 252.851 445.297C254.146 444.291 255.606 443.517 257.165 443.009C258.092 442.703 259.049 442.495 260.019 442.389C260.634 442.247 261.275 442.267 261.879 442.448C262.484 442.63 263.03 442.965 263.465 443.423C263.675 443.755 263.786 444.139 263.786 444.532C263.786 444.925 263.675 445.309 263.465 445.641C263.169 446.146 262.807 446.609 262.39 447.019C261.668 447.709 260.845 448.285 259.95 448.728C258.455 449.479 256.798 449.848 255.125 449.803C252.244 449.707 250.797 448.521 250.893 448.425C250.99 448.328 252.534 448.935 255.098 448.756C256.548 448.64 257.958 448.217 259.233 447.515C259.987 447.105 260.678 446.59 261.287 445.986C261.976 445.324 262.404 444.608 262.114 444.373C261.823 444.152 261.487 443.998 261.13 443.922C260.772 443.846 260.402 443.849 260.046 443.932C259.166 444.018 258.294 444.179 257.441 444.415C255.983 444.827 254.591 445.445 253.306 446.248C251.265 447.557 250.204 448.852 250.011 448.701Z" fill="#263238"/>
<path d="M44.9696 345.138C44.9696 345.138 18.6674 343.085 8.42495 356.094C-1.81747 369.103 -0.425158 395.383 0.953363 402.576C2.33188 409.77 25.6703 427.768 25.6703 427.768C25.6703 427.768 58.0517 442.155 78.0541 446.578C98.0564 451.002 153.955 454.847 153.955 454.847L170.58 410.748C170.58 410.748 58.7548 344.629 44.9696 345.138Z" fill="#263238"/>
<path d="M319.53 346.985C319.53 346.985 346.728 321.574 350.822 322.18C354.916 322.786 362.471 323.241 371.376 328.133C380.281 333.025 391.847 355.695 390.951 367.477C390.055 379.26 353.855 405.374 340.952 411.148C328.049 416.922 267.504 446.041 267.504 446.041L234.654 406.876L299.004 352.484L319.53 346.985Z" fill="#263238"/>
<path d="M172.924 413.904C172.417 413.33 171.956 412.717 171.545 412.072C170.718 410.859 169.478 409.136 167.947 407.014C163.919 401.518 159.239 396.53 154.011 392.158C148.642 387.95 143 384.102 137.124 380.638L131.816 377.399C131.147 377.027 130.511 376.598 129.914 376.118C130.621 376.406 131.304 376.751 131.954 377.151C133.236 377.854 135.083 378.915 137.358 380.224C143.335 383.585 149.045 387.4 154.438 391.635C159.723 396.044 164.392 401.142 168.32 406.794C169.822 408.957 170.994 410.721 171.752 411.989C172.196 412.594 172.588 413.234 172.924 413.904Z" fill="#455A64"/>
<path d="M190.238 418.576C189.988 418.217 189.793 417.822 189.659 417.405C189.328 416.633 188.901 415.503 188.405 414.098C187.14 410.404 186.19 406.61 185.565 402.756C184.964 398.9 184.696 394.999 184.765 391.098C184.765 389.595 184.862 388.341 184.931 387.556C184.933 387.123 184.993 386.692 185.11 386.274C185.256 387.878 185.311 389.488 185.276 391.098C185.412 398.831 186.627 406.507 188.887 413.905C189.417 415.438 189.868 416.997 190.238 418.576Z" fill="#455A64"/>
<path d="M249.542 376.159C249.542 376.159 249.363 376.311 248.991 376.545L247.337 377.509C246.62 377.895 245.765 378.447 244.773 379.067L243.173 380.073L241.436 381.272C235.127 385.692 229.288 390.749 224.012 396.361C221.089 399.431 218.329 402.651 215.741 406.008C214.597 407.593 213.466 409.067 212.529 410.528L211.15 412.609L209.937 414.593C209.152 415.847 208.559 417.019 207.952 418.052C207.346 419.086 206.891 419.968 206.574 420.712L205.705 422.421C205.616 422.623 205.5 422.813 205.361 422.986C205.361 422.986 205.361 422.765 205.567 422.352C205.774 421.938 206.022 421.291 206.312 420.588C206.601 419.885 207.07 418.907 207.69 417.832C208.311 416.757 208.834 415.586 209.606 414.304C209.979 413.67 210.378 412.926 210.778 412.292L212.157 410.17C213.08 408.681 214.197 407.193 215.341 405.581C217.914 402.168 220.675 398.902 223.612 395.796C228.876 390.159 234.763 385.138 241.161 380.831L242.925 379.659L244.566 378.695C245.572 378.102 246.454 377.592 247.212 377.234L248.922 376.379C249.117 376.277 249.326 376.203 249.542 376.159Z" fill="#455A64"/>
<path d="M298.094 362.034C298.218 362.199 284.309 372.232 266.967 384.441C249.625 396.651 235.536 406.422 235.426 406.256C235.316 406.091 249.211 396.058 266.553 383.849C283.895 371.639 297.983 361.882 298.094 362.034Z" fill="#455A64"/>
<path d="M62.6422 360.504C63.0362 360.598 63.4195 360.732 63.7864 360.904L67.0121 362.185C69.7692 363.315 73.8358 364.942 78.7847 367.091C88.6963 371.294 102.33 377.275 117.245 384.152C132.161 391.028 145.546 397.574 155.113 402.508C159.911 404.975 163.757 407.028 166.39 408.489L169.409 410.184C169.766 410.373 170.112 410.585 170.443 410.818C170.06 410.681 169.691 410.51 169.34 410.308L166.279 408.737C163.605 407.359 159.731 405.36 154.92 402.963C145.271 398.139 131.885 391.704 116.97 384.813C102.054 377.923 88.4757 371.873 78.6055 367.56L66.9294 362.447L63.7588 361.069C63.3766 360.901 63.0038 360.713 62.6422 360.504Z" fill="#455A64"/>
<path d="M110.311 176.076C110.311 176.076 102.206 177.689 98.9524 181.754C95.6991 185.819 53.9437 243.023 53.9437 243.023C53.9437 243.023 42.9845 254.778 43.398 261.269C43.8116 267.759 51.8621 277.034 51.8621 277.034L50.2493 283.924C50.2493 283.924 27.9448 300.544 28.7443 315.138C29.5439 329.731 39.7725 343.526 48.6226 347.164C57.4727 350.802 95.6715 372.314 102.564 375.139C109.457 377.964 146.773 372.314 146.773 372.314L138.709 325.707L122.484 324.894L107.072 320.443L96.4573 300.172L111.938 270.585L112.751 215.034L110.311 176.076Z" fill="#455A64"/>
<path d="M99.7658 211.755L111.235 274.719L115.178 313.112C115.178 313.112 116.804 353.255 120.044 360.959C123.283 368.662 170.332 383.656 185.344 384.882C200.356 386.109 268.897 355.681 274.163 350.43C279.428 345.18 285.921 327.32 285.921 327.32L276.189 217.846L278.215 173.252L255.098 165.135L110.353 176.091L99.7658 211.755Z" fill="#455A64"/>
<path d="M278.215 173.238C286.111 179.128 292.902 186.369 298.273 194.626C307.771 208.861 331.895 257.493 339.022 270.929C346.149 284.366 358.404 299.8 355.233 318.376C355.233 318.376 319.24 349.617 307.771 356.342C296.302 363.067 269.393 370.867 260.308 366.623L234.199 367.835C237.478 364.816 240.087 361.142 241.858 357.053C243.63 352.963 244.524 348.548 244.483 344.091C244.483 328.671 231.428 316.006 231.428 316.006L249.625 317.591C249.625 317.591 263.41 308.096 271.778 311.665L284.184 308.123L288.32 295.059L280.972 272.39L264.072 219.596L278.215 173.238Z" fill="#455A64"/>
<path d="M260.308 366.623C260.767 365.912 261.264 365.227 261.797 364.569C263.154 362.715 264.37 360.762 265.437 358.726C266.985 355.697 268.268 352.538 269.269 349.287C270.51 345.319 271.019 341.158 270.771 337.008C270.493 332.867 269.113 328.875 266.774 325.446C264.858 322.648 262.171 320.466 259.04 319.162C256.936 318.273 254.666 317.841 252.382 317.894C250.769 317.894 249.887 318.184 249.859 318.115C250.06 318.016 250.273 317.946 250.493 317.908C251.108 317.752 251.735 317.655 252.368 317.619C254.718 317.446 257.076 317.813 259.261 318.693C262.522 319.974 265.332 322.189 267.339 325.06C269.762 328.58 271.191 332.689 271.474 336.953C271.735 341.191 271.197 345.44 269.889 349.48C268.849 352.759 267.501 355.934 265.864 358.961C264.761 361.002 263.468 362.935 262.004 364.735C261.48 365.369 261.067 365.851 260.763 366.113C260.637 366.304 260.484 366.476 260.308 366.623Z" fill="#263238"/>
<path d="M304.848 330.449C304.738 330.449 304.077 328.877 302.726 326.425C299.215 319.991 294.225 314.484 288.168 310.356C285.852 308.771 284.309 307.958 284.364 307.848C284.765 307.944 285.15 308.098 285.508 308.303C286.519 308.784 287.499 309.327 288.444 309.929C294.762 313.888 299.862 319.516 303.18 326.19C303.697 327.188 304.157 328.214 304.559 329.263C304.707 329.644 304.804 330.043 304.848 330.449Z" fill="#263238"/>
<path d="M312.251 285.054C311.103 285.646 309.909 286.144 308.681 286.542C306.461 287.411 303.401 288.623 300.079 290.084C296.757 291.545 293.793 292.992 291.725 294.012C290.599 294.642 289.429 295.19 288.223 295.652C289.231 294.837 290.327 294.139 291.491 293.571C293.572 292.386 296.508 290.883 299.858 289.436C303.208 287.989 306.296 286.818 308.57 286.074C309.76 285.61 310.993 285.269 312.251 285.054Z" fill="#263238"/>
<path d="M319.53 238.503C319.023 238.79 318.487 239.021 317.931 239.192C316.869 239.578 315.353 240.157 313.492 240.901C303.741 244.685 294.685 250.059 286.693 256.804C285.149 258.072 283.936 259.133 283.068 259.864C282.646 260.271 282.184 260.636 281.689 260.952C282.042 260.483 282.439 260.049 282.875 259.657C283.674 258.858 284.86 257.741 286.362 256.418C294.245 249.425 303.392 244.003 313.313 240.447C315.201 239.771 316.759 239.261 317.834 238.958C318.384 238.753 318.951 238.601 319.53 238.503Z" fill="#263238"/>
<path d="M270.62 343.526C266.404 343.993 262.165 344.223 257.924 344.215C253.69 344.449 249.447 344.449 245.214 344.215C249.425 343.747 253.659 343.517 257.896 343.526C262.134 343.292 266.382 343.292 270.62 343.526Z" fill="#263238"/>
<path d="M270.606 338.441C266.286 339.019 261.937 339.35 257.579 339.433C253.226 339.758 248.859 339.85 244.497 339.709C248.821 339.131 253.175 338.8 257.538 338.716C261.886 338.392 266.248 338.3 270.606 338.441Z" fill="#263238"/>
<path d="M268.966 331.688C264.594 332.178 260.2 332.436 255.801 332.461C251.411 332.708 247.011 332.708 242.622 332.461C246.994 331.972 251.388 331.714 255.787 331.688C260.176 331.441 264.576 331.441 268.966 331.688Z" fill="#263238"/>
<path d="M232.269 262C232.031 262.094 231.78 262.154 231.525 262.179L229.333 262.565C227.431 262.896 224.66 263.281 221.227 263.695C203.326 265.803 185.242 265.863 167.327 263.874C163.895 263.488 161.124 263.116 159.221 262.799L157.03 262.427C156.771 262.397 156.516 262.337 156.271 262.248C156.528 262.215 156.787 262.215 157.043 262.248L159.263 262.496C161.179 262.716 163.95 263.02 167.382 263.337C174.275 263.998 183.759 264.604 194.277 264.577C204.795 264.549 214.307 263.86 221.172 263.199C224.605 262.854 227.375 262.537 229.292 262.303L231.497 262.055C231.751 262 232.011 261.982 232.269 262Z" fill="#263238"/>
<path d="M109.636 276.097C109.553 276.276 96.0024 270.378 79.3775 262.923C62.7525 255.467 49.3257 249.28 49.4084 249.142C49.4911 249.004 63.042 254.861 79.7359 262.316C96.4298 269.772 109.76 275.863 109.636 276.097Z" fill="#263238"/>
<path d="M96.4573 300.144C95.9503 299.541 95.4895 298.901 95.0788 298.229C94.6653 297.595 94.169 296.851 93.5487 295.955C92.9283 295.059 92.2528 294.067 91.4257 293.006C89.5468 290.48 87.5408 288.052 85.4154 285.729C80.2082 280.039 74.3027 275.029 67.8392 270.819C64.8478 268.903 62.077 267.291 59.6784 266.078C58.4928 265.43 57.3762 264.934 56.4251 264.466C55.4739 263.997 54.6192 263.625 53.9299 263.336C53.2129 263.055 52.5211 262.714 51.8622 262.316C52.6238 262.515 53.3701 262.768 54.0954 263.074C54.7984 263.322 55.6669 263.667 56.6456 264.108C57.6244 264.548 58.7548 265.003 59.9541 265.623C62.7942 267.019 65.5554 268.569 68.2252 270.267C71.4865 272.366 74.6127 274.667 77.5854 277.158C80.5347 279.689 83.3246 282.4 85.9392 285.275C88.0555 287.631 90.0346 290.106 91.8669 292.689C92.6802 293.777 93.3143 294.825 93.9071 295.72C94.4998 296.616 94.9685 297.402 95.2856 298.063C95.7322 298.724 96.1241 299.42 96.4573 300.144Z" fill="#263238"/>
<path d="M137.151 327.085C136.853 327.11 136.553 327.11 136.255 327.085L133.705 326.865L124.248 325.955L107.003 320.733H106.879V320.608C103.271 314.938 98.5599 310.05 93.0248 306.235C87.6992 302.226 81.6938 299.21 75.297 297.333C70.07 295.962 64.6336 295.574 59.2648 296.189C55.6434 296.581 52.0834 297.414 48.664 298.67C47.4509 299.124 46.5135 299.496 45.907 299.786C45.5897 299.932 45.2627 300.057 44.9282 300.158C45.2144 299.959 45.5191 299.788 45.8381 299.648C46.4446 299.317 47.3682 298.918 48.5951 298.408C52.0141 297.036 55.5955 296.11 59.2511 295.652C64.6845 294.963 70.1992 295.309 75.5038 296.671C81.9425 298.535 87.9874 301.556 93.3419 305.588C98.9598 309.453 103.73 314.424 107.361 320.195L107.168 320.043L124.345 325.363L133.774 326.493L136.31 326.837C136.599 326.888 136.881 326.972 137.151 327.085Z" fill="#263238"/>
<path d="M90.9294 317.59C90.295 317.681 89.654 317.718 89.0133 317.701C88.393 317.701 87.6348 317.701 86.7663 317.783C85.8979 317.866 84.8915 317.852 83.8025 317.99C81.2323 318.217 78.6777 318.594 76.1517 319.12C73.0655 319.772 70.0261 320.628 67.0535 321.683C61.6725 323.625 56.5661 326.256 51.8621 329.511C50.9247 330.117 50.1528 330.737 49.436 331.247C48.7191 331.757 48.1401 332.225 47.6576 332.625C47.1812 333.055 46.6642 333.438 46.1137 333.769C46.524 333.263 46.986 332.801 47.4922 332.391C47.9471 331.964 48.5123 331.454 49.2016 330.916C49.8909 330.379 50.6628 329.717 51.5726 329.083C53.682 327.571 55.8826 326.191 58.162 324.949C63.7687 321.892 69.8132 319.716 76.0828 318.5C78.635 317.993 81.2188 317.662 83.8163 317.508C84.9191 317.411 85.9254 317.425 86.8077 317.411C87.6899 317.397 88.4481 317.411 89.0685 317.411C89.6932 317.409 90.3167 317.469 90.9294 317.59Z" fill="#263238"/>
<path d="M116.515 376.255C116.268 376.295 116.017 376.295 115.77 376.255C115.062 376.154 114.362 376.002 113.675 375.8C111.147 375.032 108.801 373.756 106.782 372.052C103.753 369.519 101.427 366.249 100.028 362.557C98.3774 358.028 97.8523 353.167 98.4976 348.39C99.0364 343.611 100.547 338.991 102.936 334.816C104.874 331.386 107.741 328.573 111.208 326.7C113.565 325.471 116.186 324.837 118.845 324.853C119.562 324.878 120.276 324.956 120.981 325.087C121.229 325.119 121.471 325.188 121.698 325.294C121.698 325.294 120.678 325.115 118.845 325.129C116.258 325.221 113.728 325.914 111.456 327.154C108.093 329.026 105.319 331.799 103.446 335.161C101.139 339.267 99.677 343.793 99.1455 348.473C98.5073 353.138 98.9796 357.888 100.524 362.336C101.864 365.935 104.082 369.141 106.975 371.666C108.934 373.368 111.198 374.682 113.648 375.538C115.509 376.062 116.529 376.186 116.515 376.255Z" fill="#263238"/>
<path d="M164.074 335.12L166.955 316.337C167.221 314.624 168.109 313.069 169.449 311.968C170.789 310.867 172.487 310.299 174.22 310.37L218.663 312.175C218.663 312.175 221.172 314.311 220.855 315.675C220.579 316.819 209.317 359.553 205.94 372.356C205.669 373.375 205.062 374.273 204.216 374.904C203.37 375.535 202.335 375.86 201.28 375.828L163.454 374.602C162.797 374.579 162.154 374.419 161.564 374.131C160.974 373.844 160.451 373.435 160.03 372.932C159.608 372.429 159.298 371.842 159.118 371.211C158.938 370.58 158.894 369.918 158.987 369.269C160.531 358.533 164.074 335.12 164.074 335.12Z" fill="#438EEB"/>
<path d="M192.844 339.709C192.844 339.709 212.543 340.315 214.514 339.709C216.485 339.102 232.752 334.334 232.752 334.334C232.752 334.334 209.427 338.22 208.021 337.366C206.615 336.511 204.051 334.872 206.339 332.515C209.344 329.428 216.968 326.576 218.594 325.445L220.828 315.675C220.828 315.675 228.685 315.248 230.477 315.675C232.269 316.102 240.127 325.928 242.594 333.7C245.062 341.472 248.867 352.842 248.867 352.842L241.974 363.866L236.97 364.872C236.97 364.872 210.406 369.227 208.159 368.51C205.912 367.794 189.411 364.293 189.411 364.293L178.314 357.086L179.431 351.188L178.314 342.093L192.844 339.709Z" fill="#FFBE9D"/>
<path d="M129.501 333.755C129.501 333.755 136.848 327.292 138.709 325.68C140.57 324.067 146.815 322.179 146.815 322.179L165.356 326.741L164.074 335.12C164.074 335.12 189.645 331.688 192.844 333.741C196.042 335.795 194.581 337.876 192.844 339.695C191.107 341.514 168.03 347.563 168.03 347.563L180.051 345.965L200.012 350.581L182.849 357.913L196.952 361.193C193.045 362.919 189.04 364.414 184.958 365.671C181.06 366.213 177.134 366.525 173.2 366.608C173.2 366.608 164.928 371.776 162.847 371.776C160.765 371.776 135.8 365.906 132.988 365.437C132.166 365.293 131.323 365.323 130.514 365.525C129.704 365.726 128.946 366.096 128.287 366.608C127.374 361.317 126.977 355.95 127.102 350.581C127.339 344.907 128.143 339.27 129.501 333.755Z" fill="#FFBE9D"/>
<path d="M183.938 357.954C181.371 358.832 178.711 359.415 176.012 359.691C173.345 360.189 170.63 360.374 167.92 360.242C170.554 359.666 173.219 359.243 175.902 358.974C178.556 358.465 181.241 358.125 183.938 357.954Z" fill="#EB996E"/>
<path d="M169.671 334.431C168.245 334.844 166.781 335.112 165.301 335.23C161.745 335.748 158.132 335.748 154.576 335.23C150.44 334.252 146.939 332.984 144.278 332.474C141.618 331.964 139.95 331.757 139.95 331.647C140.347 331.58 140.752 331.58 141.149 331.647C142.232 331.7 143.31 331.829 144.375 332.033C147.132 332.474 150.716 333.687 154.714 334.624C158.209 335.113 161.751 335.169 165.259 334.789C166.72 334.573 168.194 334.453 169.671 334.431Z" fill="#EB996E"/>
<path d="M192.844 339.708C192.495 339.996 192.11 340.237 191.699 340.425C190.61 340.989 189.486 341.486 188.336 341.913C184.549 343.334 180.677 344.517 176.742 345.455C172.138 346.571 167.934 347.384 164.86 347.825C163.212 348.182 161.521 348.289 159.842 348.142C160.294 348.033 160.756 347.964 161.22 347.935C162.075 347.811 163.302 347.605 164.818 347.315C167.851 346.764 172.028 345.868 176.618 344.752C181.209 343.636 185.289 342.437 188.198 341.445C191.107 340.452 192.788 339.598 192.844 339.708Z" fill="#EB996E"/>
<path d="M196.359 361.537C195.36 362.081 194.318 362.542 193.243 362.915C191.258 363.715 188.432 364.803 185.124 366.057C183.116 366.5 181.08 366.808 179.031 366.981C173.999 367.435 169.45 367.615 166.183 367.932C164.543 368.097 163.233 368.248 162.323 368.414C161.872 368.53 161.41 368.599 160.945 368.621C161.378 368.393 161.842 368.231 162.323 368.138C163.594 367.824 164.883 367.589 166.183 367.435C169.464 366.981 174.027 366.719 179.017 366.264C181.032 366.104 183.034 365.819 185.014 365.41C188.336 364.197 191.189 363.191 193.216 362.502C194.238 362.103 195.289 361.781 196.359 361.537Z" fill="#EB996E"/>
<path d="M230.794 348.556C230.446 348.815 230.06 349.019 229.65 349.163C228.58 349.663 227.48 350.095 226.355 350.458C222.65 351.703 218.8 352.467 214.9 352.732C211.002 352.982 207.089 352.741 203.251 352.015C202.088 351.791 200.938 351.506 199.805 351.161C199.379 351.074 198.97 350.92 198.592 350.706C198.592 350.596 200.398 351.064 203.334 351.505C210.976 352.702 218.789 352.179 226.204 349.976C229.044 349.135 230.753 348.446 230.794 348.556Z" fill="#EB996E"/>
<path d="M227.127 358.685C226.598 358.925 226.043 359.106 225.473 359.222L220.869 360.421L213.976 362.102C211.169 362.887 208.275 363.318 205.361 363.384C193.133 361.772 183.663 358.45 183.883 357.954C183.883 357.954 184.448 358.189 185.51 358.519C186.571 358.85 188.143 359.277 190.087 359.76C192.03 360.242 194.36 360.752 196.979 361.276C199.77 361.881 202.591 362.341 205.429 362.654C208.275 362.576 211.101 362.169 213.852 361.441L220.745 359.911L225.39 358.933C225.961 358.798 226.542 358.715 227.127 358.685Z" fill="#EB996E"/>
<path d="M231.194 321.16C229.145 322.013 227.046 322.741 224.908 323.337C222.843 324.152 220.735 324.856 218.594 325.446C220.464 324.214 222.515 323.284 224.674 322.69C226.756 321.848 228.955 321.332 231.194 321.16Z" fill="#EB996E"/>
<path d="M183.235 357.844C185.798 356.475 188.44 355.26 191.148 354.206C193.762 352.934 196.451 351.821 199.199 350.871C196.759 352.471 194.157 353.811 191.437 354.867C188.814 356.14 186.065 357.138 183.235 357.844Z" fill="#EB996E"/>
<path d="M199.653 350.692C198.635 350.77 197.61 350.71 196.607 350.513C191.629 349.933 186.737 348.763 182.036 347.026C181.035 346.724 180.08 346.289 179.196 345.731C179.279 345.538 183.718 347.109 189.383 348.487C195.049 349.865 199.667 350.513 199.653 350.692Z" fill="#EB996E"/>
<path d="M115.867 322.952C115.674 322.952 112.917 298.381 109.733 268.035C106.548 237.69 104.108 213.037 104.301 213.023C104.494 213.009 107.251 237.511 110.449 267.829C113.648 298.146 116.06 322.869 115.867 322.952Z" fill="#263238"/>
<path d="M268.717 215.792C268.858 216.079 268.969 216.379 269.048 216.688L269.862 219.306C270.592 221.566 271.447 224.819 272.481 228.953C274.48 237.221 276.809 248.714 278.767 261.503C280.724 274.291 282.172 285.95 283.054 294.384C283.495 298.601 283.826 302.018 284.005 304.388C284.088 305.505 284.157 306.414 284.198 307.145C284.223 307.461 284.223 307.779 284.198 308.095C284.111 307.79 284.055 307.476 284.033 307.158C283.95 306.456 283.84 305.56 283.702 304.402C283.412 301.963 283.013 298.573 282.53 294.425C281.51 286.005 280.021 274.388 278.036 261.599C276.051 248.811 273.901 237.318 271.971 229.049C270.978 224.915 270.206 221.594 269.558 219.306C269.283 218.218 269.062 217.336 268.883 216.66C268.805 216.376 268.749 216.086 268.717 215.792Z" fill="#263238"/>
<path d="M278.188 263.474C278.287 263.664 278.37 263.863 278.436 264.067L279.043 265.789L281.248 272.294C283.109 277.944 285.701 285.799 288.706 294.949V295.06V295.17L286.624 301.33C286.28 302.405 285.935 303.493 285.577 304.582C285.411 305.133 285.246 305.684 285.067 306.249L284.846 307.076L284.736 307.49V307.683V307.793C284.736 307.793 284.819 307.641 284.419 307.531L284.35 308.234C283.509 308.096 282.613 307.931 281.689 307.82C275.017 306.925 268.359 307.324 262.983 309.612C260.485 310.82 258.112 312.269 255.897 313.939C253.889 315.387 251.639 316.465 249.253 317.122C245.764 317.837 242.172 317.883 238.666 317.26C237.439 317.081 236.474 316.902 235.826 316.778C235.495 316.725 235.169 316.651 234.847 316.557C235.185 316.548 235.522 316.575 235.853 316.64L238.707 316.985C242.174 317.493 245.705 317.371 249.129 316.626C251.44 315.955 253.614 314.883 255.553 313.457C257.793 311.746 260.194 310.255 262.721 309.006C268.235 306.622 275.017 306.249 281.786 307.104C282.709 307.228 283.633 307.379 284.474 307.531L287.093 308L284.405 308.248C284.337 308.244 284.271 308.224 284.213 308.187C284.155 308.151 284.107 308.101 284.074 308.041C284.068 307.991 284.068 307.94 284.074 307.889C284.069 307.853 284.069 307.816 284.074 307.779V307.628V307.393L284.171 306.938L284.419 306.084C284.584 305.519 284.75 304.968 284.929 304.417C285.287 303.314 285.632 302.225 285.99 301.151C286.707 299.028 287.369 297.016 288.099 294.991V295.197C285.177 286.019 282.682 278.137 280.876 272.459C280.035 269.703 279.346 267.498 278.863 265.9C278.657 265.183 278.477 264.604 278.353 264.136C278.262 263.926 278.206 263.702 278.188 263.474Z" fill="#263238"/>
<path d="M241.726 275.022H148.827V290.373H241.726V275.022Z" fill="white"/>
<path d="M146.815 144.45C146.815 144.45 117.204 149.714 113.151 156.205C109.098 162.695 111.139 173.637 111.139 173.637L114.378 176.076L153.321 198.773C153.321 198.773 176.026 224.722 188.198 223.11C200.37 221.498 219.835 197.974 225.101 192.296C230.367 186.619 255.111 165.121 255.111 165.121C255.111 165.121 266.47 161.069 263.631 150.94C260.791 140.812 225.101 136.347 225.101 136.347L146.815 144.45Z" fill="#455A64"/>
<path d="M288.141 105.547C294.399 96.4241 291.325 82.2851 281.841 76.6074C276.795 73.5619 270.399 72.6661 266.346 68.4079C262.293 64.1497 261.728 57.466 261.011 51.4714C260.239 44.9394 258.861 38.3522 255.497 32.6883C252.134 27.0244 246.565 22.3941 240.044 21.5535C235.178 20.9196 230.064 22.3803 225.432 20.768C220.152 18.9352 217.009 13.7123 213.122 9.74344C209.482 6.0632 205.023 3.29576 200.109 1.66714C195.196 0.0385259 189.966 -0.405085 184.848 0.372552C177.804 1.51635 170.884 5.36117 167.617 11.7003C164.35 18.0394 165.811 26.8591 171.835 30.7314L152.494 70.3234C149.539 76.1007 147.859 82.4452 147.569 88.9276C147.278 95.4101 148.384 101.879 150.811 107.897C153.238 113.916 156.93 119.343 161.637 123.811C166.344 128.279 171.956 131.685 178.093 133.797C183.607 135.699 189.783 136.664 194.153 140.564C197.503 143.527 199.323 147.812 201.942 151.437C204.561 155.061 208.724 158.327 213.108 157.459C216.471 156.811 219.146 153.903 222.564 153.669C225.983 153.435 228.878 155.929 231.952 157.431C235.687 159.134 239.894 159.503 243.868 158.477C247.843 157.451 251.345 155.092 253.788 151.795C256.173 148.391 257.551 143.899 261.273 142.038C264.995 140.178 269.544 141.804 273.68 141.57C281.951 141.087 288.444 131.703 285.935 123.793C284.956 120.719 282.875 117.867 283.095 114.642C283.288 111.128 286.211 108.455 288.141 105.547Z" fill="#438EEB"/>
<path d="M241.147 65.9824C239.603 49.0184 227.748 28.4989 210.82 30.7589L158.312 45.6283C155.837 45.9634 153.578 47.2135 151.981 49.132C150.383 51.0505 149.563 53.498 149.682 55.9914L155.017 181.492L186.806 211.465L217.629 179.425C217.326 166.568 217.05 154.689 217.05 154.73C217.05 154.772 238.666 150.513 242.36 122.056C244.249 107.972 242.884 84.8344 241.147 65.9824Z" fill="#FFBE9D"/>
<path d="M231.718 92.7312C231.752 93.6781 231.415 94.6009 230.78 95.3035C230.144 96.0061 229.259 96.433 228.313 96.4934C227.852 96.5427 227.386 96.4994 226.942 96.3659C226.498 96.2324 226.086 96.0115 225.728 95.7161C225.371 95.4207 225.077 95.0569 224.863 94.646C224.648 94.2352 224.518 93.7856 224.481 93.3238C224.443 92.3783 224.776 91.4554 225.41 90.7524C226.044 90.0494 226.927 89.6221 227.872 89.5617C228.333 89.5123 228.8 89.5555 229.245 89.6889C229.69 89.8222 230.103 90.0429 230.461 90.3382C230.82 90.6334 231.115 90.9971 231.331 91.408C231.547 91.819 231.678 92.2688 231.718 92.7312Z" fill="#263238"/>
<path d="M236.474 78.1371C236.046 78.6332 233.234 76.6764 229.319 76.7591C225.404 76.8417 222.606 78.9226 222.165 78.4541C221.944 78.2474 222.385 77.3792 223.543 76.4421C225.195 75.2127 227.191 74.5331 229.25 74.499C231.285 74.4376 233.288 75.0212 234.971 76.1665C236.267 77.076 236.694 77.9304 236.474 78.1371Z" fill="#263238"/>
<path d="M194.525 92.7312C194.56 93.6781 194.223 94.6009 193.587 95.3035C192.951 96.0061 192.066 96.433 191.12 96.4934C190.66 96.5427 190.193 96.4994 189.75 96.3659C189.306 96.2324 188.893 96.0115 188.536 95.7161C188.179 95.4207 187.884 95.0569 187.67 94.646C187.456 94.2352 187.326 93.7856 187.288 93.3238C187.254 92.3792 187.588 91.4583 188.221 90.7561C188.854 90.0539 189.736 89.6255 190.679 89.5617C191.141 89.5123 191.608 89.5555 192.052 89.6889C192.497 89.8222 192.911 90.0429 193.269 90.3382C193.627 90.6334 193.923 90.9971 194.139 91.408C194.354 91.819 194.486 92.2688 194.525 92.7312Z" fill="#263238"/>
<path d="M198.068 79.9563C197.627 80.4524 194.815 78.4956 190.9 78.5783C186.985 78.6609 184.186 80.7281 183.745 80.2595C183.539 80.0528 183.966 79.1846 185.193 78.2475C186.846 77.0206 188.841 76.3413 190.9 76.3044C192.935 76.243 194.938 76.8266 196.621 77.9719C197.848 78.8952 198.275 79.7496 198.068 79.9563Z" fill="#263238"/>
<path d="M213.149 108.551C213.149 108.331 215.548 107.835 219.463 107.173C220.469 107.035 221.406 106.815 221.544 106.126C221.609 105.094 221.349 104.067 220.8 103.19C219.794 100.793 218.732 98.2983 217.629 95.6662C213.218 84.9586 210.006 76.1527 210.433 75.9736C210.861 75.7944 214.79 84.3385 219.201 95.0461C220.267 97.6736 221.282 100.195 222.247 102.612C222.899 103.831 223.095 105.243 222.799 106.594C222.666 106.953 222.451 107.276 222.171 107.537C221.891 107.797 221.553 107.989 221.186 108.096C220.641 108.268 220.075 108.366 219.504 108.386C215.562 108.689 213.149 108.772 213.149 108.551Z" fill="#263238"/>
<path d="M217.092 154.73C203.758 155.309 190.526 152.18 178.865 145.69C178.865 145.69 188.97 164.983 217.257 161.607L217.092 154.73Z" fill="#EB996E"/>
<path d="M212.763 117.867C211.846 116.602 210.636 115.579 209.236 114.885C207.836 114.192 206.288 113.848 204.726 113.884C203.704 113.924 202.707 114.214 201.823 114.728C200.938 115.242 200.194 115.965 199.653 116.833C199.052 117.834 198.77 118.995 198.846 120.161C198.922 121.326 199.353 122.441 200.08 123.355C200.807 124.269 201.796 124.94 202.914 125.276C204.033 125.613 205.228 125.6 206.339 125.24C208.5 124.473 210.443 123.197 212.005 121.519C212.503 121.114 212.907 120.606 213.191 120.031C213.336 119.711 213.393 119.359 213.357 119.01C213.321 118.661 213.192 118.329 212.984 118.046" fill="#EB996E"/>
<path d="M201.652 111.584C202.286 111.584 202.411 115.718 206.133 118.681C209.855 121.643 214.404 120.996 214.404 121.588C214.404 121.85 213.425 122.429 211.509 122.539C209.026 122.651 206.584 121.88 204.616 120.362C202.724 118.9 201.473 116.761 201.128 114.395C200.908 112.631 201.363 111.57 201.652 111.584Z" fill="#263238"/>
<path d="M199.364 63.874C199.006 64.9489 195.091 64.5631 190.514 65.2521C185.937 65.9411 182.243 67.2916 181.636 66.3545C181.347 65.9136 181.967 64.8938 183.428 63.8189C185.39 62.5027 187.626 61.6499 189.967 61.3252C192.307 61.0005 194.691 61.2123 196.938 61.9447C198.62 62.496 199.488 63.309 199.364 63.874Z" fill="#233238"/>
<path d="M234.723 64.7281C234.061 65.6376 231.346 64.7281 228.092 64.8383C224.839 64.9486 222.137 65.6101 221.475 64.7005C221.186 64.2458 221.6 63.3225 222.771 62.4819C224.349 61.4225 226.206 60.8568 228.106 60.8568C230.006 60.8568 231.864 61.4225 233.441 62.4819C234.613 63.3776 235.013 64.2871 234.723 64.7281Z" fill="#233238"/>
<path d="M260.253 60.0291C259.071 55.7062 256.431 51.924 252.782 49.3215C250.741 47.9434 248.37 47.1717 246.468 45.642C242.332 42.3347 241.423 36.5881 238.9 31.9716C237.239 29.0015 234.892 26.4706 232.056 24.5892C229.22 22.7077 225.975 21.5299 222.592 21.1537C216.981 20.5749 211.192 22.2562 205.719 20.8781C201.68 19.8583 198.151 17.24 194.043 16.4545C186.061 14.9386 178.645 20.6714 172.855 26.3628C172.855 32.0818 177.39 35.8991 181.774 39.5647C183.983 41.3895 186.561 42.7129 189.332 43.4434C192.102 44.1739 194.998 44.294 197.82 43.7954C202.176 42.9961 206.96 40.805 210.723 43.1202C214.486 45.4353 214.859 51.5402 218.388 54.5995C223.419 58.968 231.415 54.8751 237.797 56.763C242.732 58.2238 245.82 62.9368 249.087 66.9057C252.354 70.8745 257.276 74.6366 262.211 73.1759C262.065 68.733 261.409 64.3217 260.253 60.0291Z" fill="#438EEB"/>
<path d="M200.315 35.8991C196.745 34.8655 189.425 32.5504 187.509 29.4497C183.373 22.711 175.984 18.1082 168.471 18.5216C164.586 18.8292 160.904 20.3842 157.975 22.9546C155.046 25.525 153.027 28.9731 152.219 32.7847C147.552 32.9502 143.017 34.3715 139.091 36.8988C135.166 39.4261 131.995 42.9657 129.914 47.1441C129.385 48.2209 128.924 49.3302 128.536 50.4653C127.12 52.957 126.264 55.7266 126.026 58.5821C125.788 61.4375 126.174 64.3106 127.157 67.0022C128.384 70.2268 130.493 73.8236 128.839 76.8554C127.185 79.8871 122.87 80.0525 119.534 81.1963C116.659 82.2818 114.257 84.3412 112.746 87.0157C111.234 89.6901 110.709 92.8099 111.263 95.8314C111.731 97.9812 112.751 100.131 112.31 102.281C111.869 104.431 109.925 106.098 108.45 107.793C106.581 109.979 105.323 112.62 104.805 115.449C104.286 118.278 104.526 121.194 105.499 123.9C106.472 126.607 108.143 129.008 110.344 130.86C112.546 132.712 115.197 133.949 118.031 134.445C120.581 134.913 123.338 134.803 125.544 136.154C128.067 137.711 129.17 140.756 130.962 143.127C132.714 145.388 135.116 147.061 137.846 147.92C140.576 148.78 143.503 148.785 146.236 147.936C147.321 147.562 148.35 147.042 149.296 146.393C151.005 148.763 152.935 157.087 157.567 157.087L157.264 90.6361C157.59 91.3696 158.091 92.0121 158.723 92.507C159.355 93.0019 160.099 93.3343 160.889 93.4749C170.47 95.6385 171.918 75.8907 169.74 70.53C173.367 67.576 176.609 64.1777 179.389 60.415C182.036 56.515 184.366 45.8487 183.8 41.0393C187.164 41.2046 201.887 36.3125 200.315 35.8991Z" fill="#438EEB"/>
<path d="M159.842 95.4593C159.538 89.3821 152.108 88.0867 146.842 91.1322C143.961 92.7997 141.756 96.1484 142.017 102.598C142.721 119.782 159.842 115.524 159.842 115C159.842 114.477 160.2 102.556 159.842 95.4593Z" fill="#FFBE9D"/>
<path d="M154.328 108.744C154.245 108.744 154.038 108.965 153.542 109.213C152.844 109.55 152.042 109.6 151.309 109.351C149.462 108.758 147.807 105.947 147.6 102.846C147.492 101.377 147.718 99.9021 148.262 98.5328C148.401 97.9897 148.67 97.4882 149.044 97.0708C149.418 96.6534 149.888 96.3324 150.413 96.135C150.753 96.0292 151.12 96.0457 151.45 96.1815C151.78 96.3174 152.051 96.5642 152.219 96.8791C152.467 97.3615 152.37 97.706 152.467 97.7336C152.563 97.7611 152.825 97.4304 152.66 96.7275C152.549 96.3026 152.296 95.9283 151.943 95.6664C151.451 95.3316 150.847 95.203 150.261 95.3081C149.562 95.4666 148.916 95.804 148.387 96.2872C147.858 96.7704 147.463 97.3827 147.242 98.0643C146.574 99.5847 146.285 101.245 146.401 102.901C146.649 106.36 148.565 109.53 151.074 110.15C151.548 110.267 152.042 110.276 152.519 110.176C152.997 110.076 153.445 109.869 153.831 109.571C154.314 109.158 154.383 108.772 154.328 108.744Z" fill="#EB996E"/>
<path d="M182.822 221.746C182.552 221.666 182.293 221.555 182.05 221.415L179.927 220.326C178.093 219.375 175.46 217.956 172.235 216.192C165.783 212.568 157.002 207.317 147.614 201.033C138.226 194.749 129.997 188.631 124.179 184.097C121.271 181.823 118.941 179.962 117.369 178.584C116.625 177.964 115.991 177.454 115.55 177.041C115.109 176.628 114.929 176.49 114.957 176.462C115.199 176.6 115.429 176.757 115.646 176.931L117.535 178.309L124.496 183.614C130.383 188.079 138.64 194.101 148.014 200.358C157.388 206.614 166.114 211.934 172.483 215.655L180.065 220.037L182.119 221.249C182.37 221.389 182.606 221.555 182.822 221.746Z" fill="#263238"/>
<path d="M255.346 165.218C255.209 165.454 255.042 165.672 254.849 165.865L253.333 167.671C251.955 169.228 250.025 171.433 247.543 174.134C242.581 179.508 235.523 186.771 227.32 194.364C219.118 201.957 211.357 208.462 205.609 212.995C202.741 215.269 200.384 217.13 198.716 218.273L196.814 219.651C196.602 219.825 196.371 219.973 196.124 220.092C196.307 219.888 196.51 219.704 196.731 219.541L198.551 218.039L205.278 212.596C210.944 207.952 218.636 201.406 226.824 193.826C235.013 186.247 242.112 179.054 247.157 173.762L253.113 167.464L254.739 165.755C255.125 165.397 255.332 165.19 255.346 165.218Z" fill="#263238"/>
<path d="M186.861 211.466C186.723 211.617 173.076 199.628 156.533 184.69C139.991 169.751 126.564 157.583 126.702 157.363C126.84 157.142 140.405 169.2 157.03 184.152C173.655 199.104 186.957 211.328 186.861 211.466Z" fill="#263238"/>
<path d="M233.165 163.178C233.049 163.368 232.91 163.544 232.752 163.701L231.47 165.079L226.645 170.261C222.509 174.602 216.885 180.583 210.571 187.142C204.258 193.702 198.509 199.628 194.332 203.886L189.356 208.902L187.977 210.28C187.647 210.583 187.481 210.721 187.454 210.707C187.57 210.517 187.709 210.341 187.867 210.184C188.212 209.784 188.639 209.316 189.149 208.806L193.96 203.624C198.096 199.283 203.734 193.302 210.047 186.743C216.361 180.183 222.096 174.257 226.286 169.999L231.263 164.983L232.641 163.605C232.972 163.302 233.138 163.164 233.165 163.178Z" fill="#263238"/>
<path d="M186.75 219.596C186.552 219.691 186.344 219.765 186.13 219.817C185.535 220.016 184.927 220.172 184.311 220.285C182.044 220.751 179.722 220.881 177.418 220.671C173.98 220.358 170.635 219.39 167.561 217.819C165.735 216.911 164.031 215.777 162.489 214.442C162.075 214.105 161.684 213.741 161.317 213.354C160.916 212.987 160.538 212.596 160.186 212.182C159.828 211.755 159.456 211.383 159.111 210.901C158.918 210.638 158.782 210.337 158.711 210.019C158.676 209.835 158.679 209.647 158.719 209.464C158.76 209.282 158.837 209.109 158.946 208.958C159.161 208.714 159.424 208.516 159.717 208.377C160.011 208.237 160.33 208.158 160.655 208.145C161.262 208.076 161.785 208.145 162.337 208.145C163.411 208.162 164.483 208.235 165.549 208.365C167.569 208.589 169.563 209.004 171.504 209.605C174.791 210.611 177.909 212.102 180.754 214.029C182.673 215.319 184.439 216.821 186.02 218.508C186.453 218.945 186.863 219.405 187.247 219.886C187.522 220.217 187.647 220.396 187.633 220.423C185.46 218.176 183.063 216.158 180.478 214.401C177.635 212.576 174.549 211.161 171.311 210.198C169.403 209.627 167.446 209.231 165.466 209.013C164.423 208.892 163.373 208.828 162.323 208.82C161.795 208.792 161.266 208.792 160.738 208.82C160.285 208.836 159.853 209.018 159.525 209.33C159.028 209.964 160.076 210.901 160.724 211.659C161.065 212.064 161.429 212.451 161.813 212.816C162.171 213.19 162.553 213.54 162.957 213.864C164.45 215.173 166.098 216.293 167.865 217.199C170.874 218.757 174.146 219.747 177.514 220.12C179.781 220.372 182.071 220.321 184.324 219.968C185.854 219.748 186.723 219.514 186.75 219.596Z" fill="white"/>
<path d="M187.591 220.864C187.558 220.654 187.558 220.44 187.591 220.23C187.665 219.625 187.78 219.027 187.936 218.438C188.544 216.276 189.519 214.235 190.817 212.402C192.747 209.691 195.097 207.304 197.779 205.333C199.267 204.189 200.88 203.086 202.576 201.97C203.444 201.419 204.272 200.854 205.195 200.303C205.676 200.004 206.202 199.785 206.753 199.655C207.365 199.511 208.008 199.6 208.559 199.903C209.056 200.253 209.432 200.748 209.637 201.32C209.842 201.893 209.865 202.514 209.703 203.1C209.39 204.121 208.859 205.062 208.145 205.856C206.943 207.405 205.63 208.865 204.216 210.225C201.822 212.523 199.161 214.527 196.29 216.192C194.361 217.316 192.336 218.266 190.238 219.031C189.494 219.306 188.86 219.485 188.515 219.596C188.319 219.681 188.108 219.728 187.895 219.733C188.627 219.375 189.377 219.053 190.142 218.769C192.174 217.912 194.142 216.908 196.028 215.765C198.821 214.056 201.411 212.036 203.748 209.742C205.13 208.398 206.416 206.956 207.594 205.429C208.226 204.685 208.696 203.816 208.972 202.88C209.095 202.441 209.082 201.976 208.934 201.545C208.786 201.115 208.511 200.739 208.145 200.468C207.71 200.296 207.237 200.243 206.775 200.313C206.312 200.383 205.877 200.574 205.512 200.868C204.644 201.378 203.761 201.97 202.921 202.508C201.225 203.61 199.612 204.685 198.151 205.801C195.514 207.731 193.189 210.055 191.258 212.692C189.951 214.463 188.932 216.431 188.239 218.521C187.771 220.009 187.647 220.877 187.591 220.864Z" fill="white"/>
<path d="M188.336 261.848C188.144 261.32 188.001 260.776 187.909 260.222C187.66 259.174 187.371 257.645 187.081 255.743C185.534 245.8 185.353 235.693 186.544 225.701C186.778 223.786 187.012 222.256 187.219 221.195C187.288 220.637 187.413 220.088 187.591 219.555C187.627 220.117 187.594 220.682 187.495 221.236C187.371 222.297 187.219 223.841 187.054 225.756C186.144 235.714 186.319 245.741 187.578 255.66C187.812 257.576 188.019 259.106 188.184 260.18C188.297 260.729 188.348 261.288 188.336 261.848Z" fill="white"/>
<path d="M196.607 255.633C196.353 255.222 196.149 254.783 196 254.324C195.656 253.455 195.187 252.201 194.622 250.63C193.519 247.488 192.14 243.092 190.9 238.228C189.659 233.363 188.763 228.788 188.225 225.494C187.964 223.854 187.771 222.518 187.674 221.594C187.584 221.118 187.551 220.632 187.578 220.147C187.761 220.589 187.886 221.052 187.95 221.526C188.17 222.587 188.418 223.868 188.736 225.384C189.383 228.636 190.348 233.115 191.589 238.021C192.83 242.927 194.126 247.323 195.104 250.424C195.545 251.898 195.931 253.18 196.249 254.186C196.442 254.647 196.563 255.135 196.607 255.633Z" fill="white"/>
</svg>
