<svg width="135" height="44" viewBox="0 0 135 44" fill="none" xmlns="http://www.w3.org/2000/svg">
<g clip-path="url(#clip0_16_50)">
<path fill-rule="evenodd" clip-rule="evenodd" d="M132.859 30.2772C132.445 29.8823 132.116 29.8259 131.844 30.5782C127.184 43.8376 119.336 37.2173 120.122 37.8004C121.866 36.7471 126.441 31.9323 125.754 25.2556C125.34 21.1743 122.681 19.3687 119.851 20.027C114.919 21.1555 113.118 28.152 114.032 34.3397C114.19 35.4118 114.475 36.2769 114.776 37.1421C109.215 43.1041 106.999 31.8195 106.742 30.4653C106.728 30.3901 111.045 25.6693 112.246 14.4035C113.504 2.611 110.644 0.448108 107.714 0.52334C102.296 0.654994 100.838 15.5319 102.796 27.9263C102.639 27.9827 101.867 28.5469 100.638 28.6033C99.7515 24.9358 95.9632 21.7197 94.9769 22.961C92.5037 26.0643 95.5772 32.1204 97.7503 32.5906C96.4492 43.1418 88.301 40.5275 89.8162 27.3056C92.4609 20.8357 94.4909 11.1873 94.1193 5.37573C93.9905 3.3257 92.8325 0.560955 90.2166 0.692609C85.1847 0.95592 84.6415 15.8329 85.2275 26.4029C85.1991 26.1395 84.9131 27.6818 82.8544 28.4529C82.3684 24.8982 78.0085 21.3059 76.9794 23.0363C75.0638 26.2524 78.3945 31.9888 79.9669 32.3837C78.6661 42.9349 70.5179 40.3206 72.0331 27.0987C74.6922 20.6289 76.7078 10.9993 76.3502 5.18769C76.2218 3.13762 75.0638 0.372877 72.4475 0.504532C67.4157 0.767841 66.8725 15.6448 67.4588 26.2148C67.4301 25.9514 67.1441 27.5501 64.9998 28.3024C64.9285 23.6757 60.5542 21.5692 59.4963 23.0363C57.6235 25.6693 59.9251 31.0672 62.055 32.3837C60.7542 42.9349 52.6061 40.3206 54.1212 27.0987C56.7659 20.6289 58.7959 10.9805 58.4243 5.16885C58.3099 3.13762 57.1519 0.372877 54.5357 0.504532C49.5038 0.767841 49.1038 16.3971 49.6898 26.9671C48.0314 36.3145 42.4708 47.9754 43.1996 24.5973C43.2712 22.961 43.3427 22.3403 42.728 21.7197C42.2564 21.2495 41.1984 21.4752 40.6265 21.494C39.9261 21.5316 39.7404 22.0771 39.5973 22.8858C39.2401 24.9922 39.1685 27.0423 39.1113 29.8447C39.0828 31.1612 38.9969 31.7631 38.6109 33.5498C38.2249 35.3365 36.0522 38.5903 34.8514 38.0448C33.1931 37.2926 33.7362 31.1424 34.0507 26.9106C34.3082 23.5629 33.479 22.0771 31.3633 21.5316C30.1196 21.1931 29.362 21.2495 28.0754 20.7041C26.846 20.1963 26.5744 17.1494 23.9727 18.165C22.5432 18.7293 23.4581 22.6977 23.115 25.6505C21.4282 40.1513 17.9258 40.5463 16.2962 33.5122C23.6153 9.88961 18.3976 0.579763 15.3527 0.579763C12.1792 0.579763 8.5482 3.45735 10.0778 21.889C9.33442 21.6069 9.10571 21.4564 8.27658 21.4564C3.65924 21.4376 0.5 26.3652 0.5 32.4401C0.5 38.5151 3.65924 43.4427 8.29089 43.4427C11.0213 43.4427 12.9368 41.8064 14.3949 39.2862C15.3384 41.0729 16.4963 43.4803 18.612 43.3675C24.9019 43.0477 26.7317 26.0643 26.9461 25.1051C27.618 25.2368 28.2613 25.5001 28.876 25.6317C29.9052 25.8386 29.991 26.384 29.9624 27.7382C29.6908 39.2862 31.3061 43.3298 34.9802 43.3298C37.0242 43.3298 38.8541 40.678 40.112 38.7972C41.0556 41.355 42.542 43.2546 44.5579 43.3298C49.4182 43.4803 51.2909 33.2865 51.1193 34.6218C50.9905 35.6751 52.6917 43.2546 57.7095 43.2922C63.9134 43.3298 65.0713 34.3585 65.2001 32.8539C65.2285 32.5906 65.2145 32.553 65.2001 32.8539C65.2001 32.8727 65.2001 32.9103 65.2001 32.9479C67.1728 32.4589 68.1876 31.086 68.1876 31.086C68.1876 31.086 69.7744 43.4427 75.6214 43.3111C81.6968 43.1606 82.8544 35.0544 82.9976 33.4745C83.026 33.136 83.012 33.0984 82.9976 33.4745C82.9976 33.4934 82.9976 33.5122 82.9976 33.5122C85.3419 32.3837 85.9567 31.2741 85.9567 31.2741C85.9567 31.2741 87.2147 43.3863 93.3901 43.4991C98.8939 43.5933 100.938 36.1641 100.952 33.0608C101.881 33.0796 103.597 32.3273 103.554 32.2897C103.554 32.2897 105.57 42.8785 111.202 43.4239C113.847 43.687 115.833 41.4679 116.963 40.4522C119.622 43.2922 128.471 46.9035 134.06 34.4338C134.86 32.6659 133.159 30.5406 132.859 30.2772ZM8.06214 39.3238C5.36038 39.3238 3.63065 36.0324 3.63065 32.4966C3.63065 28.9607 5.21742 25.6693 7.91922 25.6693C9.13431 25.6693 9.80617 25.8386 10.7639 26.9295C10.9355 27.8134 11.4215 29.8635 11.6646 30.8039C11.979 32.0452 12.365 33.1172 12.7367 34.2645C12.1792 37.2361 10.4066 39.3238 8.06214 39.3238ZM14.6379 27.0235C14.5236 26.779 14.5522 26.9295 14.4235 26.7038C13.9375 24.9358 12.9797 20.9862 12.8654 16.4911C12.7367 11.4131 13.38 5.45098 15.2812 5.45098C16.5678 5.45098 17.9401 17.5256 14.6379 27.0235ZM52.6773 21.7385C52.3773 18.7293 52.3629 5.28173 54.8076 5.65785C56.1656 6.37255 53.9497 19.049 52.6773 21.7385ZM70.5892 21.7385C70.2892 18.7293 70.2748 5.28173 72.7195 5.65785C74.0774 6.37255 71.8615 19.049 70.5892 21.7385ZM88.3582 21.9266C88.0579 18.9173 88.0438 5.46977 90.4882 5.84593C91.8462 6.54184 89.6306 19.2371 88.3582 21.9266ZM107.971 4.84915C110.216 4.5482 110.116 17.4316 105.627 25.5565C105.041 22.6225 104.155 5.86477 107.971 4.84915ZM117.406 32.5906C116.691 27.7946 118.55 24.6537 120.465 24.3152C121.137 24.1835 122.109 24.7477 122.295 25.8198C122.61 27.8322 122.252 30.8227 117.949 34.603C117.964 34.6218 117.563 33.6438 117.406 32.5906ZM41.37 17.8077C42.8996 17.8077 44.1431 16.1714 44.1431 14.159C44.1431 12.1466 42.8996 10.5103 41.37 10.5103C39.8404 10.5103 38.5965 12.1466 38.5965 14.159C38.5965 16.1714 39.8404 17.8077 41.37 17.8077Z" fill="#717272"/>
</g>
<defs>
<clipPath id="clip0_16_50">
<rect width="134" height="43" fill="white" transform="translate(0.5 0.5)"/>
</clipPath>
</defs>
</svg>
