<svg width="30" height="30" viewBox="0 0 30 30" fill="none" xmlns="http://www.w3.org/2000/svg">
<path d="M15 11.625C14.3325 11.625 13.68 11.8229 13.125 12.1938C12.5699 12.5646 12.1374 13.0917 11.8819 13.7084C11.6265 14.3251 11.5596 15.0037 11.6898 15.6584C11.8201 16.3131 12.1415 16.9145 12.6135 17.3865C13.0855 17.8585 13.6869 18.1799 14.3416 18.3102C14.9963 18.4404 15.6749 18.3735 16.2916 18.1181C16.9083 17.8626 17.4354 17.4301 17.8062 16.875C18.1771 16.32 18.375 15.6675 18.375 15C18.375 14.1049 18.0194 13.2464 17.3865 12.6135C16.7536 11.9806 15.8951 11.625 15 11.625ZM15 17.25C14.555 17.25 14.12 17.118 13.75 16.8708C13.38 16.6236 13.0916 16.2722 12.9213 15.861C12.751 15.4499 12.7064 14.9975 12.7932 14.561C12.88 14.1246 13.0943 13.7237 13.409 13.409C13.7237 13.0943 14.1246 12.88 14.561 12.7932C14.9975 12.7064 15.4499 12.751 15.861 12.9213C16.2722 13.0916 16.6236 13.38 16.8708 13.75C17.118 14.12 17.25 14.555 17.25 15C17.2481 15.5962 17.0105 16.1674 16.5889 16.5889C16.1674 17.0105 15.5962 17.2481 15 17.25ZM18.0938 7.96875H11.9062C10.862 7.96875 9.86044 8.38359 9.12202 9.12202C8.38359 9.86044 7.96875 10.862 7.96875 11.9062V18.0938C7.96875 19.138 8.38359 20.1396 9.12202 20.878C9.86044 21.6164 10.862 22.0312 11.9062 22.0312H18.0938C19.138 22.0312 20.1396 21.6164 20.878 20.878C21.6164 20.1396 22.0312 19.138 22.0312 18.0938V11.9062C22.0312 10.862 21.6164 9.86044 20.878 9.12202C20.1396 8.38359 19.138 7.96875 18.0938 7.96875ZM20.9062 18.0938C20.9062 18.4631 20.8335 18.8288 20.6922 19.17C20.5508 19.5113 20.3437 19.8213 20.0825 20.0825C19.8213 20.3437 19.5113 20.5508 19.17 20.6922C18.8288 20.8335 18.4631 20.9062 18.0938 20.9062H11.9062C11.5369 20.9062 11.1712 20.8335 10.83 20.6922C10.4887 20.5508 10.1787 20.3437 9.91751 20.0825C9.65635 19.8213 9.44918 19.5113 9.30784 19.17C9.1665 18.8288 9.09375 18.4631 9.09375 18.0938V11.9062C9.09375 11.1603 9.39007 10.445 9.91751 9.91751C10.445 9.39007 11.1603 9.09375 11.9062 9.09375H18.0938C18.4631 9.09375 18.8288 9.1665 19.17 9.30784C19.5113 9.44918 19.8213 9.65635 20.0825 9.91751C20.3437 10.1787 20.5508 10.4887 20.6922 10.83C20.8335 11.1712 20.9062 11.5369 20.9062 11.9062V18.0938ZM19.5 11.3438C19.5 11.5106 19.4505 11.6738 19.3578 11.8125C19.2651 11.9513 19.1333 12.0594 18.9791 12.1233C18.825 12.1871 18.6553 12.2038 18.4916 12.1713C18.328 12.1387 18.1776 12.0584 18.0596 11.9404C17.9416 11.8224 17.8613 11.672 17.8287 11.5084C17.7962 11.3447 17.8129 11.175 17.8767 11.0209C17.9406 10.8667 18.0487 10.7349 18.1875 10.6422C18.3262 10.5495 18.4894 10.5 18.6562 10.5C18.88 10.5 19.0946 10.5889 19.2529 10.7471C19.4111 10.9054 19.5 11.12 19.5 11.3438Z" fill="black"/>
<rect x="0.5" y="0.5" width="29" height="29" rx="14.5" stroke="#020611"/>
</svg>
