<svg width="30" height="30" viewBox="0 0 30 30" fill="none" xmlns="http://www.w3.org/2000/svg">
<path d="M23.2757 11.4633L21.1523 13.5798C20.7304 18.4946 16.582 22.3126 11.6249 22.3126C10.6054 22.3126 9.76166 22.1508 9.12182 21.8344C8.60854 21.5743 8.3976 21.3001 8.34135 21.2157C8.29481 21.145 8.26482 21.0647 8.25362 20.9808C8.24241 20.8969 8.25028 20.8116 8.27664 20.7312C8.303 20.6508 8.34716 20.5773 8.40585 20.5163C8.46453 20.4554 8.53622 20.4084 8.61557 20.379C8.62963 20.3719 10.289 19.7391 11.3648 18.5227C10.6976 18.0477 10.1112 17.4684 9.62807 16.8071C8.66479 15.4993 7.64526 13.2282 8.25697 9.83913C8.2762 9.73837 8.32229 9.64468 8.39036 9.56795C8.45842 9.49122 8.54595 9.4343 8.64369 9.40319C8.74175 9.37108 8.84674 9.36656 8.94719 9.39013C9.04764 9.41369 9.13968 9.46443 9.21322 9.53678C9.23432 9.56491 11.5757 11.8712 14.4374 12.6165V12.1876C14.4402 11.7416 14.5308 11.3005 14.704 10.8895C14.8772 10.4786 15.1297 10.1057 15.447 9.79232C15.7643 9.47892 16.1403 9.2311 16.5534 9.06299C16.9665 8.89488 17.4086 8.80979 17.8546 8.81257C18.44 8.82091 19.0132 8.98074 19.5184 9.27647C20.0236 9.57221 20.4436 9.99376 20.7374 10.5001H22.8749C22.986 10.4997 23.0947 10.5323 23.1873 10.5936C23.2799 10.6549 23.3522 10.7422 23.3953 10.8446C23.4358 10.9485 23.4461 11.0617 23.4249 11.1712C23.4038 11.2807 23.352 11.382 23.2757 11.4633Z" fill="#020611"/>
<rect x="0.5" y="0.5" width="29" height="29" rx="14.5" stroke="#020611"/>
</svg>
