<svg width="110" height="27" viewBox="0 0 110 27" fill="none" xmlns="http://www.w3.org/2000/svg">
<path d="M3.43165 6.45876C3.51103 6.19427 3.78979 6.04421 4.05428 6.12359L12.6744 8.71067C12.9389 8.79005 13.089 9.06881 13.0096 9.3333L12.5585 10.8365C12.4873 11.0735 12.2535 11.2228 12.0085 11.1877L3.00026 9.89359C2.69768 9.85013 2.50459 9.54773 2.59246 9.25495L3.43165 6.45876Z" fill="white" fill-opacity="0.6"/>
<path d="M1.25333 18.8416C1.02874 18.6809 0.976932 18.3686 1.13761 18.144L5.98223 11.3724C6.14291 11.1478 6.45522 11.096 6.6798 11.2567L8.8443 12.8052C9.01858 12.9299 9.09458 13.1525 9.02845 13.3563C8.15116 16.0606 6.89185 17.6835 4.00742 20.3271C3.83394 20.4861 3.57281 20.501 3.38143 20.3641L1.25333 18.8416Z" fill="white" fill-opacity="0.6"/>
<path d="M33.3593 7.364V9.83H30.0113V20H26.9333V9.83H23.5853V7.364H33.3593ZM41.3481 20L38.7201 15.23H37.9821V20H34.9041V7.364H40.0701C41.0661 7.364 41.9121 7.538 42.6081 7.886C43.3161 8.234 43.8441 8.714 44.1921 9.326C44.5401 9.926 44.7141 10.598 44.7141 11.342C44.7141 12.182 44.4741 12.932 43.9941 13.592C43.5261 14.252 42.8301 14.72 41.9061 14.996L44.8221 20H41.3481ZM37.9821 13.052H39.8901C40.4541 13.052 40.8741 12.914 41.1501 12.638C41.4381 12.362 41.5821 11.972 41.5821 11.468C41.5821 10.988 41.4381 10.61 41.1501 10.334C40.8741 10.058 40.4541 9.92 39.8901 9.92H37.9821V13.052ZM54.5123 17.768H49.7963L49.0403 20H45.8183L50.3903 7.364H53.9543L58.5263 20H55.2683L54.5123 17.768ZM53.7203 15.392L52.1543 10.766L50.6063 15.392H53.7203ZM70.7538 7.364L66.3798 15.824V20H63.3018V15.824L58.9278 7.364H62.4198L64.8678 12.656L67.2978 7.364H70.7538ZM76.7279 7.364C78.0599 7.364 79.2239 7.628 80.2199 8.156C81.2159 8.684 81.9839 9.428 82.5239 10.388C83.0759 11.336 83.3519 12.434 83.3519 13.682C83.3519 14.918 83.0759 16.016 82.5239 16.976C81.9839 17.936 81.2099 18.68 80.2019 19.208C79.2059 19.736 78.0479 20 76.7279 20H71.9939V7.364H76.7279ZM76.5299 17.336C77.6939 17.336 78.5999 17.018 79.2479 16.382C79.8959 15.746 80.2199 14.846 80.2199 13.682C80.2199 12.518 79.8959 11.612 79.2479 10.964C78.5999 10.316 77.6939 9.992 76.5299 9.992H75.0719V17.336H76.5299ZM92.9381 17.768H88.2221L87.4661 20H84.2441L88.8161 7.364H92.3801L96.9521 20H93.6941L92.9381 17.768ZM92.1461 15.392L90.5801 10.766L89.0321 15.392H92.1461ZM109.288 7.364V20H106.21V14.798H101.422V20H98.3435V7.364H101.422V12.314H106.21V7.364H109.288Z" fill="white"/>
</svg>
