<svg width="124" height="27" viewBox="0 0 124 27" fill="none" xmlns="http://www.w3.org/2000/svg">
<path d="M6.43171 6.45888C6.51109 6.19439 6.78985 6.04433 7.05434 6.12371L15.6745 8.71079C15.939 8.79017 16.089 9.06893 16.0097 9.33342L15.5585 10.8366C15.4874 11.0736 15.2535 11.223 15.0085 11.1878L6.00032 9.89372C5.69774 9.85025 5.50465 9.54785 5.59252 9.25507L6.43171 6.45888Z" fill="#031C63"/>
<path d="M4.25333 18.8417C4.02874 18.681 3.97693 18.3687 4.13761 18.1441L8.98223 11.3725C9.14291 11.1479 9.45522 11.0961 9.6798 11.2568L11.8443 12.8053C12.0186 12.93 12.0946 13.1526 12.0285 13.3565C11.1512 16.0608 9.89185 17.6836 7.00742 20.3272C6.83394 20.4862 6.57281 20.5011 6.38143 20.3642L4.25333 18.8417Z" fill="#031C63"/>
<path d="M42.3593 7.364V9.83H39.0113V20H35.9333V9.83H32.5853V7.364H42.3593ZM50.3481 20L47.7201 15.23H46.9821V20H43.9041V7.364H49.0701C50.0661 7.364 50.9121 7.538 51.6081 7.886C52.3161 8.234 52.8441 8.714 53.1921 9.326C53.5401 9.926 53.7141 10.598 53.7141 11.342C53.7141 12.182 53.4741 12.932 52.9941 13.592C52.5261 14.252 51.8301 14.72 50.9061 14.996L53.8221 20H50.3481ZM46.9821 13.052H48.8901C49.4541 13.052 49.8741 12.914 50.1501 12.638C50.4381 12.362 50.5821 11.972 50.5821 11.468C50.5821 10.988 50.4381 10.61 50.1501 10.334C49.8741 10.058 49.4541 9.92 48.8901 9.92H46.9821V13.052ZM63.5123 17.768H58.7963L58.0403 20H54.8183L59.3903 7.364H62.9543L67.5263 20H64.2683L63.5123 17.768ZM62.7203 15.392L61.1543 10.766L59.6063 15.392H62.7203ZM79.7538 7.364L75.3798 15.824V20H72.3018V15.824L67.9278 7.364H71.4198L73.8678 12.656L76.2978 7.364H79.7538ZM85.7279 7.364C87.0599 7.364 88.2239 7.628 89.2199 8.156C90.2159 8.684 90.9839 9.428 91.5239 10.388C92.0759 11.336 92.3519 12.434 92.3519 13.682C92.3519 14.918 92.0759 16.016 91.5239 16.976C90.9839 17.936 90.2099 18.68 89.2019 19.208C88.2059 19.736 87.0479 20 85.7279 20H80.9939V7.364H85.7279ZM85.5299 17.336C86.6939 17.336 87.5999 17.018 88.2479 16.382C88.8959 15.746 89.2199 14.846 89.2199 13.682C89.2199 12.518 88.8959 11.612 88.2479 10.964C87.5999 10.316 86.6939 9.992 85.5299 9.992H84.0719V17.336H85.5299ZM101.938 17.768H97.2221L96.4661 20H93.2441L97.8161 7.364H101.38L105.952 20H102.694L101.938 17.768ZM101.146 15.392L99.5801 10.766L98.0321 15.392H101.146ZM118.288 7.364V20H115.21V14.798H110.422V20H107.344V7.364H110.422V12.314H115.21V7.364H118.288Z" fill="#031C63"/>
</svg>
