<svg width="530" height="501" viewBox="0 0 530 501" fill="none" xmlns="http://www.w3.org/2000/svg">
<path d="M138.539 16.7877L139.023 17.5913C139.559 18.488 140.34 19.2158 141.276 19.6898L142.121 20.1028L141.31 20.5828C140.408 21.1135 139.677 21.8878 139.204 22.8152L138.776 23.6635L138.291 22.8598C137.756 21.9631 136.975 21.2354 136.039 20.7614L135.194 20.3484L136.005 19.8572C136.91 19.3277 137.645 18.5533 138.122 17.6248L138.539 16.7877Z" fill="#E0E0E0"/>
<path d="M258.021 78.4584L258.505 79.262C259.04 80.1588 259.821 80.8865 260.757 81.3605L261.602 81.7735L260.791 82.2535C259.889 82.7873 259.156 83.5606 258.674 84.4859L258.257 85.3231L257.773 84.5306C257.237 83.6338 256.456 82.9061 255.52 82.4321L254.675 82.0191L255.486 81.528C256.391 81.0012 257.123 80.2258 257.592 79.2955L258.021 78.4584Z" fill="#E0E0E0"/>
<path d="M52.5209 249.808L53.0052 250.612C53.5439 251.506 54.3242 252.233 55.2579 252.71L56.1139 253.123L55.3029 253.603C54.4008 254.137 53.6673 254.91 53.1854 255.836L52.7687 256.684L52.2731 255.88C51.7388 254.983 50.9574 254.255 50.0204 253.782L49.1644 253.369L49.9754 252.878C50.881 252.348 51.6156 251.574 52.0929 250.645L52.5209 249.808Z" fill="#E0E0E0"/>
<path d="M374.686 465.527L375.182 466.33C375.716 467.228 376.497 467.956 377.434 468.429L378.29 468.842L377.479 469.333C376.574 469.863 375.839 470.637 375.362 471.565L374.945 472.414L374.461 471.61C373.922 470.716 373.142 469.989 372.208 469.512L371.363 469.099L372.174 468.607C373.072 468.072 373.802 467.299 374.28 466.375L374.686 465.527Z" fill="#E0E0E0"/>
<path d="M466.403 226.245L467.53 227.997C468.726 229.968 470.465 231.56 472.542 232.585L474.4 233.489L472.632 234.605C470.643 235.79 469.037 237.514 468.003 239.572L467.091 241.414L466.021 239.662C464.828 237.688 463.088 236.096 461.008 235.074L459.15 234.17L460.93 233.109C462.915 231.924 464.517 230.2 465.547 228.142L466.403 226.245Z" fill="#E0E0E0"/>
<path d="M364.414 2.00891L365.484 3.77253C366.677 5.74293 368.417 7.33159 370.496 8.34898L372.355 9.25312L370.575 10.3693C368.59 11.5552 366.987 13.2785 365.957 15.3365L365.045 17.1782L363.918 15.4258C362.721 13.4516 360.978 11.8594 358.895 10.8381L357.104 9.82238L358.872 8.76198C360.864 7.57977 362.47 5.85573 363.502 3.79485L364.414 2.00891Z" fill="#E0E0E0"/>
<path d="M146.04 438.827L147.099 440.59C148.297 442.561 150.04 444.15 152.123 445.167L153.97 446.071L152.201 447.131C150.21 448.315 148.607 450.044 147.583 452.11L146.66 453.94L145.601 452.188C144.404 450.217 142.66 448.628 140.578 447.611L138.73 446.696L140.499 445.647C142.485 444.457 144.087 442.73 145.117 440.668L146.04 438.827Z" fill="#E0E0E0"/>
<path d="M436.049 150.398C436.049 150.398 426.959 154.863 415.076 161.817C400.592 170.345 370.778 187.099 351.72 173.861L334.273 139.917C334.273 139.917 345.469 145.007 362.511 142.808C377.716 140.854 389.88 132.918 395.354 129.268C397.607 127.783 400.49 125.785 402.777 124.424C406.606 122.191 411.202 118.843 417.892 115.583L436.049 150.398Z" fill="#EBEBEB"/>
<path d="M389.641 169.271C397.245 167.951 402.383 161.081 401.119 153.928C399.854 146.775 392.664 142.047 385.06 143.368C377.456 144.689 372.318 151.558 373.583 158.711C374.847 165.864 382.037 170.592 389.641 169.271Z" fill="#F5F5F5"/>
<path d="M382.807 150.967L381.681 149.248L383.066 148.355L384.192 150.041C385.473 149.292 386.956 148.953 388.439 149.07L388.901 151.436C387.737 151.321 386.565 151.538 385.522 152.061L387.2 154.629C389.002 154.059 391.086 153.512 392.516 155.745C393.586 157.374 393.428 159.462 391.39 161.136L392.516 162.844L391.131 163.726L390.004 162.051C388.971 162.619 387.807 162.912 386.625 162.9L386.085 160.567C386.994 160.578 387.895 160.387 388.72 160.009L387.02 157.397C385.229 157.977 383.167 158.513 381.76 156.281C380.701 154.707 380.825 152.698 382.807 150.967ZM383.821 154.696C384.17 155.243 384.756 155.276 385.51 155.12L384.125 152.999C383.873 153.195 383.703 153.477 383.647 153.79C383.591 154.103 383.653 154.425 383.821 154.696ZM388.608 156.928L390.027 159.16C390.288 158.95 390.462 158.652 390.516 158.323C390.57 157.993 390.5 157.656 390.32 157.374C389.971 156.738 389.362 156.716 388.585 156.883L388.608 156.928Z" fill="#EBEBEB"/>
<path d="M353.669 174.039L353.894 174.173C354.457 174.508 368.052 182.176 392.291 171.249C401.346 167.16 410.051 162.348 418.32 156.861C423.569 153.512 427.331 151.045 431.521 149.951L432.647 149.661L416.957 117.715L416.068 118.34C415.808 118.519 390.229 136.144 378.831 140.765C369.82 144.437 352.666 149.695 339.758 143.835L337.281 142.718L353.669 174.039ZM379.507 142.484C387.74 139.135 402.709 129.502 411.044 123.932C411.816 125.114 412.992 125.982 414.355 126.377C415.868 126.793 417.483 126.608 418.861 125.864L427.455 143.355C426.765 143.638 426.149 144.074 425.655 144.629C425.162 145.184 424.802 145.844 424.605 146.558C424.252 147.936 424.33 149.389 424.83 150.722C422.578 151.949 420.134 153.49 417.306 155.309C409.122 160.754 400.499 165.522 391.525 169.563C379.349 175.055 370.023 175.58 364.346 175.055C362.864 174.921 361.392 174.686 359.942 174.352C359.513 172.709 358.588 171.236 357.293 170.127C355.997 169.018 354.391 168.327 352.689 168.146L343.532 150.666C344.467 150.588 345.694 150.029 345.931 147.685C358.028 149.951 371.69 145.643 379.45 142.484H379.507Z" fill="#F5F5F5"/>
<path d="M126.994 34.8034C126.994 34.8034 117.905 39.2683 106.022 46.2223C91.5371 54.7389 61.7231 71.5044 42.6655 58.2662L25.2186 24.3334C25.2186 24.3334 36.4144 29.4121 53.4558 27.2244C68.6613 25.271 80.8257 17.3347 86.2997 13.6736C88.5524 12.2002 91.4358 10.191 93.7222 8.82922C97.5518 6.5968 102.147 3.24817 108.838 0L126.994 34.8034Z" fill="#EBEBEB"/>
<path d="M80.5873 53.6531C88.1911 52.3326 93.3298 45.4634 92.0649 38.3105C90.8 31.1575 83.6105 26.4294 76.0066 27.75C68.4028 29.0706 63.2641 35.9397 64.529 43.0927C65.7939 50.2456 72.9834 54.9737 80.5873 53.6531Z" fill="#F5F5F5"/>
<path d="M73.7523 35.373L72.626 33.6429L74.0114 32.761L75.1377 34.4465C76.4167 33.693 77.9011 33.3535 79.384 33.4754L79.8458 35.8418C78.6836 35.7279 77.5126 35.9406 76.4668 36.4557L78.145 39.0341C79.9471 38.4649 82.0309 37.9179 83.4613 40.1504C84.0262 41.0135 84.2247 42.0625 84.0138 43.0698C83.803 44.0771 83.1997 44.9613 82.335 45.5305L83.4613 47.2383L82.0759 48.1313L80.9496 46.4458C79.9172 47.017 78.753 47.3132 77.5706 47.3053L77.0299 44.9724C77.939 44.9785 78.8384 44.788 79.6656 44.4143L77.9648 41.8024C76.1739 42.3828 74.1127 42.9186 72.7048 40.6861C71.6123 39.1123 71.77 37.0473 73.7523 35.373ZM74.766 39.1011C75.1152 39.6369 75.7009 39.6816 76.4555 39.5253L75.0701 37.4045C74.8182 37.601 74.648 37.8825 74.5919 38.1954C74.5358 38.5082 74.5978 38.8306 74.766 39.1011ZM79.5529 41.3335L80.9721 43.566C81.2319 43.3521 81.4047 43.0522 81.4586 42.7218C81.5124 42.3914 81.4436 42.0529 81.265 41.7689C80.9158 41.1438 80.3076 41.0768 79.5529 41.2889V41.3335Z" fill="#EBEBEB"/>
<path d="M44.5578 58.4447L44.7831 58.5787C45.3462 58.9136 58.9411 66.5819 83.1798 55.6542C92.2487 51.563 100.969 46.7514 109.254 41.2663C114.503 37.9176 118.265 35.4508 122.455 34.3569L123.581 34.0667L107.813 2.12079L106.923 2.74587C106.664 2.92446 81.0961 20.5383 69.6863 25.1705C60.6756 28.8429 43.5216 34.1002 30.6138 28.2401L28.1359 27.1239L44.5578 58.4447ZM70.3959 26.8895C78.6294 23.5409 93.5984 13.908 101.933 8.33808C102.737 9.58029 103.988 10.4718 105.433 10.8306C106.877 11.1895 108.405 10.9887 109.705 10.2691L118.299 27.7601C117.608 28.0421 116.992 28.4776 116.498 29.0331C116.004 29.5885 115.645 30.249 115.449 30.9637C115.095 32.3381 115.174 33.787 115.674 35.116C113.422 36.3549 110.978 37.8953 108.151 39.7147C99.9771 45.1582 91.3654 49.9257 82.4026 53.9687C70.227 59.4605 60.9009 59.9851 55.1904 59.4493C53.7082 59.3183 52.2368 59.0871 50.7864 58.7573C50.3588 57.1129 49.4354 55.6369 48.1394 54.526C46.8434 53.4152 45.2364 52.7224 43.5328 52.54L34.4095 35.0601C35.3444 34.9932 36.5721 34.4351 36.8086 32.0799C48.973 34.3793 62.6017 30.0484 70.3959 26.8895Z" fill="#F5F5F5"/>
<path d="M450.387 419.639C450.387 419.639 441.297 424.104 429.415 431.058C414.941 439.564 385.116 456.307 366.058 443.102L348.611 409.158C348.611 409.158 359.807 414.248 376.849 412.06C392.054 410.096 404.219 402.159 409.692 398.509C411.945 397.025 414.829 395.027 417.115 393.665C420.945 391.433 425.54 388.084 432.23 384.825L450.387 419.639Z" fill="#EBEBEB"/>
<path d="M387.92 427.944C386.659 420.789 391.795 413.924 399.398 412.596C407.001 411.268 414.187 416.012 415.448 423.167C416.71 430.321 411.573 437.186 403.971 438.503C396.368 439.82 389.182 435.099 387.92 427.944Z" fill="#F5F5F5"/>
<path d="M397.145 420.209L396.019 418.49L397.404 417.608L398.53 419.282C399.811 418.534 401.294 418.194 402.777 418.311L403.239 420.678C402.075 420.568 400.905 420.785 399.86 421.303L401.538 423.87C403.34 423.301 405.435 422.754 406.865 424.986C407.924 426.627 407.766 428.703 405.739 430.377L406.865 432.085L405.48 432.967L404.354 431.293C403.32 431.859 402.156 432.151 400.975 432.141L400.434 429.808C401.342 429.82 402.242 429.633 403.07 429.261L401.369 426.638C399.578 427.219 397.517 427.754 396.109 425.522C395.005 423.937 395.163 421.894 397.145 420.209ZM398.159 423.948C398.508 424.484 399.105 424.517 399.848 424.372L398.463 422.24C398.217 422.441 398.051 422.722 397.995 423.033C397.94 423.344 397.998 423.664 398.159 423.937V423.948ZM402.946 426.18L404.376 428.357C404.633 428.144 404.804 427.845 404.855 427.516C404.907 427.188 404.837 426.852 404.658 426.571C404.354 425.991 403.7 425.957 402.946 426.169V426.18Z" fill="#EBEBEB"/>
<path d="M367.951 443.28L368.176 443.414C368.75 443.749 382.334 451.417 406.573 440.501C415.628 436.407 424.333 431.592 432.602 426.102C437.851 422.753 441.613 420.286 445.803 419.192L446.929 418.902L431.239 386.967L430.338 387.581C430.079 387.76 404.511 405.385 393.102 410.006C384.091 413.678 366.937 418.936 354.029 413.076L351.562 411.959L367.951 443.28ZM393.789 411.725C402.022 408.376 416.991 398.744 425.326 393.174C426.13 394.416 427.381 395.307 428.826 395.666C430.27 396.025 431.798 395.824 433.098 395.105L441.692 412.596C441.003 412.881 440.389 413.318 439.895 413.873C439.402 414.428 439.042 415.086 438.842 415.799C438.491 417.179 438.574 418.631 439.079 419.963C436.826 421.202 434.371 422.742 431.555 424.55C423.363 429.993 414.737 434.764 405.762 438.815C393.586 444.296 384.26 444.821 378.583 444.296C377.104 444.162 375.637 443.927 374.191 443.593C373.758 441.952 372.833 440.48 371.538 439.372C370.242 438.264 368.638 437.571 366.937 437.387L357.78 419.907C358.715 419.84 359.931 419.282 360.168 416.927C372.377 419.192 385.994 414.895 393.789 411.725Z" fill="#F5F5F5"/>
<path d="M110.91 314.771C110.91 314.771 101.832 319.236 89.949 326.19C75.4644 334.707 45.6503 351.472 26.5928 338.234L9.14587 304.29C9.14587 304.29 20.3416 309.38 37.3831 307.181C52.5773 305.228 64.753 297.291 70.2269 293.63C72.4796 292.157 75.3518 290.148 77.6495 288.797C81.479 286.565 86.0632 283.216 92.7649 279.957L110.91 314.771Z" fill="#EBEBEB"/>
<path d="M48.4323 323.076C47.1708 315.921 52.3069 309.045 59.9097 307.728C67.5124 306.411 74.6984 311.133 75.9712 318.287C77.2439 325.442 72.0853 332.318 64.5051 333.635C56.9249 334.952 49.7163 330.231 48.4323 323.076Z" fill="#F5F5F5"/>
<path d="M57.6683 315.341L56.542 313.61L57.9273 312.729L59.0537 314.414C60.3347 313.665 61.8174 313.326 63.3 313.443L63.7505 315.809C62.5883 315.694 61.4169 315.907 60.3715 316.423L62.0047 319.013C63.8181 318.444 65.9018 317.897 67.3322 320.129C68.391 321.759 68.2333 323.846 66.2059 325.52L67.3322 327.228L65.9468 328.11L64.8205 326.425C63.7895 326.999 62.6243 327.296 61.4415 327.284L60.9121 324.951C61.8212 324.957 62.7206 324.767 63.5477 324.393L61.847 321.781C60.0449 322.362 57.9949 322.897 56.5758 320.665C55.5395 319.08 55.6859 317.015 57.6683 315.341ZM58.682 319.069C59.0424 319.604 59.6281 319.649 60.3715 319.493L58.9974 317.372C58.7456 317.569 58.5748 317.849 58.5167 318.161C58.4587 318.474 58.5174 318.796 58.682 319.069ZM63.4802 321.301L64.8994 323.534C65.1615 323.321 65.3352 323.02 65.3872 322.688C65.4392 322.357 65.3657 322.018 65.1809 321.736C64.8318 321.111 64.201 321.089 63.4802 321.245V321.301Z" fill="#EBEBEB"/>
<path d="M28.4738 338.412L28.7103 338.546C29.2735 338.881 42.8683 346.55 67.107 335.622C76.1623 331.537 84.8675 326.728 93.1366 321.245C98.3853 317.896 102.147 315.43 106.337 314.336L107.464 314.046L91.74 282.088L90.8502 282.714C90.5911 282.892 65.0121 300.506 53.6136 305.138C44.6029 308.811 27.4488 314.068 14.541 308.208L12.0631 307.092L28.4738 338.412ZM54.3232 306.857C62.5567 303.509 77.5256 293.876 85.8605 288.306C86.6662 289.549 87.9198 290.441 89.3659 290.799C90.8121 291.158 92.3418 290.957 93.6435 290.237L102.226 307.728C101.537 308.01 100.922 308.446 100.43 309.002C99.9381 309.557 99.5814 310.217 99.3878 310.931C99.0284 312.309 99.1071 313.763 99.613 315.095C97.3604 316.323 94.9162 317.863 92.0891 319.682C83.9049 325.128 75.2818 329.895 66.3073 333.936C54.1317 339.428 44.8056 339.953 39.1176 339.428C37.639 339.293 36.1714 339.058 34.7249 338.725C34.2944 337.082 33.3702 335.608 32.0747 334.497C30.7793 333.387 29.1739 332.693 27.4714 332.508L18.3143 315.028C19.2491 314.961 20.4656 314.403 20.7134 312.048C32.9003 314.325 46.5177 310.016 54.3232 306.857Z" fill="#F5F5F5"/>
<path d="M391.209 320.341C391.209 320.341 408.611 300.126 442.818 313.141C444.114 313.645 445.457 314.019 446.828 314.257C450.726 315.021 454.759 314.736 458.508 313.431C465.164 310.775 474.648 306.902 474.648 306.902L503.933 324.091C503.933 324.091 491.645 333.021 479.75 333.713C467.856 334.405 453.845 324.783 440.149 328.132C433.213 329.621 426.915 333.21 422.127 338.401L391.209 320.341Z" fill="#EBEBEB"/>
<path d="M461.797 324.795C460.479 325.911 452.55 324.884 444.08 322.395C435.61 319.906 429.798 316.937 431.115 315.765C432.433 314.593 440.374 315.664 448.844 318.165C457.314 320.665 463.16 323.623 461.797 324.795Z" fill="#F5F5F5"/>
<path d="M450.027 322.518L450.567 323.087L448.788 322.697L448.258 322.15C446.627 321.782 445.017 321.323 443.437 320.777L443.832 320.375C445.075 320.816 446.342 321.189 447.627 321.491L446.828 320.654C444.721 320.085 442.322 319.415 441.647 318.689C441.128 318.165 442.063 317.997 444.789 318.522L444.26 317.964L446.039 318.354L446.569 318.901C447.932 319.225 449.328 319.605 450.477 320.018L450.173 320.442C449.125 320.096 448.123 319.817 447.199 319.593L448.022 320.442C450.117 321.011 452.527 321.67 453.158 322.373C453.653 322.875 452.786 323.031 450.027 322.518ZM446.118 319.906L445.431 319.192C444.553 319.047 444.305 319.113 444.474 319.281C444.98 319.585 445.537 319.796 446.118 319.906ZM450.342 321.792C449.847 321.491 449.301 321.279 448.731 321.167L449.396 321.859C450.229 321.993 450.533 321.949 450.342 321.792Z" fill="#EBEBEB"/>
<path d="M474.254 308.967L473.939 309.123C468.436 311.805 462.703 313.994 456.807 315.664C452.719 316.691 450.804 316.367 447.312 315.765C446.636 315.653 445.904 315.519 445.06 315.396C443.019 314.975 441.01 314.42 439.045 313.733C434.618 312.316 429.111 310.563 423.603 310.384H423.501C423.344 310.384 408.172 309.101 395.873 318.912L395.129 319.493L421.463 335.287L421.823 334.963C421.97 334.829 436.094 322.183 455.185 326.949C457.438 327.507 459.544 328.065 461.515 328.579C476.991 332.631 484.752 334.662 500.295 325.409L501.252 324.839L474.254 308.967ZM461.864 327.262C459.893 326.737 457.787 326.145 455.523 325.621C442.537 322.384 431.78 326.916 425.867 330.454C424.554 329.651 423.014 329.292 421.477 329.433C419.941 329.574 418.493 330.207 417.352 331.235L401.955 321.993C404.928 319.426 403.194 317.205 402.18 316.289C408.73 312.916 416.06 311.31 423.434 311.635C428.84 311.791 434.303 313.521 438.684 314.916C440.714 315.629 442.791 316.2 444.902 316.624L447.154 316.992C450.702 317.606 452.842 317.975 457.201 316.881C461.601 315.679 465.905 314.153 470.075 312.316C471.202 313.264 474.074 315.05 478.388 312.907L494.1 322.116C492.974 322.674 491.16 324.103 493.965 327.239C482.397 332.653 474.941 330.711 461.797 327.284L461.864 327.262Z" fill="#F5F5F5"/>
<path d="M126.149 176.015C126.149 176.015 125.868 149.438 160.289 136.948C161.603 136.488 162.867 135.897 164.062 135.184C167.508 133.251 170.364 130.432 172.329 127.025C175.595 120.685 180.213 111.599 180.213 111.599L213.699 105.471C213.699 105.471 210.32 120.171 201.85 128.476C193.38 136.78 176.361 138.644 168.274 150.019C164.042 155.662 161.68 162.467 161.516 169.496L126.149 176.015Z" fill="#EBEBEB"/>
<path d="M182.376 133.376C182.162 135.117 175.46 139.47 167.418 143.109C159.376 146.748 153.046 148.289 153.26 146.547C153.474 144.806 160.176 140.442 168.218 136.814C176.26 133.186 182.59 131.635 182.376 133.376Z" fill="#F5F5F5"/>
<path d="M171.957 139.359L172.746 139.437L171.146 140.297L170.38 140.23C168.916 141.008 167.412 141.712 165.875 142.339V141.781C167.101 141.297 168.3 140.749 169.468 140.14L168.342 140.029C166.371 140.977 164.129 142.027 163.138 141.926C162.395 141.859 162.992 141.134 165.391 139.75L164.614 139.683L166.213 138.812L166.968 138.879C168.218 138.232 169.524 137.618 170.651 137.16V137.673C169.626 138.098 168.68 138.544 167.835 138.968L169.018 139.08C170.977 138.142 173.185 137.104 174.176 137.194C174.931 137.272 174.345 137.986 171.957 139.359ZM167.283 139.928L166.292 139.839C165.526 140.308 165.391 140.509 165.627 140.531C166.21 140.426 166.77 140.222 167.283 139.928ZM171.71 138.6C171.136 138.7 170.584 138.896 170.076 139.18L171.045 139.27C171.766 138.834 171.935 138.622 171.71 138.6Z" fill="#EBEBEB"/>
<path d="M181.261 113.385L181.126 113.708C178.738 119.297 175.855 124.665 172.509 129.748C170.11 133.186 168.443 134.213 165.413 136.01L163.487 137.126C161.673 138.137 159.791 139.024 157.856 139.783C153.575 141.602 148.27 143.868 144.002 147.329L143.9 147.407C143.776 147.496 131.511 156.415 128.717 171.818L128.548 172.745L158.813 167.566L158.869 167.074C158.869 166.885 161.122 148.155 178.704 139.314C180.788 138.265 182.736 137.316 184.561 136.423C198.955 129.402 206.119 125.909 211.751 108.786L212.1 107.748L181.261 113.385ZM184.02 135.251C182.196 136.144 180.236 137.104 178.163 138.153C166.224 144.17 161.111 154.584 159.016 161.103C157.494 161.35 156.094 162.081 155.029 163.187C153.964 164.293 153.292 165.712 153.114 167.231L135.374 170.289C135.915 166.427 133.121 165.88 131.77 165.824C134.465 159.016 138.925 153.033 144.7 148.478C148.879 145.074 154.139 142.819 158.374 141.022C160.377 140.238 162.323 139.317 164.197 138.265C164.895 137.83 165.526 137.45 166.112 137.149C169.186 135.296 171.045 134.18 173.602 130.519C176.153 126.738 178.412 122.771 180.36 118.653C181.813 118.653 185.192 118.106 187.016 113.686L204.993 110.382C204.474 111.498 204.092 113.731 208.281 114.333C203.078 125.909 196.173 129.313 184.02 135.251Z" fill="#F5F5F5"/>
<path d="M375.508 60.4429C375.508 60.4429 391.964 39.4246 426.723 50.81C428.041 51.251 429.399 51.565 430.777 51.7476C434.706 52.3315 438.721 51.8573 442.401 50.3747C448.923 47.4055 458.17 43.0858 458.17 43.0858L488.277 58.869C488.277 58.869 476.428 68.3122 464.624 69.6293C452.82 70.9464 438.268 61.9386 424.808 65.8788C417.943 67.7101 411.823 71.6107 407.293 77.0409L375.508 60.4429Z" fill="#EBEBEB"/>
<path d="M446.287 61.5366C445.026 62.7645 437.04 62.0724 428.457 59.9851C419.875 57.8978 413.939 55.2077 415.2 53.9799C416.462 52.752 424.436 53.4441 433.019 55.5314C441.602 57.6187 447.549 60.3088 446.287 61.5366Z" fill="#F5F5F5"/>
<path d="M434.37 59.8286L434.934 60.3643L433.143 60.0518L432.591 59.5272C430.941 59.2496 429.309 58.8769 427.703 58.411L428.074 57.998C429.201 58.3217 430.597 58.6677 431.926 58.9244L431.082 58.1207C428.953 57.6519 426.576 57.105 425.81 56.4129C425.27 55.9107 426.193 55.6986 428.953 56.1004L428.39 55.5646L430.18 55.866L430.732 56.3906C432.118 56.6474 433.526 56.9599 434.697 57.2948L434.416 57.7412C433.357 57.4399 432.332 57.2055 431.408 57.0269L432.264 57.8417C434.393 58.2993 436.77 58.8463 437.479 59.5272C438.009 60.0518 437.096 60.2192 434.37 59.8286ZM430.338 57.4064L429.617 56.7255C428.728 56.625 428.491 56.7255 428.66 56.8594C429.184 57.1338 429.752 57.3187 430.338 57.4064ZM434.652 59.0807C434.139 58.8085 433.583 58.6236 433.008 58.5338L433.706 59.1923C434.551 59.2928 434.765 59.237 434.652 59.0807Z" fill="#EBEBEB"/>
<path d="M457.911 45.173L457.607 45.3404C452.236 48.2551 446.617 50.6942 440.813 52.6293C436.77 53.8459 434.844 53.6115 431.329 53.1762L429.077 52.9083C427.016 52.5883 424.981 52.1296 422.983 51.5354C418.478 50.3299 412.903 48.8453 407.395 48.9346H407.26C407.102 48.9346 391.896 48.3765 380.07 58.7572L379.372 59.3712L406.404 73.8819L406.753 73.5359C406.888 73.4019 420.393 60.1414 439.687 63.9476C441.939 64.4053 444.102 64.8518 446.096 65.2759C461.74 68.6246 469.591 70.2542 484.673 60.2753L485.596 59.6614L457.911 45.173ZM446.4 64.0258C444.406 63.6016 442.277 63.144 439.991 62.6863C426.88 60.0521 416.327 65.1085 410.594 68.9817C409.248 68.2271 407.691 67.9278 406.158 68.1292C404.626 68.3307 403.201 69.0218 402.101 70.0979L386.332 61.5924C389.171 58.8912 387.324 56.7592 386.276 55.8886C392.656 52.2094 399.9 50.2578 407.282 50.2294C412.689 50.1289 418.219 51.5912 422.668 52.7855C424.732 53.3993 426.835 53.8729 428.964 54.2031L431.217 54.4598C434.554 55.115 438.006 54.9114 441.241 53.8683C445.591 52.4704 449.827 50.7465 453.912 48.7114C455.039 49.5932 458.046 51.2452 462.247 48.9123L478.376 57.362C477.25 57.9647 475.549 59.4828 478.489 62.4854C467.181 68.4236 459.657 66.8275 446.4 64.0258Z" fill="#F5F5F5"/>
<path d="M507.751 500.71C507.751 500.866 401.436 501 270.331 501C139.226 501 32.8889 500.866 32.8889 500.71C32.8889 500.554 139.181 500.42 270.331 500.42C401.482 500.42 507.751 500.554 507.751 500.71Z" fill="#263238"/>
<path d="M485.732 262.566L486.441 263.738C487.248 265.058 488.421 266.12 489.82 266.797L491.059 267.399L489.876 268.102C488.545 268.902 487.473 270.064 486.79 271.451L486.182 272.679L485.472 271.563C484.666 270.243 483.493 269.181 482.093 268.504L480.854 267.902L482.037 267.198C483.369 266.399 484.44 265.236 485.123 263.85L485.732 262.566Z" fill="#438EEB"/>
<path d="M142.436 480.741L143.123 481.857C143.897 483.132 145.022 484.163 146.367 484.826L147.572 485.406L146.446 486.087C145.161 486.859 144.126 487.978 143.461 489.313L142.864 490.496L142.177 489.38C141.402 488.108 140.276 487.082 138.933 486.422L137.728 485.83L138.854 485.15C140.138 484.378 141.176 483.264 141.85 481.935L142.436 480.741Z" fill="#438EEB"/>
<path d="M73.3582 109.031L74.5971 111.074C75.9889 113.365 78.0135 115.212 80.4315 116.398L82.5828 117.514L80.5329 118.742C78.2167 120.116 76.3508 122.124 75.1603 124.524L74.034 126.656L72.795 124.614C71.4332 122.3 69.427 120.424 67.0169 119.211L64.8656 118.095L66.9268 116.867C69.235 115.489 71.0987 113.487 72.2994 111.096L73.3582 109.031Z" fill="#438EEB"/>
<path d="M322.131 37.5828L323.37 39.6255C324.759 41.9185 326.785 43.7668 329.205 44.9498L331.356 46.066L329.295 47.2939C326.981 48.6701 325.116 50.6774 323.922 53.0758L322.864 55.2078L321.625 53.1651C320.24 50.8522 318.215 48.9811 315.79 47.7738L313.628 46.6576L315.689 45.4298C318.003 44.0535 319.868 42.0463 321.061 39.6478L322.131 37.5828Z" fill="#438EEB"/>
<path d="M510.229 216.801L510.713 217.594C511.249 218.491 512.03 219.218 512.966 219.692L513.811 220.105L513 220.596C512.094 221.126 511.36 221.9 510.882 222.829L510.466 223.677L509.981 222.873C509.446 221.977 508.665 221.249 507.729 220.775L506.884 220.362L507.695 219.882C508.597 219.348 509.33 218.575 509.812 217.65L510.229 216.801Z" fill="#438EEB"/>
<path d="M95.3892 212.158L95.8961 212.984C96.455 213.919 97.2771 214.671 98.2614 215.15L99.1399 215.574L98.2951 216.076C97.3595 216.636 96.6052 217.449 96.1213 218.42L95.6821 219.291L95.1865 218.454C94.6218 217.526 93.801 216.779 92.8212 216.299L91.9426 215.875L92.7761 215.373C93.7192 214.819 94.4786 214.004 94.9612 213.029L95.3892 212.158Z" fill="#438EEB"/>
<path d="M181.238 67.0396L181.745 67.8656C182.313 68.7934 183.132 69.5439 184.11 70.0311L184.978 70.4552L184.144 70.9575C183.209 71.5171 182.454 72.3305 181.97 73.3016L181.531 74.161L181.036 73.335C180.462 72.4194 179.638 71.684 178.659 71.2142L177.792 70.7789L178.625 70.2878C179.571 69.703 180.329 68.8627 180.81 67.8656L181.238 67.0396Z" fill="#438EEB"/>
<path d="M376.635 324.962C376.635 326.156 383.9 357.935 383.9 357.935C383.9 357.935 399.026 347.744 404.77 342.944C410.515 338.145 438.346 312.673 438.346 312.673L455.039 327.942C455.039 327.942 399.848 402.338 380.307 406.814C370.271 409.102 359.143 401.59 356.98 396.277C352.103 384.423 344.658 333.903 344.658 333.903L355.482 329.159L376.635 324.962Z" fill="#BA7E6D"/>
<path d="M384.542 358.002C383.37 358.19 382.22 358.489 381.106 358.895C378.5 360.067 376.311 361.988 374.821 364.409C373.375 366.871 372.279 369.519 371.566 372.278C371.296 373.441 370.943 374.582 370.507 375.694C370.606 374.501 370.821 373.319 371.149 372.167C371.754 369.322 372.819 366.593 374.303 364.085C375.853 361.563 378.184 359.605 380.949 358.504C381.787 358.193 382.668 358.009 383.562 357.957C383.888 357.913 384.22 357.928 384.542 358.002Z" fill="#875149"/>
<path d="M433.931 316.713C433.931 316.713 449.137 299.836 455.275 300.316C461.414 300.796 470.233 302.113 472.688 301.7C475.789 301.486 478.902 301.486 482.003 301.7C482.003 301.7 497.941 293.15 500.88 293.82C500.88 293.82 503.617 293.675 504.564 295.215C504.564 295.215 510.623 291.409 514.993 293.775L499.112 306.891L503.955 306.288C503.955 306.288 518.226 298.809 522.743 303.955L511.964 309.693C511.964 309.693 520.918 309.559 522.269 313.164L502.209 316.356C502.209 316.356 464.094 319.515 462.078 320.386C460.062 321.256 451.998 331.548 451.998 331.548L433.931 316.713Z" fill="#BA7E6D"/>
<path d="M504.778 295.293C504.499 295.64 504.177 295.952 503.82 296.22C503.178 296.778 502.232 297.57 501.016 298.452C497.857 300.878 494.543 303.096 491.093 305.094C489.167 306.21 487.342 307.226 485.562 308.04C483.975 308.879 482.136 309.125 480.381 308.733L480.663 308.576C480.447 309.239 480.078 309.842 479.586 310.338C479.093 310.835 478.49 311.21 477.824 311.434C477.461 311.556 477.082 311.624 476.698 311.635C476.439 311.635 476.315 311.635 476.315 311.635C476.788 311.533 477.255 311.402 477.712 311.244C478.305 310.996 478.835 310.621 479.266 310.146C479.696 309.672 480.015 309.109 480.201 308.498L480.269 308.275L480.483 308.342C482.131 308.653 483.837 308.381 485.303 307.572C487.015 306.757 488.863 305.708 490.755 304.614C494.776 302.292 498.256 299.926 500.734 298.151L503.651 296.03C503.997 295.743 504.375 295.495 504.778 295.293Z" fill="#875149"/>
<path d="M499.112 307.192C498.509 307.863 497.787 308.419 496.983 308.833C495.119 309.959 493.067 310.745 490.924 311.155C489.662 311.401 488.446 311.445 487.398 311.635C486.473 311.813 485.581 312.13 484.751 312.573C483.981 313.069 483.079 313.325 482.161 313.309C482.981 312.99 483.778 312.617 484.549 312.193C485.395 311.671 486.324 311.294 487.297 311.077C488.423 310.842 489.55 310.787 490.8 310.541C493.735 309.876 496.542 308.745 499.112 307.192Z" fill="#875149"/>
<path d="M512.797 308.565C512.164 309.22 511.435 309.777 510.634 310.217C506.878 312.537 502.568 313.827 498.143 313.957C497.23 314.031 496.311 313.967 495.418 313.767C498.462 313.584 501.48 313.102 504.428 312.327C509.328 310.898 512.684 308.387 512.797 308.565Z" fill="#875149"/>
<path d="M205.916 415.007C189.461 440.39 170.358 472.146 158.723 500.754H356.958L333.305 415.007H205.916Z" fill="#263238"/>
<path d="M83.1685 322.15C83.1685 322.15 97.1688 342.498 101.922 347.823C106.675 353.147 126.701 381.61 137.12 393.007C147.538 404.403 158.903 410.677 166.258 410.677C173.805 410.677 181.441 408.12 187.433 394.179C196.083 374.087 203.371 314.928 203.371 314.928L169.581 302.65L157.304 363.907C154.004 360.648 101.933 312.562 101.933 312.562L89.994 317.473L83.1685 322.15Z" fill="#BA7E6D"/>
<path d="M39.737 297.079C39.737 297.079 40.5367 295.662 44.9857 296.298C49.4347 296.934 57.2402 301.5 58.986 301.5C60.7319 301.5 80.2963 302.125 84.1145 303.073C87.9328 304.022 93.8686 304.592 97.3602 308.208L102.992 313.186L84.1033 323.478C83.3973 322.545 82.4875 321.782 81.4421 321.247C80.3966 320.711 79.2425 320.417 78.0661 320.386C73.7748 320.129 54.064 319.147 54.064 319.147L38.7909 315.664L19.3842 306.366C19.8252 305.319 20.625 304.459 21.6428 303.938C22.6606 303.418 23.8311 303.27 24.9482 303.52C28.9242 304.469 36.4031 307.148 36.4031 307.148L42.9245 309.123L25.7479 300.997C26.8599 299.871 28.2718 299.081 29.8192 298.72C31.3666 298.358 32.9858 298.44 34.4883 298.955C39.8947 300.685 49.1306 304.781 49.1306 304.781L50.4034 304.312L39.737 297.079Z" fill="#BA7E6D"/>
<path d="M61.2049 308.275C59.2198 308.427 57.2269 308.106 55.393 307.337C53.491 306.744 51.7605 305.706 50.347 304.312C50.4484 304.167 52.5997 305.719 55.5845 306.802C58.5693 307.884 61.2162 308.107 61.2049 308.275Z" fill="#875149"/>
<path d="M57.6119 313.153C56.7834 313.353 55.9272 313.417 55.0777 313.342C50.9457 313.242 46.9224 312.009 43.4539 309.782C42.7114 309.362 42.0389 308.831 41.4603 308.208C43.8995 309.678 46.4896 310.886 49.187 311.813C51.9391 312.556 54.7635 313.005 57.6119 313.153Z" fill="#875149"/>
<path d="M23.5628 308.409C22.8901 308.727 22.3266 309.234 21.9422 309.867C21.5578 310.5 21.3693 311.231 21.4002 311.969C27.8508 314.06 34.4777 315.573 41.2012 316.49" fill="#875149"/>
<path d="M169.22 389.747C169.096 389.747 169.333 388.051 169.153 385.282C169.047 383.696 168.81 382.12 168.443 380.572C167.975 378.684 167.334 376.842 166.528 375.069C165.697 373.307 164.702 371.625 163.555 370.046C162.609 368.761 161.558 367.555 160.412 366.441C158.441 364.543 157.033 363.617 157.033 363.528C157.408 363.682 157.76 363.884 158.081 364.13C158.478 364.376 158.854 364.652 159.207 364.956C159.635 365.302 160.153 365.671 160.649 366.151C161.853 367.243 162.954 368.442 163.938 369.734C166.356 372.913 168.054 376.572 168.916 380.46C169.263 382.043 169.463 383.653 169.513 385.271C169.547 385.888 169.547 386.507 169.513 387.124C169.507 387.592 169.466 388.058 169.389 388.519C169.384 388.934 169.328 389.346 169.22 389.747Z" fill="#875149"/>
<path d="M201.524 243.323C196.849 246.18 186.048 254.853 174.875 278.293C159.996 309.469 156.132 328.925 156.132 328.925L195.678 342.922L207.662 240.387C207.662 240.387 203.067 242.385 201.524 243.323Z" fill="#455A64"/>
<path d="M192.941 275.983C192.941 275.983 193.876 309.067 193.876 318.053C193.876 327.038 197.931 394.614 197.931 394.614C197.931 394.614 197.931 416.849 211.863 416.503C225.796 416.157 249.618 418.835 259.045 418.835C265.995 418.835 305.495 419.293 326.288 417.451C336.143 416.581 339.939 411.815 342.98 404.057C343.385 403.008 343.137 403.622 343.385 403.008C349.344 388.497 344.737 326.402 344.737 326.402L337.359 270.268L320.555 237.15L225.368 236.849C194.856 238.925 194.856 251.337 192.941 275.983Z" fill="#455A64"/>
<path d="M360.348 264.318C344.669 238.534 320.554 237.195 320.554 237.195L334.791 353.47L346.055 350.367C346.888 350.088 388.292 333.724 388.292 333.724C388.292 333.724 369.989 280.146 360.348 264.318Z" fill="#455A64"/>
<path d="M332.415 272.623C332.415 272.623 332.471 272.69 332.561 272.847C332.651 273.003 332.775 273.26 332.91 273.539C333.203 274.141 333.676 275.034 334.206 276.217C335.332 278.562 336.729 282.033 338.227 286.408C342.012 297.861 344.453 309.708 345.503 321.714C346.548 333.702 346.924 345.739 346.629 357.768C346.55 362.378 346.438 366.106 346.348 368.684C346.348 369.934 346.257 370.917 346.235 371.653C346.235 371.966 346.235 372.223 346.235 372.435C346.246 372.52 346.246 372.606 346.235 372.692C346.225 372.602 346.225 372.513 346.235 372.424V371.653C346.235 370.928 346.235 369.934 346.235 368.684C346.235 366.05 346.235 362.333 346.325 357.757C346.509 345.748 346.084 333.737 345.052 321.77C344.001 309.802 341.625 297.985 337.968 286.531C336.526 282.156 335.152 278.718 334.127 276.307C333.642 275.112 333.203 274.208 333 273.583L332.696 272.869C332.594 272.797 332.5 272.714 332.415 272.623Z" fill="#263238"/>
<g opacity="0.3">
<path d="M263.179 349.419C268.187 344.447 274.296 340.702 281.02 338.48C289.918 335.634 316.274 330.187 323.269 327.642C330.981 324.822 338.008 320.426 343.892 314.738L374.833 339.92C369.459 344.695 363.557 348.852 357.239 352.31C347.282 357.612 322.74 357.634 309.528 365.492C300.968 370.582 289.884 385.484 289.884 385.484L263.179 349.419Z" fill="black"/>
</g>
<g opacity="0.3">
<path d="M305.766 485.686C298.699 485.124 291.862 482.938 285.796 479.301C277.833 474.434 256.579 458.093 250.091 454.443C242.809 450.4 234.947 447.482 226.776 445.792L226.111 407.562C233.261 408.521 240.278 410.281 247.027 412.808C257.559 416.894 273.474 435.4 288.082 440.289C297.532 443.448 316.173 442.153 316.173 442.153L305.766 485.686Z" fill="black"/>
</g>
<g opacity="0.3">
<path d="M167.429 293.965C175.314 296.599 185.293 292.123 190.35 285.571C195.408 279.019 200.352 270.625 201.557 262.466C195.779 262.466 187.929 262.89 182.151 262.879L167.429 293.965Z" fill="black"/>
</g>
<path d="M194.856 302.962C194.907 303.264 194.93 303.571 194.923 303.877L195.025 306.512C195.092 308.856 195.182 312.16 195.295 316.211C195.52 324.438 195.824 335.723 196.151 348.191C196.478 360.659 196.917 371.977 197.277 380.159C197.48 384.211 197.638 387.504 197.75 389.848C197.75 390.964 197.84 391.823 197.874 392.482C197.892 392.787 197.892 393.092 197.874 393.397C197.802 393.097 197.761 392.79 197.75 392.482C197.683 391.835 197.604 390.953 197.514 389.859C197.3 387.627 197.097 384.278 196.849 380.181C196.376 372 195.914 360.692 195.543 348.202C195.171 335.712 194.968 324.404 194.856 316.211C194.856 312.16 194.799 308.867 194.777 306.512C194.777 305.395 194.777 304.536 194.777 303.877C194.776 303.57 194.802 303.264 194.856 302.962Z" fill="#263238"/>
<g opacity="0.3">
<path d="M195.892 372.144C185.597 349.15 187.129 323.477 194.856 299.479C195.982 322.864 196.5 348.737 195.926 372.144" fill="black"/>
</g>
<path d="M318.752 126.679C317.447 122.511 315.318 118.643 312.492 115.297C309.665 111.952 306.196 109.196 302.285 107.19C293.692 102.848 283.442 102.479 274.037 104.622C264.632 106.765 255.948 111.264 247.737 116.287C243.13 119.1 238.546 122.18 235.347 126.478C229.423 134.291 223.712 147.072 223.397 156.861C223.149 164.775 226.776 184.465 230.347 191.542C231.619 194.064 234.604 196.286 238.231 198.161C242.076 205.172 247.153 211.447 253.222 216.69C254.912 211.332 256.605 205.974 258.302 200.616L318.752 126.679Z" fill="#263238"/>
<path d="M313.819 117.068L298.05 114.724C307.219 134.749 310.89 181.038 316.421 202.335C321.974 193.841 334.69 168.101 333.676 158.033C332.663 147.965 332.437 114.813 313.819 117.068Z" fill="#263238"/>
<path d="M240.303 152.909C240.81 141.044 248.266 131.11 259.789 127.851L295.708 117.682C311.296 115.561 322.278 134.336 323.753 149.851C325.386 167.096 326.614 185.313 324.947 198.272C321.568 224.325 301.655 228.242 301.655 228.242C301.655 228.242 302.004 240.521 302.206 248.144L280.896 292.224L247.793 239.405L240.258 153.233C240.191 152.787 240.281 153.501 240.303 152.909Z" fill="#BA7E6D"/>
<path d="M313.74 168.894C313.772 169.76 313.463 170.605 312.879 171.25C312.295 171.895 311.481 172.291 310.609 172.354C310.183 172.4 309.752 172.362 309.341 172.241C308.93 172.12 308.548 171.919 308.216 171.65C307.885 171.38 307.611 171.048 307.411 170.673C307.21 170.297 307.088 169.886 307.05 169.463C307.018 168.597 307.327 167.752 307.911 167.107C308.495 166.462 309.309 166.066 310.181 166.003C310.607 165.957 311.038 165.995 311.449 166.116C311.86 166.237 312.242 166.438 312.574 166.707C312.905 166.976 313.179 167.308 313.379 167.684C313.58 168.059 313.702 168.471 313.74 168.894Z" fill="#263238"/>
<path d="M320.115 160.12C319.721 160.567 317.119 158.781 313.504 158.904C309.888 159.026 307.309 160.89 306.903 160.466C306.701 160.277 307.106 159.484 308.232 158.613C309.761 157.492 311.602 156.868 313.504 156.827C315.379 156.761 317.227 157.293 318.775 158.346C319.879 159.149 320.318 159.919 320.115 160.12Z" fill="#263238"/>
<path d="M282.563 168.905C282.592 169.769 282.282 170.611 281.698 171.254C281.114 171.897 280.302 172.291 279.432 172.354C279.006 172.4 278.575 172.362 278.164 172.241C277.753 172.12 277.371 171.919 277.04 171.649C276.708 171.38 276.434 171.048 276.234 170.673C276.034 170.297 275.911 169.886 275.873 169.463C275.841 168.597 276.15 167.752 276.734 167.107C277.318 166.461 278.132 166.066 279.004 166.003C279.431 165.956 279.863 165.995 280.274 166.117C280.686 166.239 281.069 166.441 281.4 166.711C281.732 166.981 282.006 167.315 282.205 167.691C282.405 168.068 282.527 168.481 282.563 168.905Z" fill="#263238"/>
<path d="M285.83 161.092C285.424 161.538 282.822 159.752 279.218 159.875C275.614 159.998 273.012 161.862 272.607 161.438C272.415 161.248 272.809 160.455 273.936 159.585C275.465 158.465 277.306 157.841 279.207 157.799C281.084 157.734 282.934 158.262 284.489 159.306C285.627 160.12 286.021 160.891 285.83 161.092Z" fill="#263238"/>
<path d="M297.926 188.874C297.926 188.673 300.179 188.226 303.761 187.646C304.673 187.523 305.54 187.322 305.676 186.697C305.73 185.75 305.486 184.81 304.977 184.007L302.038 177.131C297.949 167.342 294.953 159.272 295.347 159.116C295.741 158.959 299.391 166.762 303.479 176.551L306.318 183.471C306.926 184.558 307.133 185.821 306.903 187.043C306.779 187.37 306.582 187.664 306.327 187.904C306.071 188.144 305.764 188.323 305.428 188.427C304.924 188.584 304.401 188.67 303.873 188.684C300.213 188.997 297.949 189.086 297.926 188.874Z" fill="#263238"/>
<path d="M266.682 219.994C266.682 219.994 275.693 237.563 301.824 234.337L301.655 228.243C289.451 228.755 277.344 225.899 266.682 219.994Z" fill="#875149"/>
<path d="M284.32 148.233C283.994 149.215 280.378 148.858 276.154 149.494C271.931 150.13 268.552 151.381 267.955 150.521C267.696 150.119 268.259 149.182 269.61 148.199C271.419 146.991 273.481 146.205 275.641 145.901C277.801 145.598 280.002 145.784 282.079 146.447C283.656 146.994 284.455 147.731 284.32 148.233Z" fill="#263238"/>
<path d="M318.629 149.215C318.02 150.041 315.497 149.282 312.512 149.327C309.528 149.371 307.005 150.041 306.397 149.215C306.126 148.802 306.498 147.976 307.579 147.172C309.032 146.189 310.754 145.671 312.512 145.688C314.27 145.669 315.99 146.192 317.435 147.183C318.516 147.976 318.899 148.802 318.629 149.215Z" fill="#263238"/>
<path d="M315.959 126.378C314.247 122.515 309.866 120.294 305.619 120.205C301.373 120.116 297.262 121.823 293.646 124.034C278.317 133.399 270.928 155.187 255.802 164.853C252.085 167.231 247.095 165.289 243.952 168.392C240.81 171.495 238.873 176.361 240.765 180.324C238.474 177.669 236.578 174.703 235.133 171.517C234.432 169.918 234.082 168.189 234.107 166.445C234.132 164.701 234.532 162.983 235.28 161.404C236.541 159.083 238.85 157.263 239.413 154.707C239.92 152.475 238.952 150.108 238.985 147.775C239.191 145.398 239.963 143.103 241.238 141.078C246.96 130.329 254.991 120.54 265.499 114.289C272.372 110.094 280.27 107.837 288.341 107.759C296.427 107.719 304.261 110.546 310.429 115.729C313.965 118.821 317.682 122.002 316.06 126.378" fill="#263238"/>
<path d="M244.414 171.595C244.122 170.858 230.335 166.36 230.56 180.748C230.786 194.723 244.932 191.564 244.944 191.162C244.955 190.76 244.414 171.595 244.414 171.595Z" fill="#BA7E6D"/>
<path d="M240.506 185.949C240.45 185.949 240.269 186.128 239.853 186.329C239.272 186.584 238.615 186.608 238.017 186.396C236.519 185.882 235.223 183.561 235.1 181.049C235.045 179.854 235.257 178.661 235.719 177.555C235.843 177.116 236.073 176.712 236.389 176.38C236.705 176.048 237.097 175.796 237.532 175.647C237.813 175.569 238.112 175.59 238.379 175.706C238.646 175.822 238.864 176.026 238.997 176.283C239.188 176.674 239.109 176.953 239.188 176.975C239.267 176.997 239.481 176.741 239.357 176.16C239.271 175.817 239.068 175.513 238.783 175.301C238.391 175.015 237.901 174.894 237.42 174.966C236.842 175.093 236.306 175.365 235.864 175.756C235.422 176.146 235.089 176.643 234.897 177.198C234.318 178.418 234.052 179.759 234.12 181.105C234.266 183.918 235.775 186.53 237.825 187.066C238.207 187.175 238.61 187.195 239.001 187.123C239.392 187.051 239.761 186.89 240.078 186.653C240.483 186.295 240.562 185.983 240.506 185.949Z" fill="#875149"/>
<path d="M238.614 164.574C238.909 164.441 239.189 164.277 239.447 164.083C239.976 163.725 240.799 163.245 241.767 162.531C244.485 160.437 246.97 158.061 249.179 155.443C252.416 151.524 255.425 147.425 258.189 143.165C261.518 137.962 265.286 133.048 269.453 128.476C271.666 126.189 274.125 124.149 276.785 122.392C279.281 120.782 281.967 119.481 284.782 118.519C289.556 116.853 294.604 116.096 299.661 116.287C303.073 116.395 306.456 116.954 309.719 117.95C310.845 118.262 311.758 118.631 312.355 118.831C312.658 118.957 312.97 119.057 313.29 119.133C313.012 118.965 312.718 118.826 312.411 118.72C311.563 118.329 310.69 117.993 309.798 117.715C306.526 116.617 303.113 115.986 299.661 115.84C294.538 115.578 289.413 116.302 284.568 117.972C281.7 118.933 278.964 120.245 276.425 121.879C273.715 123.659 271.211 125.729 268.957 128.051C264.781 132.652 261.013 137.6 257.694 142.841C254.972 147.084 252.028 151.182 248.875 155.119C246.715 157.74 244.3 160.144 241.666 162.297C240.72 163.045 239.931 163.558 239.413 163.938C239.13 164.128 238.862 164.341 238.614 164.574Z" fill="#455A64"/>
<path d="M238.974 188.472C238.278 188.364 237.566 188.523 236.984 188.917C236.402 189.31 235.993 189.909 235.84 190.591C235.688 191.273 235.803 191.987 236.163 192.588C236.523 193.188 237.101 193.63 237.778 193.824C238.455 194.017 239.182 193.947 239.809 193.629C240.436 193.31 240.917 192.767 241.155 192.109C241.392 191.451 241.367 190.728 241.085 190.088C240.804 189.448 240.286 188.938 239.639 188.662" fill="white"/>
<path d="M239.639 188.662C240.261 189.122 240.725 189.761 240.968 190.492C241.082 190.876 241.097 191.281 241.01 191.672C240.923 192.062 240.738 192.424 240.472 192.725C240.171 193.104 239.762 193.386 239.298 193.535C238.834 193.684 238.336 193.692 237.867 193.559C237.399 193.426 236.98 193.158 236.666 192.789C236.352 192.42 236.155 191.966 236.102 191.486C236.042 191.095 236.08 190.696 236.214 190.324C236.348 189.952 236.572 189.619 236.868 189.354C237.462 188.856 238.199 188.555 238.974 188.494C238.974 188.494 238.76 188.349 238.31 188.36C237.91 188.378 237.518 188.476 237.159 188.649C236.799 188.822 236.478 189.066 236.217 189.366C235.955 189.666 235.758 190.015 235.638 190.393C235.517 190.771 235.476 191.169 235.516 191.564C235.572 192.164 235.809 192.733 236.196 193.197C236.584 193.662 237.104 193.999 237.688 194.165C238.272 194.332 238.894 194.32 239.471 194.13C240.048 193.941 240.554 193.583 240.923 193.104C241.235 192.733 241.444 192.287 241.527 191.811C241.61 191.335 241.565 190.845 241.396 190.392C241.197 189.79 240.8 189.271 240.269 188.918C239.909 188.65 239.65 188.628 239.639 188.662Z" fill="#263238"/>
<path d="M242.274 168.425C242.162 172.253 242.094 176.238 243.975 179.587C245.856 182.936 250.406 185.101 253.695 183.114C256.376 181.496 257.074 178.002 257.468 174.91C258.595 165.98 258.91 156.961 260.059 148.043L242.274 168.425Z" fill="#263238"/>
<path d="M312.298 119.825C312.298 119.914 311.048 119.635 308.796 119.624C305.602 119.657 302.446 120.321 299.515 121.577C297.487 122.417 295.557 123.473 293.759 124.725C291.7 126.187 289.729 127.767 287.857 129.458C283.536 133.3 279.698 137.643 276.425 142.395C274.701 144.94 273.192 147.54 271.536 149.963C269.981 152.324 268.147 154.494 266.074 156.426C262.508 159.598 258.589 162.358 254.394 164.652C250.834 166.639 247.861 168.001 245.811 169.028L243.434 170.144C243.163 170.287 242.876 170.399 242.578 170.479C242.816 170.286 243.077 170.125 243.356 169.999L245.676 168.782C247.681 167.733 250.609 166.248 254.112 164.205C258.228 161.868 262.073 159.091 265.578 155.923C267.594 154.019 269.378 151.887 270.894 149.572C272.516 147.172 274.026 144.56 275.76 141.993C279.07 137.186 282.971 132.807 287.373 128.956C289.273 127.251 291.282 125.671 293.387 124.223C295.236 122.968 297.219 121.92 299.301 121.097C302.306 119.86 305.542 119.267 308.796 119.356C309.673 119.379 310.547 119.472 311.409 119.635C311.711 119.666 312.01 119.729 312.298 119.825Z" fill="#455A64"/>
<path d="M241.632 159.808C241.265 160.147 240.856 160.439 240.416 160.678L236.902 162.855L235.719 163.581C235.253 163.867 234.731 164.053 234.187 164.127C233.854 164.173 233.516 164.102 233.23 163.927C233.073 163.829 232.942 163.696 232.846 163.539C232.751 163.382 232.693 163.205 232.678 163.022C232.691 162.378 232.908 161.753 233.297 161.236C234.503 159.183 235.832 156.939 237.251 154.539L237.825 155.042C236.471 156.08 234.947 156.881 233.32 157.408C231.701 157.938 230.001 158.183 228.296 158.133C227.862 158.139 227.429 158.079 227.012 157.955C226.77 157.89 226.544 157.775 226.35 157.617C226.156 157.46 225.998 157.263 225.886 157.04C225.798 156.805 225.77 156.553 225.805 156.305C225.841 156.058 225.938 155.823 226.089 155.622C226.316 155.298 226.577 154.999 226.866 154.729C228.667 152.89 230.22 150.826 231.484 148.59C232.602 146.49 233.562 144.311 234.356 142.071C234.309 142.718 234.177 143.356 233.962 143.969C233.472 145.661 232.807 147.3 231.98 148.858C230.753 151.183 229.207 153.328 227.384 155.231C226.877 155.734 226.37 156.348 226.584 156.749C226.798 157.151 227.576 157.386 228.319 157.363C231.574 157.441 234.756 156.404 237.33 154.428L238.974 153.166L237.848 154.93L233.804 161.627C233.492 162.028 233.301 162.508 233.252 163.011C233.252 163.402 233.624 163.625 234.075 163.581C234.971 163.367 235.82 162.989 236.575 162.464L240.202 160.477C240.652 160.202 241.132 159.977 241.632 159.808Z" fill="#455A64"/>
<path d="M284.377 195.862C284.615 194.792 285.223 193.839 286.094 193.167C286.966 192.494 288.048 192.144 289.152 192.178C289.959 192.261 290.732 192.538 291.406 192.986C292.079 193.433 292.632 194.037 293.016 194.745C293.383 195.461 293.604 196.242 293.664 197.043C293.724 197.844 293.622 198.649 293.365 199.411L293.297 199.746C292.569 200.572 291.601 201.153 290.526 201.411C289.451 201.669 288.322 201.59 287.294 201.186C286.283 200.742 285.449 199.979 284.921 199.016C284.394 198.053 284.202 196.944 284.377 195.862Z" fill="#875149"/>
<path d="M290.594 200.94C290.594 200.94 290.448 201.32 289.873 201.655C289.035 202.122 288.053 202.269 287.114 202.068C286.412 201.905 285.756 201.587 285.194 201.139C284.633 200.691 284.18 200.123 283.87 199.478C283.334 198.266 283.182 196.922 283.433 195.623C283.685 194.323 284.328 193.13 285.278 192.2C285.623 191.888 286.036 191.659 286.486 191.531C286.935 191.403 287.408 191.38 287.868 191.464C289.189 191.856 290.404 192.535 291.427 193.451C293.196 194.779 294.243 195.683 294.153 195.795C294.063 195.906 292.847 195.281 290.954 194.131C289.979 193.401 288.875 192.857 287.699 192.524C287.401 192.477 287.096 192.5 286.808 192.591C286.521 192.682 286.259 192.839 286.044 193.049C285.548 193.573 285.165 194.192 284.917 194.868C284.633 195.522 284.486 196.227 284.486 196.939C284.486 197.651 284.633 198.355 284.917 199.009C285.144 199.534 285.481 200.005 285.906 200.391C286.332 200.776 286.836 201.066 287.384 201.242C288.158 201.482 288.987 201.482 289.76 201.242C290.234 201.074 290.526 200.873 290.594 200.94Z" fill="#263238"/>
<path d="M377.119 174.653C383.882 177.479 389.886 181.828 394.656 187.356C400.885 194.711 416.417 217.649 421.609 223.309C427.342 229.544 434.334 234.514 442.131 237.898L429.809 277.121C423.094 273.874 416.772 269.882 410.965 265.222C401.955 257.822 392.37 234.493 379.608 224.983C371.352 218.833 352.576 214.1 352.576 214.1L377.119 174.653Z" fill="#438EEB"/>
<g opacity="0.2">
<path d="M439.732 239.07C439.619 238.992 427.342 232.105 422.138 226.379C418.455 222.349 412.779 214.692 407.282 207.28C403.126 201.699 399.195 196.364 396.233 192.77C386.772 181.273 379.236 178.951 378.921 178.862L378.189 178.638L356.789 211.745L358.129 212.102C358.264 212.102 372.084 215.842 378.606 220.563C387.29 226.848 392.302 235.208 397.156 243.289C400.625 249.071 403.914 254.53 408.42 259.307C412.426 263.558 416.908 267.344 421.778 270.592C423.719 271.902 425.747 273.08 427.849 274.119L428.908 274.599L439.732 239.07ZM379.755 218.978C375.869 216.165 369.764 213.766 365.112 212.192C365.893 211.217 366.293 209.997 366.239 208.754C365.698 206.733 363.986 206.32 362.218 207.135L376.162 185.637L376.274 185.804C378.425 188.796 382.638 186.217 382.92 183.137C382.99 183.192 383.066 183.24 383.145 183.282C387.496 186.269 391.376 189.88 394.656 193.997C397.584 197.558 401.504 202.838 405.649 208.441C406.133 209.077 406.606 209.725 407.079 210.361C403.903 208.91 399.713 209.602 395.76 215.094C392.11 220.184 391.592 227.048 392.55 232.295C389.077 227.156 384.751 222.638 379.755 218.934V218.978ZM409.839 257.967C405.48 253.346 402.259 247.977 398.846 242.341L397.877 240.722C400.167 241.403 402.619 241.32 404.857 240.488C407.094 239.655 408.995 238.118 410.267 236.112C412.903 231.725 415.426 225.441 413.646 219.123C416.327 222.617 418.782 225.698 420.708 227.819C424.391 231.837 430.732 236.614 434.539 239.349C434.246 239.43 433.973 239.57 433.736 239.759C433.499 239.948 433.303 240.182 433.16 240.448C433.017 240.714 432.93 241.006 432.903 241.306C432.877 241.607 432.913 241.909 433.008 242.195C433.255 243.434 434.427 244.964 435.846 244.662L436.037 244.584L428.716 268.46C427.59 265.111 423.862 266.674 424.447 269.967C419.082 266.582 414.174 262.535 409.839 257.923V257.967Z" fill="white"/>
</g>
<path d="M400.254 232.975L398.959 235.018L397.314 234.002L398.576 232.004C397.124 231.027 396.014 229.626 395.399 227.997L397.708 226.323C398.174 227.616 398.998 228.753 400.085 229.604L402.011 226.546C400.502 224.928 398.891 222.985 400.535 220.362C401.763 218.42 404.083 217.538 406.888 218.822L408.172 216.79L409.817 217.806L408.555 219.804C409.704 220.621 410.616 221.721 411.202 222.997L408.949 224.738C408.507 223.767 407.853 222.905 407.034 222.215L405.075 225.329C406.595 226.948 408.183 228.868 406.55 231.446C405.356 233.355 403.058 234.181 400.254 232.975ZM403.768 230.029C404.174 229.381 403.915 228.745 403.374 228.031L401.786 230.553C402.124 230.719 402.512 230.758 402.877 230.661C403.241 230.565 403.558 230.34 403.768 230.029ZM403.712 223.856L405.356 221.255C404.996 221.088 404.587 221.058 404.205 221.169C403.824 221.28 403.496 221.525 403.284 221.858C402.878 222.494 403.149 223.153 403.712 223.856Z" fill="#438EEB"/>
<path d="M264.688 332.787C269.874 327.643 276.199 323.768 283.16 321.469C292.374 318.511 319.665 312.874 326.907 310.24C334.911 307.315 342.203 302.751 348.307 296.845L380.34 322.92C374.767 327.867 368.645 332.174 362.094 335.756C351.777 341.248 326.366 341.27 312.682 349.408C303.817 354.676 292.34 370.113 292.34 370.113L264.688 332.787Z" fill="#438EEB"/>
<g opacity="0.2">
<path d="M348.465 299.524C348.352 299.602 337.303 308.252 329.971 310.909C324.823 312.773 315.531 315.106 306.532 317.361C299.774 319.069 293.275 320.709 288.803 322.049C274.499 326.413 269.487 332.452 269.284 332.709L268.799 333.289L291.72 365.458L292.554 364.342C292.644 364.219 301.305 352.923 308.176 348.715C317.311 343.134 327.008 341.649 336.391 340.232C343.149 339.216 349.434 338.256 355.606 335.923C361.089 333.839 366.315 331.143 371.183 327.887C373.16 326.607 375.042 325.19 376.815 323.645L377.671 322.852L348.465 299.524ZM307.072 347.03C302.984 349.53 298.445 354.24 295.212 357.924C294.579 356.865 293.578 356.071 292.396 355.691C290.312 355.423 289.276 356.808 289.378 358.772L274.521 337.877H274.724C278.328 337.017 277.506 332.184 274.724 330.766L274.938 330.61C279.399 327.719 284.269 325.503 289.389 324.036C293.815 322.685 300.235 321.078 307.027 319.37L309.359 318.789C306.813 321.156 305.878 325.275 309.528 330.967C312.907 336.225 319.135 339.283 324.407 340.377C318.29 341.607 312.429 343.857 307.072 347.03ZM354.795 334.059C348.837 336.292 342.608 337.263 336.008 338.267L334.138 338.546C335.621 336.7 336.456 334.426 336.517 332.067C336.578 329.708 335.861 327.394 334.476 325.476C331.356 321.413 326.434 316.724 319.834 316.021C324.125 314.905 327.921 313.789 330.624 312.795C335.771 310.931 342.619 306.913 346.618 304.435C346.584 304.735 346.611 305.038 346.698 305.326C346.786 305.615 346.931 305.883 347.126 306.115C347.32 306.347 347.56 306.537 347.831 306.674C348.102 306.811 348.398 306.892 348.702 306.913C349.952 307.159 351.81 306.656 352.081 305.239C352.086 305.172 352.086 305.105 352.081 305.038L371.69 320.732C368.12 320.553 368.187 324.516 371.487 325.197C366.329 328.847 360.719 331.826 354.795 334.059Z" fill="white"/>
</g>
<path d="M327.932 333.524L329.363 335.477L327.797 336.593L326.4 334.684C324.937 335.646 323.211 336.14 321.456 336.102L320.769 333.345C322.15 333.404 323.521 333.075 324.722 332.396L322.593 329.472C320.498 330.253 318.088 331.012 316.252 328.512C314.9 326.648 314.945 324.192 317.198 322.094L315.779 320.151L317.356 319.035L318.752 320.944C319.943 320.198 321.31 319.774 322.717 319.716L323.506 322.428C322.433 322.476 321.384 322.754 320.431 323.243L322.605 326.224C324.688 325.42 327.11 324.694 328.878 327.161C330.207 329.059 330.162 331.459 327.932 333.524ZM320.712 326.916L318.899 324.426C318.607 324.695 318.424 325.06 318.385 325.452C318.346 325.845 318.452 326.238 318.685 326.558C319.124 327.217 319.879 327.206 320.712 326.96V326.916ZM326.502 329.148C326.051 328.534 325.375 328.523 324.486 328.746L326.243 331.168C326.504 330.925 326.672 330.6 326.719 330.249C326.766 329.897 326.69 329.539 326.502 329.237V329.148Z" fill="#438EEB"/>
<path d="M267.617 11.1731L229.322 6.07202L225.267 6.47386C218.329 7.41147 212.787 9.07463 204.531 17.7364C196.5 26.1638 193.121 47.6955 193.121 47.6955C193.121 47.6955 202.65 42.84 217.326 43.1637C232.002 43.4874 237.341 46.0323 237.341 46.0323C237.341 46.0323 237.442 31.5216 243.716 24.2439C251.555 15.2138 267.617 11.1731 267.617 11.1731Z" fill="#438EEB"/>
<g opacity="0.2">
<path d="M267.617 11.1731L229.322 6.07202L225.267 6.47386C218.329 7.41147 212.787 9.07463 204.531 17.7364C196.5 26.1638 193.121 47.6955 193.121 47.6955C193.121 47.6955 202.65 42.84 217.326 43.1637C232.002 43.4874 237.341 46.0323 237.341 46.0323C237.341 46.0323 237.442 31.5216 243.716 24.2439C251.555 15.2138 267.617 11.1731 267.617 11.1731Z" fill="black"/>
</g>
<path d="M225.267 6.47395C225.267 6.47395 234.277 5.21264 248.537 17.357C257.66 25.1035 273.316 48.8676 273.316 48.8676C276.571 44.4462 280.693 40.7217 285.435 37.9176C298.152 30.4501 305.439 28.5638 305.439 28.5638C305.439 28.5638 297.352 16.5198 285.199 11.776C255.869 0.267826 225.267 6.47395 225.267 6.47395Z" fill="#438EEB"/>
<g opacity="0.2">
<path d="M237.161 5.02291C239.154 6.07215 250.925 10.2021 259.068 9.48775C267.211 8.77337 269.205 7.46741 265.916 6.61909C261.346 5.43961 256.649 4.81 251.927 4.74386C247.004 4.53974 242.073 4.63293 237.161 5.02291Z" fill="white"/>
</g>
<g opacity="0.2">
<path d="M301.182 26.0079C295.754 20.3415 289.533 15.4773 282.71 11.5641C281.268 10.7828 279.736 10.0349 278.204 9.33173C272.966 7.75558 267.611 6.59111 262.188 5.84915C267.324 6.96536 273.981 7.50114 282.541 13.3278C286.83 16.2857 290.916 19.5224 294.773 23.0165C293.432 23.7866 293.41 26.4432 294.367 27.4813C290.844 28.8265 287.467 30.5206 284.287 32.5377C281.363 34.4527 278.546 36.5245 275.85 38.7439C276.086 38.2464 276.18 37.6942 276.121 37.1477C275.805 35.3841 273.294 34.2344 271.615 34.7255C271.278 34.7833 270.963 34.9329 270.707 35.1576C270.45 35.3823 270.262 35.6733 270.162 35.998C265.342 29.044 257.333 17.9824 252.715 14.1426C248.056 10.3947 242.873 7.33437 237.33 5.05664H237.206C235.223 5.17942 233.658 5.3915 232.104 5.55894C239.061 7.85163 245.546 11.3639 251.251 15.9285C257.773 21.3533 272.111 42.952 272.257 43.1752L273.001 44.2914L273.992 43.3985C277.657 40.173 281.533 37.19 285.593 34.4688C290.24 31.5156 295.325 29.3011 300.663 27.9055L302.612 27.4701L301.182 26.0079Z" fill="white"/>
</g>
<path d="M128.098 280.682L162.755 286.543L166.393 286.297C172.723 285.672 177.803 284.344 185.541 276.742C193.11 269.342 196.872 249.953 196.872 249.953C196.872 249.953 188.064 254.061 174.751 253.302C161.437 252.543 156.673 250.054 156.673 250.054C156.673 250.054 156.11 263.258 150.174 269.632C142.819 277.524 128.098 280.682 128.098 280.682Z" fill="#438EEB"/>
<g opacity="0.2">
<path d="M128.098 280.682L162.755 286.543L166.393 286.297C172.723 285.672 177.803 284.344 185.541 276.742C193.11 269.342 196.872 249.953 196.872 249.953C196.872 249.953 188.064 254.061 174.751 253.302C161.437 252.543 156.673 250.054 156.673 250.054C156.673 250.054 156.11 263.258 150.174 269.632C142.819 277.524 128.098 280.682 128.098 280.682Z" fill="black"/>
</g>
<path d="M166.393 286.297C166.393 286.297 158.194 287.156 145.612 275.682C137.582 268.359 124.212 246.27 124.212 246.27C121.117 250.184 117.255 253.438 112.859 255.836C101.077 262.209 94.3867 263.649 94.3867 263.649C94.3867 263.649 101.291 274.811 112.172 279.544C138.404 290.963 166.393 286.297 166.393 286.297Z" fill="#438EEB"/>
<g opacity="0.2">
<path d="M155.547 287.246C153.767 286.219 143.225 282.1 135.802 282.524C128.379 282.948 126.577 284.031 129.495 284.913C133.606 286.126 137.848 286.849 142.132 287.067C146.596 287.393 151.076 287.453 155.547 287.246Z" fill="white"/>
</g>
<g opacity="0.2">
<path d="M98.1036 266.149C102.848 271.459 108.332 276.07 114.39 279.845C115.674 280.604 117.037 281.33 118.445 282.011C123.148 283.618 127.973 284.85 132.873 285.694C128.244 284.477 122.218 283.808 114.627 278.249C110.835 275.419 107.231 272.351 103.837 269.062C105.076 268.404 105.188 265.993 104.355 265.022C107.599 263.916 110.72 262.483 113.67 260.747C116.396 259.108 119.029 257.319 121.554 255.389C121.323 255.833 121.222 256.331 121.261 256.829C121.486 258.436 123.728 259.564 125.293 259.173C125.603 259.128 125.895 259 126.137 258.804C126.379 258.607 126.562 258.349 126.667 258.057C130.812 264.52 137.717 274.8 141.794 278.461C145.891 282.012 150.485 284.956 155.434 287.201H155.535C157.349 287.145 158.779 287 160.187 286.9C153.948 284.591 148.179 281.188 143.157 276.854C137.413 271.73 125.136 251.65 124.978 251.449L124.336 250.411L123.401 251.192C119.976 253.998 116.364 256.571 112.588 258.894C108.274 261.431 103.584 263.281 98.6893 264.374L96.9097 264.709L98.1036 266.149Z" fill="white"/>
</g>
<path d="M376.398 78.2465C376.398 78.2465 384.497 71.7166 394.802 61.9721C407.372 50.0957 433.436 26.432 455.624 35.384L481.068 65.5217C481.068 65.5217 468.679 62.9656 452.009 69.0712C437.243 74.4848 426.88 85.2451 422.206 90.1899C420.325 92.1879 417.859 94.8668 415.876 96.7532C412.497 99.9233 408.724 104.321 402.743 109.099L376.398 78.2465Z" fill="#438EEB"/>
<g opacity="0.2">
<path d="M436.871 56.2905C439.811 63.1998 436.251 71.27 428.919 74.3396C421.587 77.4092 413.263 74.3396 410.323 67.3967C407.383 60.4539 410.954 52.4172 418.286 49.3588C425.619 46.3004 433.942 49.3923 436.871 56.2905Z" fill="white"/>
</g>
<path d="M429.865 65.5215L431.386 66.9949L430.259 68.2004L428.728 66.7493C427.612 67.7939 426.201 68.4755 424.684 68.7027L423.67 66.4703C424.87 66.3187 426.002 65.8352 426.937 65.075L424.684 62.8426C422.995 63.8249 421.024 64.8294 419.052 62.9431C417.599 61.5478 417.273 59.427 418.895 57.2839L417.385 55.8216L418.568 54.6161L420.055 56.056C420.975 55.2377 422.092 54.6686 423.299 54.4041L424.425 56.6365C423.515 56.8305 422.656 57.2107 421.902 57.7527L424.222 59.9851C425.901 58.9917 427.849 58.0094 429.775 59.8735C431.149 61.2799 431.476 63.4007 429.865 65.5215ZM422.657 60.9004L420.719 59.0252C420.506 59.297 420.401 59.637 420.424 59.9805C420.447 60.3241 420.596 60.6474 420.843 60.8892C421.328 61.358 421.936 61.2464 422.657 60.9004ZM427.984 62.0166C427.5 61.5478 426.858 61.6483 426.182 62.0166L428.063 63.836C428.29 63.5808 428.41 63.2497 428.4 62.9097C428.39 62.5697 428.249 62.2465 428.007 62.0054L427.984 62.0166Z" fill="#438EEB"/>
<g opacity="0.2">
<path d="M453.732 35.6293L453.473 35.5512C452.82 35.3391 437.378 30.7515 415.572 47.2602C407.424 53.4417 399.796 60.2694 392.764 67.6757C388.259 72.2745 385.026 75.5897 381.106 77.6435L380.07 78.1793L403.227 106.687L403.982 105.861C404.207 105.627 425.799 82.0748 436.184 74.8083C444.418 69.0487 460.389 59.8288 474.727 62.7979L477.565 63.4006L453.732 35.6293ZM435.114 73.2568C427.613 78.4918 414.84 91.6073 407.71 99.1082C406.612 98.0421 405.145 97.4321 403.608 97.4031C402.071 97.374 400.581 97.9281 399.443 98.9519L386.749 83.325C387.372 82.8812 387.886 82.3031 388.251 81.6341C388.615 80.965 388.822 80.2227 388.855 79.4629C388.891 77.9944 388.475 76.55 387.662 75.3218C389.678 73.5581 391.739 71.4597 394.149 68.9929C401.109 61.6526 408.666 54.8916 416.743 48.7783C427.703 40.4848 436.95 37.8283 442.773 37.0581C444.292 36.8509 445.824 36.7465 447.357 36.7455C448.17 38.3008 449.442 39.5732 451.004 40.393C452.566 41.2127 454.343 41.5407 456.098 41.3332L469.366 56.8038C468.442 57.094 467.35 57.92 467.654 60.3422C454.892 60.8445 442.21 68.2896 435.114 73.2568Z" fill="white"/>
</g>
<path d="M53.5346 366.597C53.5346 366.597 61.6217 373.138 73.3356 381.163C87.6287 390.964 116.283 411.468 111.946 434.853L87.3246 465.638C87.3246 465.638 87.3246 453.047 77.9423 438.157C69.5624 424.885 56.8348 416.949 51.0229 413.466C48.6689 412.049 45.5264 410.196 43.2512 408.655C39.4555 406.077 34.3306 403.242 28.4061 398.409L53.5346 366.597Z" fill="#438EEB"/>
<g opacity="0.2">
<path d="M87.4559 420.871C93.6809 416.623 95.0695 407.915 90.5573 401.421C86.0452 394.927 77.3411 393.106 71.1161 397.354C64.8911 401.602 63.5025 410.31 68.0146 416.804C72.5267 423.298 81.2309 425.119 87.4559 420.871Z" fill="white"/>
</g>
<path d="M76.8046 415.833L75.6783 417.619L74.2479 416.715L75.3742 414.974C74.1199 414.102 73.1648 412.872 72.6372 411.446L74.6759 410.007C75.0749 411.14 75.7848 412.141 76.7258 412.898L78.4378 410.23C77.12 408.801 75.7346 407.082 77.1989 404.816C78.3252 403.12 80.3188 402.372 82.7742 403.521L83.9005 401.758L85.331 402.662L84.2047 404.392C85.1882 405.121 85.9643 406.09 86.4573 407.205L84.475 408.712C84.093 407.857 83.5281 407.096 82.8193 406.479L81.096 409.203C82.4138 410.62 83.7879 412.317 82.3349 414.561C81.2537 416.213 79.2488 416.961 76.8046 415.833ZM79.9021 413.288C80.2625 412.73 80.0372 412.172 79.5754 411.536L78.1562 413.768C78.456 413.914 78.7994 413.946 79.1213 413.857C79.4431 413.769 79.721 413.566 79.9021 413.288ZM79.9021 407.897L81.355 405.664C81.0409 405.52 80.6848 405.492 80.3519 405.587C80.0189 405.681 79.7313 405.891 79.5416 406.178C79.1925 406.703 79.429 407.272 79.9696 407.897H79.9021Z" fill="#438EEB"/>
<g opacity="0.2">
<path d="M111.304 433.023V432.744C111.383 432.074 112.791 416.157 92.0553 398.342C84.3007 391.686 76.0137 385.665 67.2759 380.337C61.8245 376.911 57.8936 374.433 55.0777 371.039L54.3231 370.146L30.8616 398.442L31.8302 399.001C32.1118 399.168 59.7633 415.353 68.9992 423.959C76.3542 430.79 88.6988 444.419 88.6763 458.941V461.72L111.304 433.023ZM70.3508 422.564C63.6604 416.358 48.117 406.591 39.2528 401.211C40.0829 399.931 40.3889 398.386 40.1084 396.89C39.8279 395.394 38.9821 394.061 37.7435 393.163L50.5949 377.67C51.1596 378.186 51.8354 378.567 52.5712 378.786C53.3069 379.005 54.0832 379.054 54.8412 378.931C56.2998 378.677 57.6422 377.978 58.682 376.933C60.8333 378.54 63.3338 380.114 66.2622 381.956C74.9246 387.236 83.1366 393.209 90.8163 399.815C101.235 408.745 105.74 417.206 107.711 422.709C108.222 424.141 108.632 425.607 108.939 427.096C107.57 428.199 106.573 429.689 106.08 431.368C105.587 433.047 105.621 434.835 106.179 436.494L93.542 452.478C93.0802 451.641 92.0215 450.748 89.7012 451.529C86.6151 439.251 76.7033 428.457 70.3508 422.564Z" fill="white"/>
</g>
<path d="M0 181.775C0 181.775 18.0213 160.936 53.2305 174.352C54.5688 174.856 55.9532 175.23 57.3642 175.469C61.382 176.258 65.5399 175.965 69.4047 174.62C76.2753 171.886 86.0406 167.923 86.0406 167.923L116.26 185.648C116.26 185.648 103.589 194.801 91.3231 195.572C79.0574 196.342 64.5614 186.363 50.4935 189.767C43.3401 191.303 36.8454 195.005 31.909 200.36L0 181.775Z" fill="#438EEB"/>
<g opacity="0.2">
<path d="M72.8513 186.362C71.4884 187.568 63.3112 186.463 54.5709 183.896C45.8305 181.328 39.8497 178.315 41.2126 177.053C42.5754 175.792 50.7526 176.953 59.493 179.531C68.2333 182.11 74.2029 185.157 72.8513 186.362Z" fill="white"/>
</g>
<path d="M60.6643 184.029L61.2162 184.61L59.3803 184.208L58.8397 183.639C57.1597 183.259 55.5016 182.789 53.8725 182.232L54.278 181.819C55.4043 182.21 56.8348 182.634 58.1864 182.936L57.3642 182.076C55.1903 181.484 52.7237 180.804 52.0141 180.056C51.496 179.509 52.4534 179.341 55.2692 179.877L54.7173 179.308L56.5532 179.699L57.0939 180.268C58.5018 180.603 59.9435 180.993 61.1261 181.384L60.8107 181.831C59.7407 181.473 58.6932 181.172 57.7471 180.949L58.5919 181.831C60.7544 182.411 63.1873 183.092 63.8856 183.817C64.4038 184.398 63.4576 184.554 60.6643 184.029ZM56.632 181.328L55.9225 180.592C55.0101 180.446 54.7961 180.513 54.9313 180.681C55.4578 180.989 56.0327 181.208 56.632 181.328ZM60.991 183.27C60.4764 182.962 59.9127 182.743 59.324 182.623L60.011 183.337C60.822 183.482 61.1486 183.438 60.991 183.27Z" fill="#438EEB"/>
<g opacity="0.2">
<path d="M85.6013 170.077L85.2634 170.233C79.5942 172.985 73.6873 175.226 67.6138 176.931C63.39 178.047 61.4189 177.656 57.8259 177.031L55.5733 176.652C53.4668 176.222 51.3931 175.648 49.3672 174.933C44.8618 173.482 39.1288 171.673 33.4521 171.495H33.3057C33.148 171.495 17.537 170.155 4.82068 180.279L4.06604 180.882L31.2107 197.168L31.5824 196.822C31.7288 196.688 46.2923 183.65 65.9806 188.562C68.3121 189.142 70.4859 189.678 72.5133 190.247C88.4622 194.422 96.4592 196.52 112.498 186.977L113.467 186.396L85.6013 170.077ZM72.8512 188.93C70.8126 188.394 68.6387 187.814 66.3072 187.244C52.9151 183.896 41.8207 188.584 35.7273 192.234C31.2219 189.89 28.102 192 26.9531 193.026L11.0718 183.505C14.1355 180.86 12.3446 178.572 11.3084 177.623C18.057 174.136 25.6119 172.47 33.2156 172.79C38.7909 172.946 44.4226 174.732 48.9842 176.138C51.0773 176.871 53.2186 177.46 55.3931 177.902L57.6457 178.281C61.295 178.918 63.5027 179.286 67.9967 178.158C72.5556 176.929 77.0137 175.358 81.3325 173.459C82.4588 174.43 85.4662 176.272 89.9152 174.073L106.112 183.561C104.895 184.13 103.082 185.615 105.977 188.852C94.0263 194.477 86.356 192.468 72.8512 188.93Z" fill="white"/>
</g>
<path d="M412.238 463.004C412.238 463.004 410.109 435.69 444.665 420.588C445.984 420.017 447.244 419.322 448.427 418.512C451.82 416.261 454.542 413.15 456.312 409.504C459.229 402.807 463.317 393.096 463.317 393.096L497.344 384.523C497.344 384.523 494.888 399.871 486.745 408.99C478.602 418.11 461.222 421.179 453.676 433.435C449.702 439.523 447.734 446.685 448.044 453.929L412.238 463.004Z" fill="#438EEB"/>
<g opacity="0.2">
<path d="M467.135 415.375C467.034 417.184 460.445 422.073 452.426 426.404C444.406 430.734 437.986 432.71 438.087 430.868C438.189 429.027 444.778 424.171 452.797 419.84C460.817 415.509 467.237 413.567 467.135 415.375Z" fill="white"/>
</g>
<path d="M456.83 422.24H457.641L456.052 423.245H455.264C453.809 424.148 452.305 424.972 450.759 425.711V425.142C451.99 424.561 453.189 423.917 454.352 423.211H453.135C451.187 424.327 448.957 425.544 447.92 425.522C447.154 425.522 447.718 424.707 450.094 423.122H449.294L450.883 422.117H451.671C452.899 421.369 454.205 420.644 455.332 420.108L455.422 420.633C454.408 421.135 453.462 421.648 452.617 422.151H453.845C455.793 421.034 458.001 419.829 459.015 419.918C459.747 419.885 459.184 420.666 456.83 422.24ZM452.054 423.144H451.029C450.274 423.669 450.151 423.892 450.398 423.892C450.989 423.738 451.549 423.485 452.054 423.144ZM456.559 421.481C455.975 421.622 455.419 421.86 454.915 422.184H455.917C456.593 421.704 456.762 421.481 456.526 421.481H456.559Z" fill="#438EEB"/>
<g opacity="0.2">
<path d="M464.601 394.915L464.489 395.261C462.418 401.174 459.821 406.893 456.728 412.351C454.476 416.045 452.854 417.195 449.869 419.271C449.283 419.673 448.653 420.108 447.965 420.599C446.162 421.767 444.28 422.811 442.334 423.725C438.065 425.89 432.749 428.569 428.604 432.42L428.502 432.521C428.379 432.621 416.361 442.566 414.57 458.662L414.457 459.622L445.296 452.177V451.675C445.296 451.474 446.344 432.052 463.779 421.76C465.852 420.544 467.789 419.439 469.602 418.412C483.884 410.23 491.003 406.133 495.609 388.14L495.891 387.024L464.601 394.915ZM468.96 417.24C467.136 418.289 465.187 419.394 463.126 420.588C451.266 427.587 446.726 438.649 445.003 445.502C443.461 445.866 442.079 446.715 441.063 447.923C440.048 449.13 439.455 450.63 439.372 452.199L421.35 456.541C421.632 452.523 418.737 452.155 417.329 452.21C419.633 445.024 423.81 438.567 429.437 433.492C433.492 429.708 438.752 427.029 442.953 424.897C444.958 423.949 446.896 422.867 448.754 421.66C449.43 421.169 450.06 420.733 450.635 420.331C453.676 418.222 455.501 416.983 457.888 413.009C460.262 408.95 462.322 404.719 464.049 400.351C465.548 400.24 468.983 399.458 470.56 394.77L488.795 390.183C488.345 391.422 488.108 393.743 492.456 394.022C487.917 406.312 481.046 410.263 468.96 417.24Z" fill="white"/>
</g>
<path d="M462.664 192.669C462.664 192.669 455.005 166.338 485.743 144.571C486.922 143.755 488.016 142.824 489.009 141.792C491.888 138.91 493.931 135.313 494.922 131.378C496.409 124.189 498.436 113.909 498.436 113.909L529.974 98.6841C529.974 98.6841 530.695 114.199 524.59 124.77C518.485 135.34 502.063 141.826 497.197 155.343C494.551 162.106 494.091 169.517 495.88 176.551L462.664 192.669Z" fill="#438EEB"/>
<g opacity="0.2">
<path d="M506.67 134.972C506.94 136.758 501.5 142.919 494.517 148.724C487.533 154.528 481.665 157.787 481.395 156.001C481.125 154.215 486.576 148.054 493.548 142.25C500.52 136.445 506.399 133.175 506.67 134.972Z" fill="white"/>
</g>
<path d="M497.986 143.768L498.785 143.623L497.434 144.929L496.657 145.063C495.413 146.254 494.101 147.372 492.726 148.411L492.602 147.853C493.686 147.04 494.727 146.172 495.722 145.252L494.539 145.453C492.85 146.927 490.912 148.59 489.899 148.802C489.144 148.925 489.538 148.043 491.543 146.011L490.743 146.157L492.095 144.851L492.872 144.717C493.931 143.734 495.057 142.763 496.048 142.004L496.24 142.507C495.35 143.199 494.528 143.902 493.807 144.549L495.023 144.337C496.702 142.864 498.616 141.234 499.619 141.067C500.351 140.866 499.968 141.736 497.986 143.768ZM493.48 145.621L492.467 145.788C491.847 146.469 491.768 146.704 492.005 146.659C492.557 146.395 493.059 146.04 493.492 145.61L493.48 145.621ZM497.513 143.087C496.969 143.339 496.473 143.683 496.048 144.103L497.04 143.935C497.648 143.288 497.749 143.031 497.524 143.076L497.513 143.087Z" fill="#438EEB"/>
<g opacity="0.2">
<path d="M500.002 115.416V115.773C499.182 121.976 497.81 128.094 495.902 134.057C494.472 138.131 493.097 139.582 490.597 142.205C490.101 142.73 489.572 143.321 488.998 143.902C487.478 145.406 485.856 146.805 484.143 148.088C480.392 151.068 475.741 154.785 472.474 159.361L472.384 159.473C472.294 159.596 462.563 171.807 464.083 187.869L464.173 188.829L492.85 175.357L492.771 174.854C492.771 174.665 489.786 155.432 504.766 141.859C506.535 140.252 508.213 138.778 509.778 137.394C522.089 126.511 528.262 121.053 529.061 102.535V101.419L500.002 115.416ZM508.832 136.379C507.255 137.774 505.577 139.258 503.809 140.843C493.616 150.074 491.419 161.828 491.149 168.871C489.706 169.534 488.52 170.644 487.77 172.033C487.021 173.423 486.748 175.016 486.993 176.573L470.222 184.454C469.681 180.469 466.764 180.681 465.401 181.016C466.185 173.515 468.955 166.353 473.432 160.254C476.63 155.789 481.237 152.061 484.943 149.092C486.718 147.768 488.397 146.321 489.966 144.761C490.529 144.147 491.093 143.645 491.532 143.087C494.077 140.419 495.609 138.801 497.164 134.459C498.631 130.009 499.761 125.457 500.543 120.841C501.996 120.428 505.194 118.977 505.78 114.077L522.675 105.917C522.495 107.234 522.743 109.545 527.056 108.953C525.175 121.924 519.24 127.17 508.832 136.379Z" fill="white"/>
</g>
<path d="M136.151 103.35C128.834 102.769 121.753 100.507 115.472 96.7416C107.238 91.6964 85.2184 74.7523 78.5054 70.9907C70.9616 66.813 62.8182 63.8018 54.3569 62.061L53.6698 22.469C61.0726 23.4696 68.3381 25.2931 75.3292 27.9049C86.2321 32.1354 102.722 51.3454 117.837 56.3571C127.636 59.6388 146.93 58.2882 146.93 58.2882L136.151 103.35Z" fill="#438EEB"/>
<g opacity="0.2">
<path d="M56.3168 60.4539L57.0376 60.666C57.1728 60.666 70.2946 64.4276 77.0751 68.245C81.8507 70.9239 89.6675 76.4269 97.2252 81.7512C102.958 85.7919 108.376 89.5647 112.318 92.0985C124.944 100.068 132.829 99.9119 133.166 99.9119H133.921L143.822 61.7934L142.436 61.8715C142.29 61.8715 127.985 62.664 120.304 60.2083C110.077 56.949 102.665 50.5754 95.5244 44.4028C90.3996 40.0049 85.5676 35.8415 79.7558 32.7049C74.5783 29.9069 69.095 27.7048 63.4127 26.1416C61.1566 25.4955 58.8568 25.0106 56.5308 24.6905L55.4044 24.5566L56.3168 60.4539ZM119.684 62.1282C124.246 63.5793 130.812 63.9588 135.735 64.0146C135.325 65.1833 135.353 66.4589 135.813 67.6088C136.94 69.3501 138.719 69.2161 140.138 67.8879L133.718 92.6454L133.561 92.5115C130.565 90.346 127.377 94.1076 128.087 97.1102L127.828 97.0433C122.712 95.5365 117.852 93.279 113.411 90.346C109.502 87.8792 104.107 84.0841 98.3966 80.0546L96.4368 78.6705C99.9059 79.0611 103.679 77.0966 105.684 70.6561C107.542 64.6955 105.853 58.0206 103.285 53.3325C108.193 57.1567 113.719 60.1306 119.628 62.1282H119.684ZM78.7083 34.4685C84.3399 37.5046 89.0705 41.5899 94.1052 45.932C94.5896 46.3338 95.0626 46.7468 95.5357 47.1598C93.1562 47.2358 90.8666 48.0791 89.0147 49.5618C87.1629 51.0446 85.8497 53.0856 85.2748 55.3751C84.1485 60.3534 83.7655 67.1177 87.5275 72.5536C83.8331 70.098 80.5329 67.8655 78.0212 66.4926C73.2568 63.8137 65.7216 61.2464 61.2388 59.7953C61.7231 59.4558 62.0526 58.9407 62.156 58.3618C62.2593 57.7829 62.1281 57.187 61.7907 56.7034C61.16 55.5872 59.5381 54.471 58.3216 55.2412L58.1639 55.364L57.5445 30.4278C59.7183 33.2295 62.7256 30.6176 61.1262 27.6708C67.2551 29.1855 73.1636 31.4699 78.7083 34.4685Z" fill="white"/>
</g>
<path d="M95.7383 55.1853L96.3127 52.8301L98.2049 53.2877L97.6418 55.5201C99.3253 56.0015 100.819 56.9834 101.922 58.333L100.244 60.6994C99.3927 59.6182 98.2534 58.7946 96.9547 58.3218L96.0874 61.8267C98.0472 62.9429 100.187 64.2377 99.4664 67.2404C98.9145 69.4728 96.9885 71.0243 93.9136 70.6783L93.3504 73.0112L91.4582 72.5535L92.0214 70.3211C90.6737 69.8931 89.4623 69.1235 88.5072 68.0887L90.1066 65.7111C90.8417 66.4865 91.7368 67.0956 92.731 67.4971L93.6095 63.9252C91.6497 62.876 89.5322 61.5477 90.2305 58.5897C90.7599 56.402 92.6521 54.8616 95.7383 55.1853ZM93.3392 59.0697C93.159 59.8064 93.6095 60.331 94.3416 60.8445L95.0512 57.9535C94.6739 57.8937 94.2877 57.9748 93.9673 58.181C93.6469 58.3872 93.415 58.7039 93.3166 59.0697H93.3392ZM95.344 64.9075L94.6119 67.8654C95.0072 67.9124 95.4062 67.8147 95.734 67.5907C96.0617 67.3666 96.2955 67.0317 96.3915 66.6488C96.538 65.9456 96.0762 65.4098 95.3215 64.9075H95.344Z" fill="#438EEB"/>
<path d="M305.923 471.085C298.608 470.505 291.53 468.238 285.255 464.466C277.01 459.432 254.991 442.488 248.278 438.726C240.737 434.55 232.598 431.538 224.14 429.797L223.442 390.205C230.846 391.198 238.113 393.021 245.101 395.641C256.004 399.871 272.494 419.025 287.62 424.093C297.408 427.363 316.702 426.024 316.702 426.024L305.923 471.085Z" fill="#438EEB"/>
<g opacity="0.2">
<path d="M226.033 428.189L226.753 428.39C226.889 428.39 240.022 432.163 246.802 435.98C251.567 438.659 259.383 444.162 266.941 449.487C272.674 453.527 278.092 457.3 282.045 459.834C294.66 467.804 302.556 467.647 302.882 467.647H303.648L313.537 429.518L312.152 429.596C312.006 429.596 297.712 430.388 290.02 427.933C279.793 424.673 272.381 418.3 265.24 412.127C260.115 407.729 255.272 403.566 249.472 400.429C244.302 397.635 238.826 395.436 233.151 393.877C230.895 393.231 228.595 392.746 226.269 392.426L225.143 392.292L226.033 428.189ZM289.4 429.864C293.973 431.315 300.528 431.694 305.462 431.75C305.052 432.919 305.08 434.194 305.54 435.344C306.667 437.086 308.446 436.952 309.866 435.623L303.434 460.381L303.277 460.247C300.292 458.081 297.104 461.843 297.814 464.846L297.555 464.779C292.44 463.294 287.58 461.055 283.138 458.137C279.229 455.67 273.834 451.875 268.124 447.846L266.153 446.462C269.633 446.852 273.395 444.888 275.4 438.447C277.258 432.487 275.58 425.812 273.001 421.124C277.93 424.934 283.475 427.889 289.4 429.864ZM248.48 402.204C254.112 405.229 258.843 409.325 263.889 413.656C264.362 414.069 264.835 414.482 265.319 414.884C262.938 414.964 260.647 415.81 258.794 417.294C256.941 418.778 255.625 420.82 255.047 423.111C253.921 428.089 253.538 434.853 257.3 440.278C253.65 437.789 250.339 435.634 247.838 434.228C243.063 431.549 235.539 428.982 231.045 427.531C231.298 427.363 231.515 427.146 231.681 426.894C231.848 426.641 231.961 426.357 232.013 426.06C232.066 425.762 232.057 425.457 231.987 425.163C231.918 424.869 231.789 424.593 231.608 424.35C230.977 423.233 229.355 422.117 228.128 422.898L227.97 423.021L227.362 398.074C229.536 400.887 232.532 398.275 230.932 395.328C237.054 396.867 242.952 399.177 248.48 402.204Z" fill="white"/>
</g>
<path d="M265.488 422.91L266.074 420.566L267.955 421.023L267.392 423.312C269.081 423.788 270.58 424.77 271.683 426.124L270.016 428.401C269.164 427.316 268.02 426.492 266.716 426.024L265.815 429.518C267.775 430.634 269.926 431.929 269.194 434.931C268.653 437.164 266.727 438.715 263.652 438.369L263.078 440.702L261.197 440.244L261.76 438.012C260.407 437.588 259.191 436.818 258.234 435.78L259.823 433.436C260.554 434.21 261.445 434.82 262.436 435.221L263.314 431.65C261.354 430.6 259.248 429.272 259.935 426.314C260.532 424.138 262.436 422.597 265.488 422.91ZM263.089 426.805C262.909 427.542 263.359 428.067 264.091 428.58L264.812 425.689C264.437 425.635 264.055 425.718 263.737 425.924C263.42 426.129 263.189 426.443 263.089 426.805ZM265.094 432.643L264.362 435.623C264.757 435.668 265.154 435.569 265.482 435.346C265.809 435.122 266.043 434.788 266.141 434.407C266.322 433.67 265.815 433.134 265.094 432.643Z" fill="#438EEB"/>
<path d="M224.85 147.63C217.653 147.809 204.429 147.53 191.927 141.848C176.44 134.805 169.738 124.703 169.738 124.703L166.359 162.308C175.37 183.36 211.176 184.811 227.868 185.202C223.453 166.985 222.304 158.424 224.85 147.63Z" fill="#438EEB"/>
<g opacity="0.2">
<path d="M219.179 171.077C221.912 164.405 218.381 156.684 211.292 153.832C204.203 150.979 196.24 154.075 193.507 160.746C190.773 167.417 194.304 175.138 201.393 177.991C208.483 180.843 216.445 177.748 219.179 171.077Z" fill="white"/>
</g>
<path d="M204.598 159.228V157.196H206.232V159.183C207.707 159.222 209.134 159.709 210.32 160.578L209.453 162.811C208.533 162.1 207.427 161.666 206.265 161.56V164.585C208.079 165.054 210.117 165.702 210.151 168.302C210.151 170.222 208.935 171.885 206.367 172.254V174.263H204.734V172.287C203.528 172.214 202.363 171.829 201.355 171.171L202.143 168.939C202.905 169.416 203.762 169.724 204.655 169.843V166.762C202.841 166.315 200.836 165.646 200.803 163.101C200.825 161.259 202.042 159.607 204.598 159.228ZM203.472 162.9C203.472 163.536 203.956 163.871 204.666 164.139V161.627C203.866 161.839 203.472 162.319 203.472 162.9ZM206.344 167.208V169.776C206.674 169.732 206.976 169.571 207.193 169.322C207.411 169.073 207.53 168.754 207.527 168.425C207.561 167.822 207.065 167.476 206.344 167.208Z" fill="#438EEB"/>
<g opacity="0.2">
<path d="M226.877 180.949C218.541 181.226 210.197 180.737 201.952 179.487C188.807 177.745 180.698 173.325 176.204 169.921C175.033 169.039 173.923 168.081 172.881 167.052C173.393 165.449 173.401 163.729 172.902 162.122C172.403 160.514 171.421 159.096 170.088 158.056L171.664 138.6C172.487 139.024 173.805 139.192 175.257 137.339C184.268 145.587 197.998 149.07 206.232 150.465C212.144 151.257 218.107 151.63 224.073 151.581L224.422 149.606C218.477 149.681 212.535 149.345 206.637 148.601C197.086 146.972 179.909 142.496 172.194 130.831L170.707 128.599L167.88 163.469L168.004 163.704C168.297 164.284 175.652 177.801 201.794 181.262C210.196 182.534 218.697 183.042 227.193 182.78L226.877 180.949Z" fill="white"/>
</g>
</svg>
