<svg width="530" height="514" viewBox="0 0 530 514" fill="none" xmlns="http://www.w3.org/2000/svg">
<path d="M518.511 62.4516L405.806 32.0898C405.373 31.9704 404.913 32.0265 404.519 32.2466C404.126 32.4666 403.83 32.8337 403.692 33.2721L381.38 110.264C381.315 110.498 381.295 110.743 381.324 110.984C381.352 111.226 381.428 111.459 381.546 111.67C381.664 111.881 381.822 112.065 382.01 112.211C382.199 112.358 382.415 112.464 382.644 112.522L499.738 141.998C499.962 142.056 500.194 142.067 500.422 142.032C500.65 141.997 500.868 141.915 501.065 141.792C501.262 141.668 501.433 141.506 501.568 141.314C501.703 141.122 501.8 140.904 501.852 140.673L519.74 64.5916C519.843 64.1406 519.772 63.6663 519.543 63.2676C519.314 62.8688 518.944 62.5765 518.511 62.4516Z" fill="#EBEBEB"/>
<path d="M520.142 62.9007L476.485 2.70925C475.583 1.461 474.289 0.573525 472.822 0.198331C471.355 -0.176862 469.807 -0.0165064 468.443 0.652027L404.105 31.6404" fill="#EBEBEB"/>
<path d="M513.192 65.8094L519.798 39.8222L417.111 12.9719L410.286 39.6685L450.819 94.2558L513.192 65.8094Z" fill="#FAFAFA"/>
<path d="M513.192 65.774L512.043 66.2824L508.723 67.784L496.085 73.5182L450.727 94.1495H450.842L410.321 39.5504V39.6449C411.286 35.8615 412.32 31.8299 413.354 27.8218C414.641 22.8088 415.904 17.8431 417.145 13.0075L417.019 13.0902L519.786 39.8814V39.8105C517.718 48.0157 516.076 54.5184 514.95 58.9639C514.387 61.1867 513.962 62.8892 513.674 64.0479C513.525 64.6272 513.422 65.0646 513.341 65.3602L513.238 65.8095C513.238 65.8095 513.238 65.6676 513.353 65.372L513.697 64.0715C513.996 62.8892 514.433 61.2103 515.007 58.9994C516.156 54.5539 517.799 48.0512 519.901 39.8341L417.214 12.9365H417.122V13.0429C415.893 17.8786 414.618 22.8325 413.342 27.8455C412.297 31.9126 411.274 35.9443 410.309 39.6686L450.727 94.315H450.796L496.154 73.6364L508.792 67.8549L512.1 66.3415L513.192 65.774Z" fill="#E0E0E0"/>
<path d="M438.951 36.5707C438.951 36.5707 450.44 39.7866 464.651 43.6645C478.863 47.5425 490.386 50.5811 490.398 50.5219C490.409 50.4628 478.909 47.3061 464.709 43.4281C450.509 39.5501 438.974 36.5116 438.951 36.5707Z" fill="#E0E0E0"/>
<path d="M426.968 46.3833C426.968 46.4424 442.49 50.6515 461.653 55.8418C480.816 61.0322 496.361 65.0993 496.384 65.0402C496.407 64.9811 480.874 60.7721 461.699 55.5817C442.524 50.3914 426.991 46.3242 426.968 46.3833Z" fill="#E0E0E0"/>
<path d="M423.969 58.55C423.969 58.55 438.767 62.629 457.046 67.5237C475.325 72.4185 490.168 76.4147 490.191 76.2965C490.214 76.1782 475.394 72.2175 457.103 67.3227C438.813 62.428 423.981 58.4909 423.969 58.55Z" fill="#E0E0E0"/>
<path d="M434.344 72.6194H434.447L434.746 72.7021L435.895 73.045L440.169 74.2273L454.334 78.1881C459.849 79.7251 464.858 81.0729 468.489 82.0306L472.786 83.2129L473.934 83.5085L474.245 83.5794H474.348C474.348 83.5794 474.348 83.5794 474.245 83.5794L473.946 83.4966L472.797 83.1656L468.512 81.9833L454.369 78.0698C448.854 76.5328 443.845 75.185 440.226 74.2273L435.918 73.1041L434.769 72.8085L434.47 72.7376L434.344 72.6194Z" fill="#E0E0E0"/>
<path d="M444.914 86.3104C444.914 86.3104 448.211 87.2798 452.301 88.3555C456.391 89.4313 459.723 90.247 459.734 90.1879C459.746 90.1288 456.448 89.2185 452.347 88.1427C448.245 87.067 444.925 86.2513 444.914 86.3104Z" fill="#E0E0E0"/>
<path d="M381.633 111.884C381.751 111.896 381.871 111.896 381.989 111.884L383.012 111.635L386.964 110.619L401.451 106.776L422.912 100.995L435.55 97.554L442.26 95.7333L443.96 95.2722C444.534 95.1185 445.109 94.9529 445.672 94.8229C446.806 94.5907 447.969 94.5388 449.119 94.6692C451.438 94.9426 453.614 95.9649 455.334 97.5895L460.401 102.425L469.879 111.73L485.963 127.466L496.843 138.036L499.819 140.886L500.611 141.619L500.887 141.855C500.887 141.855 500.818 141.749 500.657 141.571L499.911 140.791L497.015 137.894L486.273 127.183L470.258 111.34L460.803 102L455.782 97.0693C453.967 95.3531 451.671 94.2727 449.222 93.9834C448 93.8362 446.762 93.8921 445.557 94.149C444.948 94.2908 444.408 94.4445 443.811 94.5982L442.11 95.0712C439.813 95.686 437.756 96.9156 435.562 97.5067C431.173 98.689 426.784 99.2684 422.752 100.368L401.313 106.279L386.883 110.311L382.966 111.493L381.943 111.801C381.736 111.884 381.622 111.884 381.633 111.884Z" fill="#E0E0E0"/>
<path d="M483.562 251.16C479.774 250.149 476.357 248.017 473.733 245.029C471.11 242.042 469.394 238.328 468.799 234.348C466.972 223.127 473.762 212.605 483.987 210.82C494.212 209.034 503.966 216.731 505.816 227.916C506.53 231.91 506.079 236.033 504.519 239.764C502.958 243.494 500.36 246.666 497.05 248.878C526.232 248.488 530 280.576 530 280.576L462.675 292.281C462.675 292.281 456.023 260.323 483.562 251.16Z" fill="#EBEBEB"/>
<path d="M53.6257 2.72313L165.68 47.0806L136.629 124.799L24.5753 80.4417L53.6257 2.72313Z" fill="#EBEBEB"/>
<path d="M52.9262 3.51306C53.0921 4.02099 53.3118 4.50865 53.581 4.9673L55.649 9.02263L63.4384 23.8134L89.5526 72.5601L89.7709 72.9621L90.196 72.8202L91.2299 72.4773L143.447 55.2983L159.232 49.9779L163.506 48.4646C164.012 48.3124 164.504 48.1146 164.977 47.8734C164.454 47.9517 163.938 48.0784 163.437 48.2517L159.095 49.5523L143.205 54.5416L90.8968 71.4132L89.8628 71.7443L90.5061 72.0162L64.0818 23.4232L56.0396 8.798C55.109 7.15458 54.3623 5.84222 53.7419 4.84907C53.5025 4.38358 53.2298 3.93701 52.9262 3.51306Z" fill="#E0E0E0"/>
<path d="M135.933 125.599C136.209 125.493 131.774 111.506 126.007 94.3505C120.239 77.1951 115.333 63.3739 115.046 63.4685C114.759 63.5631 119.205 77.5617 124.973 94.717C130.74 111.872 135.634 125.694 135.933 125.599Z" fill="#E0E0E0"/>
<path d="M78.1555 47.7551C78.0062 47.4949 65.7246 54.7662 50.7317 64.0118C35.7387 73.2575 23.7099 80.9662 23.8708 81.2381C24.0316 81.5101 36.3017 74.227 51.2946 64.9813C66.2875 55.7357 78.3164 48.0388 78.1555 47.7551Z" fill="#E0E0E0"/>
<path d="M85.0359 180.33L91.2056 234.296L13.3998 243.717L7.23013 189.75L85.0359 180.33Z" fill="#EBEBEB"/>
<path d="M7.02814 190.46C7.27921 190.696 7.55248 190.906 7.84388 191.087L10.2335 192.777L19.0914 198.89L48.6178 218.871L48.859 219.036L49.0658 218.824L49.5598 218.303L74.64 192.056C77.7879 188.722 80.3844 185.991 82.1766 184.04L84.2102 181.841C84.4546 181.593 84.6775 181.324 84.8765 181.037C84.5984 181.243 84.3406 181.477 84.1068 181.734L81.9814 183.839L74.2838 191.689L49.0084 217.795L48.5144 218.303H48.9624L19.3672 198.511L10.3829 192.6L7.91281 191.027C7.63791 190.807 7.34141 190.617 7.02814 190.46Z" fill="#E0E0E0"/>
<path d="M91 234.998C91.1379 234.856 84.4399 228.164 76.0646 220.065C67.6892 211.966 60.7499 205.511 60.6121 205.653C60.4742 205.795 67.1722 212.487 75.5475 220.597C83.9229 228.708 90.8737 235.152 91 234.998Z" fill="#E0E0E0"/>
<path d="M34.6702 208.112C34.4979 208.006 29.5577 216.058 23.6295 226.084C17.7012 236.11 13.0023 244.303 13.2091 244.421C13.4159 244.539 18.3101 236.488 24.2384 226.462C30.1666 216.436 34.8311 208.219 34.6702 208.112Z" fill="#E0E0E0"/>
<path d="M30.5918 401.16C24.7555 398.062 17.8966 397.613 11.4284 398.795C7.98178 399.386 4.32833 400.462 1.96164 403.146C-0.405064 405.83 -0.853161 410.559 1.8582 412.877C3.47813 414.248 5.72996 414.461 7.83241 414.425C12.899 414.366 18.517 413.456 22.5611 416.589C24.8589 418.374 26.4099 421.318 29.1672 422.229C30.5486 422.558 31.9966 422.415 33.2921 421.822C34.5877 421.229 35.6603 420.218 36.3477 418.942C37.6653 416.332 37.9573 413.301 37.1634 410.476C36.8414 408.507 36.0805 406.641 34.9404 405.024C33.8002 403.408 32.3118 402.085 30.5918 401.16Z" fill="#EBEBEB"/>
<path d="M43.9416 374.629C40.38 379.867 33.4523 378.176 30.2354 374.936C27.0185 371.697 25.6399 367.11 24.4336 362.688C21.6073 352.591 18.7695 341.997 20.8605 331.723C21.3686 328.603 22.7 325.687 24.7093 323.293C25.7275 322.119 27.0272 321.24 28.4787 320.744C29.9302 320.248 31.4827 320.153 32.9813 320.467C36.4279 321.413 38.6452 324.936 40.2192 328.282C44.8406 338.171 47.2622 348.996 47.3078 359.968C47.3078 365.064 46.7334 370.42 43.9416 374.629Z" fill="#EBEBEB"/>
<path d="M53.7302 382.148C49.8585 377.419 49.1347 370.526 50.8465 364.615C52.5584 358.703 56.4531 353.655 60.9452 349.54C66.2168 344.706 72.3559 340.979 79.0171 338.568C81.5966 337.494 84.3714 337.006 87.1513 337.138C88.5384 337.22 89.8847 337.652 91.0724 338.394C92.2601 339.136 93.253 340.166 93.9641 341.394C95.8713 345.118 94.0445 349.67 92.0799 353.347C88.5991 359.872 84.6272 366.106 80.2005 371.992C76.639 376.722 72.5719 381.368 67.1492 383.496C61.7265 385.624 56.0854 385.353 53.2132 381.451" fill="#EBEBEB"/>
<path d="M44.1829 453.655C43.9972 452.88 43.8893 452.088 43.8612 451.29C43.7004 449.564 43.4936 447.389 43.2408 444.799C42.9307 441.6 42.459 438.419 41.8277 435.27C41.0019 431.435 39.8762 427.675 38.4615 424.026C37.0777 420.378 35.1977 416.951 32.8779 413.846C30.9926 411.321 28.5825 409.26 25.8237 407.817C23.9559 406.858 21.9503 406.216 19.884 405.913C19.1089 405.878 18.3391 405.763 17.5862 405.57C18.3497 405.482 19.1205 405.482 19.884 405.57C22.0287 405.731 24.1271 406.292 26.0765 407.226C28.984 408.632 31.533 410.717 33.5212 413.314C35.9234 416.464 37.8592 419.962 39.2657 423.695C40.701 427.395 41.8197 431.216 42.6089 435.116C43.2088 438.304 43.6193 441.525 43.8382 444.764C44.0335 447.531 44.1139 449.765 44.1484 451.302C44.2415 452.083 44.2531 452.872 44.1829 453.655Z" fill="#E0E0E0"/>
<path d="M43.7466 448.653C43.68 448.287 43.6606 447.913 43.6891 447.542V444.385C43.6891 441.642 43.6891 437.682 43.5627 432.787C43.3215 422.985 42.5058 412.439 40.9203 397.578C39.4153 383.603 37.4047 367.334 35.2793 356.764C34.8312 354.4 34.3717 352.2 33.9351 350.297C33.4985 348.393 33.1768 346.75 32.7862 345.438C32.3956 344.125 32.2577 343.179 32.0739 342.364C31.97 342.01 31.9082 341.645 31.8901 341.276C32.0422 341.611 32.1652 341.959 32.2577 342.316C32.4875 343.108 32.7862 344.113 33.1539 345.343C33.5215 346.573 33.9466 348.275 34.4176 350.167C34.8887 352.059 35.4401 354.258 35.9801 356.622C38.608 369.116 40.5831 381.745 41.8969 394.456C43.4938 409.353 44.1946 422.915 44.2636 432.74C44.321 437.646 44.2636 441.619 44.1027 444.362C44.0223 445.65 43.9648 446.726 43.9074 447.518C43.9032 447.902 43.8492 448.284 43.7466 448.653Z" fill="#E0E0E0"/>
<path d="M43.6891 422.489C43.6013 421.391 43.6013 420.288 43.6891 419.19C43.8676 416.196 44.1935 413.212 44.6656 410.252C45.3698 405.866 46.3133 401.524 47.4919 397.246C48.8669 391.991 50.6338 386.852 52.7768 381.876C56.454 372.675 61.7205 364.235 68.3211 356.965C69.4663 355.724 70.6865 354.559 71.9746 353.477C72.5375 352.981 73.0316 352.496 73.5371 352.106L74.9617 351.101C75.8146 350.437 76.7174 349.844 77.6616 349.327C77.8109 349.54 73.8358 351.952 68.8152 357.45C62.4249 364.776 57.2997 373.173 53.6614 382.278C51.5557 387.238 49.7748 392.338 48.3306 397.542C46.9519 402.33 46.0328 406.729 45.332 410.441C44.6312 414.154 44.2865 417.18 44.0567 419.285C44.0058 420.36 43.8829 421.431 43.6891 422.489Z" fill="#E0E0E0"/>
<path d="M68.2521 468.634L65.7016 504.541H20.8836L18.3331 468.634H68.2521Z" fill="#E0E0E0"/>
<path d="M12.9909 454.482H72.5835V468.634H12.9909V454.482Z" fill="#E0E0E0"/>
<path d="M72.5835 503.17V507.095H69.7803H13.9675V503.17H72.5835Z" fill="#EBEBEB"/>
<path d="M67.0343 514L69.7802 507.095H16.1043L19.3097 514H67.0343Z" fill="#E0E0E0"/>
<path d="M19.1603 480.375C19.2235 480.491 19.2965 480.602 19.3786 480.706L20.045 481.616L22.6529 485.057L22.7678 485.21L22.8827 485.045C24.5256 482.68 26.72 479.594 29.2935 475.917H28.9258L35.2447 485.116L35.44 485.411L35.6698 485.139C37.9675 482.278 40.5295 479.228 43.1605 475.965H42.7239L43.1375 476.508L49.8355 485.139L50.0538 485.435L50.2606 485.128L56.5794 475.929H56.2118L64.0013 485.057L64.1391 485.21L64.2425 485.033L66.6781 480.812L67.2985 479.701C67.3759 479.573 67.4413 479.439 67.4938 479.299C67.4938 479.299 67.3905 479.405 67.2296 479.653L66.5403 480.729L63.9783 484.867H64.231L56.568 475.634L56.3727 475.397L56.2003 475.657L49.824 484.808H50.2491L43.5741 476.154L43.1605 475.622L42.9422 475.35L42.7239 475.622L35.2562 484.808H35.6812L29.2935 475.657L29.1096 475.385L28.9258 475.657L22.6529 484.891H22.8827L20.1599 481.545L19.4361 480.67C19.2637 480.457 19.1718 480.363 19.1603 480.375Z" fill="#F5F5F5"/>
<path d="M17.7127 468.398C17.7127 468.552 28.9373 468.682 42.7928 468.682C56.6484 468.682 67.873 468.552 67.873 468.398C67.873 468.244 56.6484 468.114 42.7928 468.114C28.9373 468.114 17.7127 468.244 17.7127 468.398Z" fill="#F5F5F5"/>
<path d="M15.4381 507.474C15.4381 507.639 27.6507 507.77 42.7011 507.77C57.7515 507.77 69.9641 507.639 69.9641 507.474C69.9641 507.308 57.763 507.19 42.7011 507.19C27.6393 507.19 15.4381 507.32 15.4381 507.474Z" fill="#F5F5F5"/>
<path d="M219.48 512.415L398.706 512.51C405.636 512.513 412.283 509.684 417.187 504.644C422.09 499.605 424.848 492.768 424.854 485.636L425.061 70.1601C425.064 66.1347 424.296 62.1481 422.802 58.428C421.307 54.708 419.115 51.3274 416.351 48.4793C413.587 45.6313 410.304 43.3716 406.691 41.8293C403.078 40.2871 399.205 39.4925 395.293 39.4909L219.376 39.3964C212.368 39.3964 205.647 42.2613 200.691 47.3611C195.736 52.4608 192.952 59.3774 192.952 66.5895L192.734 484.915C192.74 492.211 195.56 499.206 200.575 504.362C205.591 509.519 212.39 512.415 219.48 512.415Z" fill="#455A64"/>
<path d="M421.212 476.036L421.419 75.9536C421.404 67.2925 418.051 58.9914 412.095 52.8716C406.14 46.7518 398.069 43.313 389.652 43.3099L228.418 43.2153C224.244 43.2122 220.11 44.0554 216.253 45.6968C212.395 47.3381 208.89 49.7454 205.937 52.7812C202.984 55.817 200.641 59.4218 199.041 63.3896C197.442 67.3575 196.618 71.6107 196.617 75.9063L196.41 475.989C196.407 480.284 197.227 484.538 198.821 488.508C200.416 492.478 202.756 496.085 205.706 499.124C208.656 502.163 212.158 504.574 216.014 506.22C219.87 507.866 224.003 508.714 228.177 508.715L389.411 508.81C393.592 508.811 397.731 507.964 401.593 506.317C405.455 504.67 408.964 502.255 411.918 499.211C414.871 496.167 417.213 492.553 418.808 488.576C420.403 484.599 421.22 480.338 421.212 476.036Z" fill="#263238"/>
<path d="M325.694 58.124C326.38 58.124 327.037 57.8437 327.522 57.3449C328.007 56.8461 328.279 56.1695 328.279 55.4641C328.279 54.7587 328.007 54.0821 327.522 53.5833C327.037 53.0845 326.38 52.8043 325.694 52.8043H292.503C292.15 52.78 291.795 52.8306 291.462 52.953C291.129 53.0754 290.823 53.2669 290.565 53.5157C290.306 53.7646 290.1 54.0654 289.959 54.3995C289.818 54.7336 289.746 55.094 289.746 55.4582C289.746 55.8224 289.818 56.1828 289.959 56.5169C290.1 56.851 290.306 57.1518 290.565 57.4006C290.823 57.6495 291.129 57.841 291.462 57.9634C291.795 58.0858 292.15 58.1364 292.503 58.1121L325.694 58.124Z" fill="#455A64"/>
<path d="M343.49 58.1354C344.002 58.1377 344.503 57.9837 344.93 57.6929C345.356 57.402 345.689 56.9874 345.887 56.5016C346.084 56.0158 346.137 55.4806 346.039 54.9639C345.94 54.4471 345.695 53.9721 345.334 53.5989C344.973 53.2257 344.512 52.9712 344.01 52.8677C343.509 52.7641 342.988 52.816 342.515 53.017C342.042 53.218 341.638 53.5589 341.353 53.9965C341.069 54.4342 340.917 54.9489 340.917 55.4755C340.917 56.1789 341.188 56.8537 341.67 57.3521C342.152 57.8506 342.807 58.1322 343.49 58.1354Z" fill="#455A64"/>
<path d="M333.989 58.1234C334.501 58.1257 335.002 57.9717 335.428 57.6809C335.855 57.39 336.188 56.9755 336.385 56.4896C336.583 56.0038 336.636 55.4687 336.537 54.9519C336.439 54.4352 336.193 53.9601 335.832 53.587C335.471 53.2138 335.011 52.9593 334.509 52.8557C334.007 52.7521 333.487 52.8041 333.014 53.005C332.541 53.206 332.137 53.5469 331.852 53.9846C331.567 54.4222 331.416 54.937 331.416 55.4635C331.416 56.1669 331.686 56.8417 332.169 57.3402C332.651 57.8387 333.305 58.1203 333.989 58.1234Z" fill="#455A64"/>
<path d="M274.557 58.0883C275.069 58.0883 275.569 57.932 275.995 57.6392C276.42 57.3464 276.751 56.9303 276.946 56.4435C277.142 55.9568 277.192 55.4214 277.092 54.9051C276.991 54.3889 276.744 53.9149 276.381 53.5434C276.018 53.1719 275.557 52.9195 275.054 52.8182C274.552 52.7169 274.032 52.7713 273.56 52.9744C273.088 53.1776 272.685 53.5203 272.402 53.9593C272.12 54.3983 271.97 54.9137 271.972 55.4402C271.972 55.789 272.039 56.1343 272.169 56.4563C272.299 56.7784 272.49 57.0708 272.73 57.3169C272.97 57.5629 273.255 57.7577 273.569 57.8901C273.882 58.0225 274.218 58.0898 274.557 58.0883Z" fill="#455A64"/>
<path d="M284.058 58.1C284.57 58.1 285.069 57.944 285.495 57.6517C285.92 57.3595 286.251 56.944 286.447 56.458C286.642 55.972 286.694 55.4372 286.594 54.9212C286.494 54.4053 286.248 53.9313 285.886 53.5593C285.525 53.1873 285.064 52.934 284.563 52.8314C284.061 52.7288 283.542 52.7814 283.069 52.9827C282.597 53.1841 282.193 53.525 281.909 53.9624C281.625 54.3998 281.473 54.9141 281.473 55.4401C281.472 55.7899 281.538 56.1365 281.667 56.4599C281.796 56.7833 281.987 57.0771 282.227 57.3244C282.468 57.5717 282.753 57.7676 283.067 57.9007C283.382 58.0338 283.719 58.1016 284.058 58.1Z" fill="#455A64"/>
<path d="M226.695 48.6421H257.944C259.418 48.6415 260.852 49.1317 262.033 50.0396C263.213 50.9475 264.076 52.2242 264.493 53.6788L267.043 62.688C267.504 64.3174 268.467 65.7486 269.787 66.7658C271.107 67.783 272.713 68.3312 274.362 68.3276H343.594C345.242 68.3287 346.846 67.7813 348.167 66.767C349.488 65.7527 350.455 64.326 350.923 62.6998L353.485 53.6906C353.901 52.2362 354.764 50.96 355.945 50.0538C357.126 49.1476 358.561 48.6605 360.034 48.6658H391.307C397.889 48.6532 404.207 51.3314 408.872 56.1115C413.536 60.8916 416.165 67.3822 416.18 74.1564L415.973 476.875C415.963 480.229 415.31 483.548 414.054 486.642C412.797 489.736 410.96 492.546 408.648 494.909C406.336 497.273 403.595 499.145 400.58 500.418C397.565 501.692 394.336 502.341 391.077 502.331L226.499 502.248C219.917 502.26 213.599 499.582 208.934 494.802C204.27 490.022 201.641 483.531 201.626 476.757L201.833 74.05C201.866 67.2913 204.502 60.8218 209.162 56.0593C213.822 51.2967 220.127 48.6295 226.695 48.6421Z" fill="#FAFAFA"/>
<path d="M192.929 142.186C192.525 142.189 192.138 142.356 191.852 142.65C191.566 142.944 191.404 143.343 191.401 143.759V194.988C191.401 195.403 191.56 195.801 191.844 196.096C192.128 196.391 192.514 196.558 192.918 196.561L192.929 142.186Z" fill="#455A64"/>
<path d="M425.026 175.823C425.444 175.823 425.844 175.994 426.139 176.298C426.435 176.601 426.601 177.013 426.601 177.443V208.621C426.597 209.051 426.429 209.463 426.132 209.767C425.835 210.07 425.433 210.24 425.015 210.24L425.026 175.823Z" fill="#455A64"/>
<path d="M425.049 130.801C425.257 130.801 425.462 130.844 425.654 130.926C425.846 131.008 426.02 131.128 426.166 131.28C426.313 131.432 426.429 131.611 426.507 131.809C426.585 132.007 426.625 132.219 426.623 132.433V163.599C426.62 164.03 426.452 164.444 426.156 164.749C425.859 165.054 425.457 165.227 425.037 165.23L425.049 130.801Z" fill="#455A64"/>
<path d="M425.061 97.0933C425.423 97.0933 425.771 97.2415 426.028 97.5053C426.284 97.7692 426.428 98.1271 426.428 98.5002V111.707C426.428 111.891 426.393 112.073 426.324 112.243C426.255 112.413 426.154 112.568 426.027 112.697C425.9 112.827 425.749 112.93 425.583 112.999C425.417 113.068 425.24 113.103 425.061 113.102V97.0933Z" fill="#455A64"/>
<path d="M252.291 61.7542H253.889V64.0594H252.291V61.7542Z" fill="white"/>
<path d="M249.695 60.7251H251.292V64.047H249.695V60.7251Z" fill="white"/>
<path d="M247.098 59.9565H248.696V64.0468H247.098V59.9565Z" fill="white"/>
<path d="M244.502 58.4673H246.099V64.0471H244.502V58.4673Z" fill="white"/>
<path d="M220.95 64.1535H228.993C229.067 64.1551 229.142 64.1413 229.211 64.1129C229.281 64.0845 229.345 64.0421 229.398 63.9881C229.452 63.9342 229.494 63.8698 229.523 63.7987C229.552 63.7277 229.567 63.6513 229.567 63.5743V59.4722C229.567 59.3174 229.508 59.1689 229.403 59.0584C229.298 58.9478 229.154 58.8842 229.004 58.8811H220.962C220.923 58.8839 220.887 58.9009 220.859 58.9292C220.832 58.9574 220.815 58.9949 220.812 59.0348V60.3824H219.951C219.932 60.3824 219.913 60.3864 219.895 60.3943C219.878 60.4021 219.862 60.4136 219.849 60.4281C219.836 60.4425 219.826 60.4596 219.82 60.4782C219.814 60.4968 219.811 60.5165 219.813 60.5361V62.4985C219.813 62.5393 219.829 62.5784 219.857 62.6072C219.885 62.636 219.923 62.6522 219.962 62.6522H220.824V63.9999C220.822 64.0185 220.824 64.0373 220.83 64.0551C220.835 64.0729 220.844 64.0895 220.856 64.1038C220.868 64.118 220.882 64.1298 220.898 64.1383C220.915 64.1469 220.932 64.152 220.95 64.1535ZM221.1 59.1766H228.993C229.066 59.1766 229.136 59.2065 229.187 59.2597C229.239 59.313 229.268 59.3851 229.268 59.4604V63.5624C229.268 63.6377 229.239 63.7099 229.187 63.7631C229.136 63.8163 229.066 63.8462 228.993 63.8462H221.134V62.4985C221.134 62.4609 221.12 62.4248 221.094 62.3982C221.068 62.3716 221.033 62.3567 220.996 62.3567H220.135V60.678H220.95C220.987 60.678 221.022 60.663 221.048 60.6364C221.074 60.6098 221.088 60.5738 221.088 60.5361L221.1 59.1766Z" fill="white"/>
<path d="M228.602 63.1843V59.8624L221.766 59.8506V61.3519V61.6829V63.1843H228.602Z" fill="white"/>
<path d="M236.873 63.8466C236.873 63.7273 236.908 63.6108 236.972 63.5116C237.037 63.4125 237.128 63.3352 237.235 63.2895C237.342 63.2439 237.46 63.232 237.574 63.2552C237.688 63.2785 237.792 63.3359 237.874 63.4202C237.956 63.5046 238.012 63.612 238.034 63.7289C238.057 63.8459 238.045 63.9671 238.001 64.0773C237.957 64.1874 237.882 64.2816 237.785 64.3479C237.689 64.4141 237.575 64.4495 237.46 64.4495C237.304 64.4495 237.155 64.3859 237.045 64.2729C236.935 64.1598 236.873 64.0065 236.873 63.8466Z" fill="white"/>
<path d="M239.459 62.4042L238.712 63.1608C238.379 62.8215 237.929 62.6312 237.46 62.6312C236.991 62.6312 236.541 62.8215 236.207 63.1608L235.461 62.3924C235.992 61.8493 236.711 61.5435 237.46 61.5413C237.832 61.542 238.2 61.6187 238.543 61.7668C238.886 61.9149 239.198 62.1316 239.459 62.4042Z" fill="white"/>
<path d="M237.46 59.8621C238.648 59.8632 239.788 60.3476 240.631 61.2097L239.884 61.9782C239.239 61.3212 238.367 60.9527 237.46 60.9527C236.552 60.9527 235.681 61.3212 235.035 61.9782L234.289 61.2097C234.705 60.7807 235.199 60.4408 235.743 60.2095C236.287 59.9781 236.871 59.8601 237.46 59.8621Z" fill="white"/>
<path d="M241.848 59.9447L241.102 60.7132C240.626 60.2167 240.059 59.823 239.433 59.5551C238.808 59.2871 238.137 59.1503 237.46 59.1527C236.095 59.1539 234.785 59.7106 233.818 60.7013L233.071 59.9329C233.647 59.3396 234.331 58.8689 235.084 58.5477C235.837 58.2266 236.644 58.0613 237.46 58.0613C238.275 58.0613 239.082 58.2266 239.835 58.5477C240.588 58.8689 241.272 59.3396 241.848 59.9329V59.9447Z" fill="white"/>
<path d="M372.063 161.186C372.088 164.2 372.981 167.139 374.629 169.631C376.277 172.122 378.606 174.055 381.321 175.185C384.037 176.315 387.017 176.59 389.885 175.977C392.752 175.364 395.379 173.889 397.432 171.74C399.485 169.59 400.873 166.862 401.42 163.901C401.967 160.94 401.648 157.879 400.505 155.104C399.361 152.329 397.443 149.966 394.994 148.313C392.545 146.659 389.674 145.791 386.746 145.816C384.801 145.833 382.878 146.244 381.088 147.026C379.298 147.808 377.674 148.944 376.311 150.372C374.947 151.799 373.871 153.489 373.142 155.344C372.413 157.2 372.046 159.185 372.063 161.186Z" fill="#438EEB"/>
<path d="M298.04 149.446C298.04 149.612 311.827 149.636 328.716 149.446C345.604 149.257 359.402 149.056 359.402 148.878C359.402 148.701 345.616 148.689 328.716 148.878C311.816 149.068 298.029 149.281 298.04 149.446Z" fill="#263238"/>
<path d="M247.961 163.906C247.961 164.071 273.006 164 303.9 163.74C334.793 163.48 359.839 163.125 359.839 162.96C359.839 162.794 334.793 162.865 303.888 163.125C272.983 163.385 247.961 163.728 247.961 163.906Z" fill="#E0E0E0"/>
<path d="M248.052 175.268C248.052 175.433 273.098 175.363 303.992 175.102C334.885 174.842 359.965 174.547 359.965 174.322C359.965 174.098 334.931 174.228 304.026 174.488C273.121 174.748 248.052 175.091 248.052 175.268Z" fill="#E0E0E0"/>
<path d="M215.034 147.259C215.034 147.437 220.456 147.519 227.131 147.472C233.806 147.425 239.218 147.224 239.218 147.058C239.218 146.892 233.806 146.798 227.12 146.857C220.433 146.916 215.034 147.093 215.034 147.259Z" fill="#263238"/>
<path d="M224.397 163.113L223.397 165.241C223.314 165.424 223.189 165.583 223.033 165.704C222.877 165.826 222.694 165.906 222.501 165.939L220.204 166.294C219.968 166.304 219.742 166.388 219.554 166.535C219.367 166.682 219.228 166.885 219.157 167.116C219.086 167.347 219.085 167.595 219.155 167.827C219.225 168.058 219.362 168.262 219.549 168.41L221.215 170.053C221.355 170.194 221.46 170.368 221.522 170.559C221.584 170.75 221.601 170.954 221.571 171.153L221.192 173.518C221.157 173.747 221.185 173.981 221.273 174.195C221.361 174.409 221.504 174.593 221.687 174.728C221.871 174.863 222.087 174.943 222.312 174.959C222.537 174.974 222.761 174.926 222.961 174.818L224.983 173.695C225.16 173.598 225.357 173.547 225.557 173.547C225.758 173.547 225.955 173.598 226.132 173.695L228.177 174.783C228.374 174.917 228.606 174.985 228.842 174.979C229.077 174.972 229.306 174.891 229.495 174.746C229.685 174.602 229.826 174.4 229.901 174.17C229.975 173.94 229.979 173.691 229.912 173.458L229.509 171.094C229.469 170.897 229.479 170.692 229.537 170.5C229.595 170.307 229.701 170.133 229.843 169.994L231.474 168.327C231.635 168.164 231.749 167.958 231.802 167.731C231.854 167.505 231.844 167.268 231.772 167.047C231.7 166.827 231.57 166.631 231.395 166.483C231.22 166.335 231.009 166.241 230.785 166.211L228.487 165.892C228.292 165.868 228.107 165.794 227.948 165.676C227.789 165.558 227.662 165.4 227.579 165.218L226.545 163.113C226.441 162.913 226.287 162.746 226.097 162.629C225.908 162.512 225.692 162.45 225.471 162.45C225.251 162.45 225.034 162.512 224.845 162.629C224.656 162.746 224.501 162.913 224.397 163.113Z" fill="#438EEB"/>
<path d="M281.657 148.76C281.662 149.326 281.829 149.878 282.139 150.345C282.448 150.813 282.885 151.176 283.395 151.388C283.905 151.601 284.464 151.652 285.002 151.537C285.541 151.422 286.034 151.146 286.42 150.742C286.805 150.339 287.066 149.827 287.169 149.271C287.272 148.715 287.212 148.141 286.997 147.62C286.783 147.099 286.423 146.655 285.963 146.345C285.503 146.034 284.965 145.871 284.415 145.876C284.05 145.879 283.689 145.956 283.352 146.102C283.016 146.249 282.711 146.462 282.455 146.73C282.199 146.998 281.997 147.315 281.86 147.663C281.723 148.012 281.654 148.384 281.657 148.76Z" fill="#438EEB"/>
<path d="M202.683 121.154C202.683 121.319 250.534 121.059 309.529 120.562C368.524 120.066 416.375 119.522 416.375 119.38C416.375 119.238 368.536 119.475 309.529 119.971C250.523 120.468 202.672 120.988 202.683 121.154Z" fill="#E0E0E0"/>
<path d="M203.303 199.919C203.303 200.096 251.166 199.824 310.15 199.328C369.133 198.831 416.996 198.288 416.996 198.146C416.996 198.004 369.145 198.24 310.15 198.737C251.154 199.233 203.303 199.753 203.303 199.919Z" fill="#E0E0E0"/>
<path d="M377.651 329.104C371.868 323.153 371.868 313.503 377.651 307.552C383.435 301.6 392.811 301.6 398.594 307.552C404.378 313.503 404.378 323.153 398.594 329.104C392.811 335.056 383.434 335.056 377.651 329.104Z" fill="#438EEB"/>
<path d="M299.293 306.718C299.293 306.883 313.022 306.907 329.968 306.718C346.914 306.528 360.655 306.327 360.655 306.15C360.655 305.972 346.868 305.96 329.968 306.15C313.068 306.339 299.281 306.552 299.293 306.718Z" fill="#263238"/>
<path d="M249.213 321.153C249.213 321.318 274.259 321.247 305.152 320.987C336.046 320.727 361.091 320.373 361.091 320.207C361.091 320.042 336.046 320.113 305.141 320.373C274.236 320.633 249.213 320.999 249.213 321.153Z" fill="#E0E0E0"/>
<path d="M249.305 332.538C249.305 332.704 274.35 332.633 305.244 332.373C336.137 332.113 361.183 331.758 361.172 331.592C361.16 331.427 336.137 331.498 305.232 331.758C274.327 332.018 249.305 332.361 249.305 332.538Z" fill="#E0E0E0"/>
<path d="M216.286 304.531C216.286 304.708 221.697 304.791 228.384 304.744C235.07 304.696 240.47 304.495 240.47 304.329C240.47 304.164 235.059 304.069 228.372 304.128C221.686 304.187 216.286 304.365 216.286 304.531Z" fill="#263238"/>
<path d="M225.661 320.385L224.661 322.513C224.578 322.696 224.453 322.854 224.297 322.976C224.141 323.097 223.958 323.178 223.765 323.211L221.467 323.565C221.232 323.576 221.005 323.66 220.818 323.807C220.631 323.954 220.492 324.157 220.421 324.388C220.349 324.619 220.349 324.867 220.419 325.098C220.489 325.33 220.626 325.533 220.812 325.682L222.478 327.325C222.619 327.466 222.724 327.639 222.786 327.83C222.848 328.022 222.865 328.225 222.834 328.425L222.455 330.789C222.421 331.019 222.449 331.253 222.537 331.467C222.624 331.681 222.768 331.865 222.951 332C223.135 332.135 223.351 332.214 223.576 332.23C223.8 332.246 224.025 332.198 224.225 332.09L226.247 330.908C226.423 330.81 226.621 330.759 226.821 330.759C227.021 330.759 227.219 330.81 227.396 330.908L229.441 331.995C229.637 332.129 229.869 332.198 230.105 332.191C230.341 332.185 230.569 332.104 230.759 331.959C230.948 331.814 231.09 331.613 231.165 331.383C231.239 331.152 231.243 330.904 231.175 330.671L230.762 328.306C230.723 328.108 230.734 327.903 230.795 327.71C230.855 327.518 230.962 327.345 231.106 327.207L232.738 325.54C232.899 325.377 233.013 325.17 233.065 324.944C233.118 324.718 233.108 324.481 233.036 324.26C232.964 324.039 232.833 323.844 232.659 323.696C232.484 323.548 232.273 323.454 232.049 323.424L229.751 323.104C229.556 323.081 229.371 323.007 229.212 322.889C229.053 322.771 228.926 322.613 228.843 322.43L227.809 320.326C227.7 320.128 227.541 319.965 227.349 319.853C227.156 319.742 226.938 319.686 226.718 319.692C226.497 319.698 226.282 319.766 226.096 319.888C225.91 320.01 225.759 320.182 225.661 320.385Z" fill="#438EEB"/>
<path d="M282.956 306.602C282.657 305.052 283.635 303.546 285.141 303.238C286.647 302.93 288.11 303.937 288.41 305.487C288.709 307.036 287.731 308.542 286.225 308.85C284.719 309.158 283.255 308.152 282.956 306.602Z" fill="#438EEB"/>
<path d="M203.935 278.424C203.935 278.59 251.786 278.33 310.782 277.833C369.777 277.337 417.628 276.793 417.628 276.651C417.628 276.509 369.788 276.746 310.782 277.242C251.775 277.739 203.924 278.259 203.935 278.424Z" fill="#E0E0E0"/>
<path d="M204.556 357.19C204.556 357.367 251.66 357.048 309.782 356.48C367.904 355.913 415.008 355.298 415.008 355.156C415.008 355.014 367.904 355.298 309.77 355.866C251.637 356.433 204.556 357.024 204.556 357.19Z" fill="#E0E0E0"/>
<path d="M374.498 468.02C374.523 471.033 375.416 473.971 377.064 476.463C378.711 478.954 381.039 480.887 383.754 482.017C386.469 483.147 389.448 483.424 392.316 482.811C395.183 482.199 397.81 480.726 399.864 478.577C401.917 476.429 403.306 473.702 403.854 470.742C404.402 467.782 404.086 464.721 402.943 461.946C401.801 459.171 399.885 456.806 397.438 455.152C394.99 453.497 392.121 452.626 389.193 452.65C385.264 452.684 381.509 454.322 378.754 457.204C375.998 460.087 374.468 463.977 374.498 468.02Z" fill="#E0E0E0"/>
<path d="M300.476 456.292C300.476 456.457 314.263 456.481 331.163 456.292C348.063 456.102 361.838 455.901 361.838 455.724C361.838 455.546 348.051 455.534 331.151 455.724C314.251 455.913 300.476 456.126 300.476 456.292Z" fill="#263238"/>
<path d="M250.408 470.751C250.408 470.916 275.453 470.845 306.335 470.585C337.217 470.325 362.274 469.971 362.274 469.805C362.274 469.64 337.229 469.711 306.335 469.971C275.442 470.231 250.408 470.573 250.408 470.751Z" fill="#E0E0E0"/>
<path d="M250.5 482.101C250.5 482.278 275.545 482.207 306.427 481.947C337.309 481.687 362.366 481.333 362.366 481.167C362.366 481.002 337.321 481.061 306.427 481.321C275.534 481.581 250.488 481.947 250.5 482.101Z" fill="#E0E0E0"/>
<path d="M217.504 454.104C217.504 454.27 222.915 454.364 229.59 454.305C236.265 454.246 241.688 454.069 241.688 453.903C241.688 453.737 236.265 453.643 229.59 453.69C222.915 453.737 217.504 453.938 217.504 454.104Z" fill="#263238"/>
<path d="M284.139 455.605C284.144 456.171 284.311 456.723 284.62 457.191C284.93 457.658 285.367 458.021 285.877 458.234C286.386 458.446 286.946 458.498 287.484 458.383C288.023 458.268 288.516 457.991 288.901 457.588C289.287 457.184 289.548 456.672 289.65 456.116C289.753 455.561 289.694 454.986 289.479 454.465C289.264 453.944 288.904 453.5 288.445 453.19C287.985 452.879 287.446 452.716 286.896 452.721C286.531 452.724 286.17 452.801 285.834 452.948C285.498 453.094 285.193 453.308 284.937 453.575C284.681 453.843 284.479 454.16 284.342 454.509C284.205 454.857 284.136 455.23 284.139 455.605Z" fill="#438EEB"/>
<path d="M202.118 199.937L415.171 198.139L415.799 276.902L202.745 278.7L202.118 199.937Z" fill="#F5F5F5"/>
<path d="M376.584 248.936C370.801 242.984 370.801 233.335 376.584 227.383C382.367 221.432 391.744 221.432 397.527 227.383C403.311 233.335 403.311 242.984 397.527 248.936C391.744 254.887 382.367 254.887 376.584 248.936Z" fill="#455A64"/>
<path d="M298.224 226.569C298.224 226.746 312.011 226.77 328.899 226.628C345.788 226.486 359.586 226.225 359.586 226.06C359.586 225.894 345.8 225.859 328.899 226.06C311.999 226.261 298.224 226.379 298.224 226.569Z" fill="#263238"/>
<path d="M248.144 241.004C248.144 241.182 273.19 241.099 304.084 240.839C334.977 240.579 360.023 240.236 360.023 240.059C360.023 239.881 334.977 239.964 304.084 240.224C273.19 240.484 248.144 240.839 248.144 241.004Z" fill="#E0E0E0"/>
<path d="M248.236 252.366C248.236 252.532 273.282 252.461 304.175 252.201C335.069 251.941 360.115 251.598 360.115 251.42C360.115 251.243 335.069 251.326 304.164 251.586C273.259 251.846 248.236 252.201 248.236 252.366Z" fill="#E0E0E0"/>
<path d="M215.206 224.37C215.206 224.535 220.629 224.63 227.304 224.571C231.336 224.642 235.37 224.504 239.39 224.157C239.39 223.991 233.979 223.896 227.292 223.956C223.259 223.885 219.225 224.023 215.206 224.37Z" fill="#263238"/>
<path d="M224.592 240.223C224.592 240.223 224.684 240.093 224.891 239.904C225.037 239.779 225.211 239.692 225.398 239.653C225.584 239.614 225.777 239.623 225.959 239.68C226.216 239.752 226.435 239.926 226.568 240.164C226.718 240.424 226.867 240.779 227.028 241.122L227.556 242.304C227.649 242.553 227.805 242.771 228.006 242.937C228.208 243.103 228.449 243.211 228.705 243.25L230.187 243.487L230.968 243.605C231.188 243.643 231.388 243.761 231.531 243.936C231.683 244.115 231.766 244.343 231.766 244.58C231.766 244.817 231.683 245.046 231.531 245.225L230.222 246.549L229.877 246.892C229.738 247.027 229.625 247.187 229.544 247.365C229.383 247.737 229.355 248.155 229.463 248.547C229.578 249.217 229.693 249.903 229.808 250.604C229.845 250.741 229.851 250.884 229.826 251.024C229.8 251.163 229.745 251.295 229.663 251.408C229.581 251.522 229.475 251.616 229.353 251.681C229.231 251.747 229.096 251.783 228.958 251.787C228.694 251.787 228.452 251.645 228.108 251.467L227.131 250.959C226.799 250.752 226.444 250.586 226.074 250.462C225.865 250.42 225.649 250.421 225.44 250.465C225.231 250.51 225.032 250.597 224.856 250.722L223.018 251.739C222.903 251.797 222.777 251.83 222.649 251.836C222.52 251.842 222.392 251.82 222.272 251.772C222.153 251.725 222.044 251.652 221.953 251.559C221.861 251.465 221.79 251.354 221.743 251.231C221.663 250.957 221.663 250.665 221.743 250.391C221.743 250.06 221.835 249.741 221.892 249.422L222.03 248.464C222.1 248.089 222.03 247.701 221.835 247.376C221.64 247.118 221.421 246.881 221.18 246.667L220.548 246.064L219.951 245.485C219.789 245.335 219.676 245.136 219.629 244.917C219.592 244.709 219.618 244.493 219.705 244.301C219.791 244.108 219.933 243.948 220.112 243.841C220.523 243.704 220.946 243.609 221.375 243.558L222.524 243.345C222.72 243.327 222.91 243.267 223.082 243.17C223.254 243.072 223.405 242.938 223.524 242.777C223.677 242.503 223.811 242.219 223.926 241.926C224.179 241.42 224.383 240.889 224.535 240.342C224.218 240.809 223.941 241.303 223.708 241.82C223.585 242.088 223.447 242.349 223.294 242.6C223.19 242.722 223.063 242.82 222.921 242.889C222.779 242.958 222.624 242.997 222.467 243.002L221.318 243.167C220.84 243.203 220.369 243.302 219.916 243.463C219.718 243.575 219.549 243.733 219.422 243.925C219.295 244.117 219.213 244.337 219.184 244.567C219.155 244.798 219.179 245.032 219.255 245.251C219.33 245.47 219.454 245.667 219.617 245.828L220.215 246.419L220.824 247.045C221.032 247.225 221.221 247.427 221.387 247.648C221.506 247.863 221.547 248.115 221.502 248.358C221.444 248.677 221.398 248.996 221.341 249.315C221.283 249.635 221.237 249.954 221.18 250.285C221.064 250.67 221.064 251.082 221.18 251.467C221.253 251.67 221.367 251.854 221.513 252.008C221.66 252.162 221.837 252.283 222.032 252.362C222.227 252.441 222.436 252.477 222.646 252.468C222.855 252.458 223.06 252.403 223.248 252.307L225.098 251.29C225.214 251.199 225.348 251.134 225.491 251.099C225.633 251.064 225.781 251.061 225.925 251.089C226.238 251.211 226.541 251.357 226.832 251.526L227.798 252.035L228.292 252.295C228.497 252.391 228.721 252.436 228.946 252.425C229.163 252.414 229.376 252.355 229.569 252.252C229.761 252.149 229.931 252.005 230.065 251.829C230.199 251.653 230.294 251.449 230.345 251.232C230.396 251.014 230.401 250.788 230.36 250.569C230.233 249.871 230.107 249.185 229.992 248.523C229.898 248.26 229.898 247.971 229.992 247.708C230.138 247.453 230.329 247.228 230.555 247.045L231.922 245.485C232.153 245.208 232.279 244.856 232.279 244.492C232.279 244.127 232.153 243.775 231.922 243.499C231.697 243.243 231.392 243.076 231.06 243.026L230.268 242.919L228.774 242.73C228.579 242.707 228.393 242.631 228.238 242.508C228.082 242.385 227.961 242.22 227.889 242.032L227.326 240.921C227.143 240.578 226.993 240.271 226.81 239.952C226.623 239.67 226.34 239.471 226.017 239.396C225.801 239.342 225.576 239.349 225.363 239.416C225.151 239.482 224.96 239.606 224.81 239.774C224.615 240.046 224.581 240.212 224.592 240.223Z" fill="#263238"/>
<path d="M281.841 225.871C281.846 226.436 282.013 226.988 282.322 227.456C282.632 227.924 283.069 228.287 283.579 228.499C284.088 228.711 284.648 228.763 285.186 228.648C285.725 228.533 286.218 228.256 286.603 227.853C286.989 227.45 287.25 226.938 287.353 226.382C287.455 225.826 287.396 225.251 287.181 224.73C286.966 224.209 286.607 223.766 286.147 223.455C285.687 223.145 285.148 222.982 284.598 222.986C283.862 222.996 283.159 223.304 282.642 223.844C282.126 224.384 281.838 225.113 281.841 225.871Z" fill="#438EEB"/>
<path d="M201.956 356.956L415.01 355.157L415.637 433.92L202.584 435.719L201.956 356.956Z" fill="#F5F5F5"/>
<path d="M376.423 405.95C370.64 399.998 370.64 390.349 376.423 384.397C382.207 378.445 391.583 378.445 397.367 384.397C403.15 390.349 403.15 399.998 397.367 405.95C391.583 411.901 382.207 411.901 376.423 405.95Z" fill="#455A64"/>
<path d="M298.063 383.568C298.063 383.734 311.85 383.758 328.739 383.568C345.627 383.379 359.425 383.178 359.425 383C359.425 382.823 345.639 382.811 328.739 383C311.839 383.189 298.063 383.402 298.063 383.568Z" fill="#263238"/>
<path d="M247.984 398.003C247.984 398.169 273.029 398.098 303.923 397.837C334.816 397.577 359.862 397.223 359.862 397.057C359.862 396.892 334.816 396.963 303.923 397.223C273.029 397.483 247.984 397.849 247.984 398.003Z" fill="#E0E0E0"/>
<path d="M248.075 409.389C248.075 409.554 273.121 409.483 304.015 409.223C334.908 408.963 359.965 408.644 359.965 408.443C359.965 408.242 334.919 408.348 304.015 408.608C273.11 408.868 248.075 409.211 248.075 409.389Z" fill="#E0E0E0"/>
<path d="M215.057 381.381C215.057 381.558 220.479 381.641 227.154 381.594C233.829 381.546 239.241 381.345 239.241 381.18C239.241 381.014 233.829 380.919 227.143 380.978C220.456 381.038 215.057 381.215 215.057 381.381Z" fill="#263238"/>
<path d="M224.397 397.235C224.397 397.235 224.489 397.105 224.696 396.927C224.841 396.8 225.014 396.711 225.201 396.67C225.387 396.629 225.581 396.636 225.764 396.691C226.019 396.768 226.236 396.941 226.373 397.176C226.522 397.448 226.672 397.802 226.833 398.145C226.993 398.488 227.177 398.878 227.361 399.268C227.451 399.52 227.606 399.741 227.808 399.91C228.01 400.078 228.252 400.188 228.51 400.226L229.992 400.451L230.773 400.581C230.943 400.607 231.103 400.68 231.235 400.792C231.368 400.905 231.468 401.053 231.524 401.219C231.581 401.386 231.593 401.566 231.557 401.739C231.522 401.912 231.442 402.071 231.325 402.201L230.015 403.513L229.67 403.856C229.529 403.993 229.415 404.158 229.337 404.341C229.169 404.711 229.141 405.132 229.257 405.523C229.372 406.201 229.486 406.887 229.601 407.58C229.63 407.713 229.63 407.851 229.601 407.983C229.572 408.116 229.515 408.241 229.434 408.348C229.353 408.456 229.249 408.543 229.131 408.604C229.013 408.666 228.883 408.7 228.751 408.703C228.445 408.686 228.15 408.579 227.901 408.396L226.924 407.876C226.589 407.674 226.235 407.507 225.867 407.379C225.443 407.302 225.005 407.399 224.65 407.651L222.811 408.668C222.696 408.726 222.57 408.759 222.442 408.765C222.314 408.77 222.185 408.749 222.066 408.701C221.946 408.653 221.837 408.58 221.746 408.487C221.655 408.394 221.583 408.282 221.536 408.159C221.456 407.886 221.456 407.594 221.536 407.32C221.536 406.989 221.628 406.658 221.686 406.339L221.823 405.393C221.894 405.018 221.824 404.629 221.628 404.305C221.433 404.047 221.214 403.809 220.973 403.596L220.341 402.993L219.744 402.402C219.578 402.255 219.465 402.055 219.422 401.834C219.386 401.627 219.413 401.414 219.499 401.223C219.586 401.033 219.727 400.874 219.905 400.77C220.315 400.628 220.738 400.532 221.169 400.486L222.317 400.273C222.514 400.253 222.704 400.192 222.876 400.092C223.048 399.992 223.198 399.857 223.317 399.694C223.47 399.424 223.604 399.144 223.719 398.855C223.976 398.346 224.18 397.811 224.328 397.259C224.013 397.731 223.737 398.229 223.501 398.748C223.379 399.013 223.241 399.27 223.087 399.517C222.984 399.641 222.858 399.741 222.716 399.813C222.573 399.884 222.418 399.924 222.26 399.931L221.111 400.096C220.666 400.136 220.227 400.228 219.801 400.368C219.538 400.513 219.325 400.739 219.193 401.014C219.061 401.29 219.017 401.602 219.066 401.905C219.117 402.23 219.27 402.53 219.503 402.756L220.1 403.347L220.709 403.962C220.915 404.149 221.103 404.354 221.272 404.577C221.392 404.792 221.433 405.043 221.387 405.286C221.329 405.606 221.283 405.913 221.226 406.232C221.169 406.552 221.123 406.883 221.065 407.214C220.955 407.6 220.955 408.01 221.065 408.396C221.142 408.596 221.259 408.778 221.407 408.93C221.556 409.082 221.733 409.201 221.929 409.278C222.124 409.356 222.333 409.391 222.542 409.382C222.752 409.373 222.957 409.319 223.145 409.224C223.754 408.892 224.374 408.561 224.994 408.207C225.235 408.033 225.531 407.961 225.822 408.006C226.134 408.133 226.438 408.283 226.729 408.455L227.694 408.963L228.188 409.224C228.396 409.31 228.619 409.351 228.843 409.342C229.059 409.33 229.27 409.272 229.462 409.169C229.654 409.067 229.822 408.924 229.956 408.749C230.09 408.575 230.186 408.373 230.238 408.157C230.29 407.941 230.296 407.716 230.256 407.497C230.13 406.8 230.003 406.114 229.889 405.44C229.795 405.177 229.795 404.888 229.889 404.624C230.041 404.374 230.231 404.151 230.452 403.962L231.761 402.603C231.992 402.326 232.119 401.974 232.119 401.609C232.119 401.245 231.992 400.893 231.761 400.616C231.534 400.362 231.231 400.191 230.9 400.132L230.107 400.025L228.613 399.836C228.418 399.818 228.232 399.745 228.076 399.624C227.919 399.502 227.799 399.338 227.729 399.15L227.166 398.039C226.982 397.684 226.833 397.377 226.649 397.069C226.466 396.781 226.182 396.578 225.856 396.502C225.649 396.461 225.436 396.475 225.235 396.541C225.034 396.607 224.853 396.724 224.707 396.88C224.397 397.069 224.397 397.235 224.397 397.235Z" fill="#263238"/>
<path d="M281.68 382.881C281.685 383.447 281.852 383.999 282.162 384.466C282.471 384.934 282.908 385.297 283.418 385.509C283.928 385.722 284.487 385.774 285.025 385.659C285.564 385.544 286.057 385.267 286.443 384.864C286.828 384.46 287.089 383.948 287.192 383.392C287.295 382.837 287.235 382.262 287.02 381.741C286.806 381.22 286.446 380.776 285.986 380.466C285.526 380.155 284.987 379.992 284.438 379.997C284.072 380 283.711 380.077 283.375 380.223C283.039 380.37 282.734 380.583 282.478 380.851C282.222 381.119 282.02 381.436 281.883 381.785C281.746 382.133 281.677 382.505 281.68 382.881Z" fill="#438EEB"/>
<path d="M299.995 91.9518L317.848 91.8011C319.276 91.7891 320.443 92.9703 320.454 94.4394L320.564 108.248C320.576 109.717 319.428 110.918 318.001 110.93L300.148 111.081C298.72 111.093 297.553 109.912 297.542 108.443L297.431 94.6338C297.42 93.1646 298.568 91.9639 299.995 91.9518Z" fill="#438EEB"/>
<path d="M298.672 92.6834C298.864 93.0465 299.104 93.3806 299.385 93.6766C299.867 94.2914 300.534 95.1663 301.487 96.2422L304.658 99.9901L306.554 102.189C306.882 102.601 307.231 102.996 307.599 103.372C308.065 103.767 308.663 103.958 309.265 103.904C309.861 103.84 310.41 103.538 310.793 103.064L311.816 101.882L313.734 99.7063L316.951 96.0057C317.87 94.9416 318.594 94.0785 319.088 93.4637C319.37 93.1705 319.613 92.8406 319.812 92.4824C319.812 92.4824 319.467 92.7425 318.916 93.31C318.364 93.8776 317.594 94.6815 316.618 95.6747L313.309 99.2925L311.356 101.444L310.333 102.627C310.194 102.805 310.022 102.953 309.826 103.063C309.631 103.172 309.416 103.24 309.195 103.263C308.974 103.286 308.75 103.264 308.537 103.197C308.324 103.131 308.127 103.021 307.955 102.875C307.645 102.591 307.289 102.13 306.967 101.775L305.049 99.5999L301.774 95.9348C300.844 94.9062 300.074 94.0667 299.477 93.5702C299.245 93.2412 298.975 92.9433 298.672 92.6834Z" fill="white"/>
<path d="M312.505 101.35C313.618 102.882 314.851 104.317 316.193 105.642C317.4 107.112 318.791 108.412 320.329 109.508C319.213 107.975 317.975 106.539 316.629 105.216C315.424 103.748 314.037 102.448 312.505 101.35Z" fill="white"/>
<path d="M297.558 109.957C299.12 108.674 300.548 107.228 301.82 105.642C303.244 104.196 304.53 102.612 305.657 100.912C304.093 102.197 302.661 103.643 301.384 105.228C299.961 106.671 298.679 108.255 297.558 109.957Z" fill="white"/>
<path d="M383.207 99.6351C383.207 99.7416 387.136 99.8245 391.985 99.8245C396.833 99.8245 400.762 99.7416 400.762 99.6351C400.762 99.5286 396.833 99.4458 391.985 99.4458C387.136 99.4458 383.207 99.5286 383.207 99.6351Z" fill="#263238"/>
<path d="M383.207 104.258C383.207 104.365 387.136 104.448 391.985 104.448C396.833 104.448 400.762 104.365 400.762 104.258C400.762 104.152 396.833 104.069 391.985 104.069C387.136 104.069 383.207 104.152 383.207 104.258Z" fill="#263238"/>
<path d="M383.207 108.881C383.207 108.987 387.136 109.082 391.985 109.082C396.833 109.082 400.762 108.987 400.762 108.893C400.762 108.798 396.833 108.692 391.985 108.692C387.136 108.692 383.207 108.786 383.207 108.881Z" fill="#263238"/>
<path d="M218.446 102.579C218.503 102.579 218.446 102.13 218.698 101.397C218.982 100.35 219.596 99.4307 220.445 98.7839C221.124 98.2535 221.933 97.9279 222.782 97.8437C223.63 97.7595 224.485 97.9199 225.25 98.307C226.015 98.6941 226.661 99.2926 227.114 100.036C227.568 100.779 227.812 101.637 227.818 102.514C227.825 103.392 227.594 104.254 227.152 105.004C226.71 105.754 226.074 106.363 225.314 106.762C224.555 107.162 223.703 107.336 222.853 107.265C222.003 107.194 221.189 106.882 220.502 106.363C219.649 105.721 219.02 104.813 218.71 103.773C218.503 103.028 218.503 102.591 218.446 102.591C218.431 102.697 218.431 102.804 218.446 102.91C218.439 103.22 218.47 103.53 218.538 103.832C218.787 104.965 219.413 105.973 220.307 106.682C221.061 107.263 221.958 107.615 222.896 107.699C223.835 107.783 224.778 107.596 225.618 107.158C226.459 106.721 227.163 106.05 227.653 105.222C228.143 104.394 228.399 103.441 228.39 102.472C228.382 101.503 228.111 100.555 227.608 99.7356C227.104 98.9164 226.388 98.2582 225.54 97.8354C224.693 97.4125 223.747 97.2419 222.81 97.3426C221.873 97.4434 220.982 97.8115 220.238 98.4056C219.356 99.1302 218.749 100.152 218.526 101.29C218.46 101.593 218.433 101.903 218.446 102.213C218.418 102.333 218.418 102.459 218.446 102.579Z" fill="#263238"/>
<path d="M215.861 111.163C216.743 110.555 217.52 109.8 218.158 108.928C218.943 108.176 219.6 107.292 220.1 106.316C219.218 106.923 218.441 107.678 217.802 108.55C217.015 109.3 216.358 110.184 215.861 111.163Z" fill="#263238"/>
<path d="M229.211 349.528L229.372 413.065L256.658 407.296L279.635 402.354C279.635 402.354 248.179 466.199 213.965 466.199C179.751 466.199 175.328 413.077 175.328 413.077L173.295 349.528H229.211Z" fill="#9B7564"/>
<path d="M87.473 185.624C89.9776 187.09 93.4242 185.187 94.5731 182.444C95.722 179.701 95.1935 176.532 94.3204 173.648C93.4472 170.763 92.2294 167.996 92.0226 165.005C91.9203 162.274 92.6736 159.582 94.1713 157.326C95.669 155.069 97.8317 153.368 100.34 152.472C95.4003 148.441 94.9982 139.798 99.5363 135.293C101.662 133.189 104.488 132.042 106.958 130.387C108.363 129.432 109.671 128.335 110.864 127.112C108.66 127.671 106.365 127.743 104.132 127.325C102.341 126.92 100.679 126.059 99.2974 124.819C97.916 123.579 96.8602 122.001 96.2275 120.231C95.6441 118.438 95.5587 116.513 95.9809 114.672C96.4031 112.832 97.3161 111.15 98.6172 109.815C99.9592 108.522 101.652 107.68 103.47 107.401C105.289 107.122 107.146 107.42 108.796 108.254C111.99 109.992 113.736 113.562 115.287 116.92L116.735 120.03C121.227 113.905 125.455 107.58 132.383 105.428C138.667 103.477 145.423 105.653 151.971 105.168C156.739 104.802 161.312 103.04 166.068 102.496C170.825 101.952 176.236 103.004 179.039 106.989C180.693 109.353 181.21 112.357 182.876 114.686C186.323 119.486 193.745 120.136 196.571 125.326C198.869 129.559 197.099 134.903 198.088 139.644C199.156 144.799 203.292 148.571 206.67 152.531C210.047 156.492 213 161.931 211.104 166.826C209.427 171.141 204.544 173.458 202.959 177.797C201.81 180.966 202.637 184.478 202.695 187.859C202.752 191.24 201.442 195.26 198.237 196.029L161.783 205.936C149.225 211.186 136.278 216.577 122.721 216.506C109.164 216.435 94.6995 209.791 89.4031 196.975C91.3742 196.898 93.2431 196.053 94.6305 194.61C92.8604 193.758 91.2984 192.509 90.0597 190.954C88.821 189.399 87.9371 187.578 87.473 185.624Z" fill="#263238"/>
<path d="M117.356 197.389C114.345 187.93 111.381 178.294 110.014 168.386C108.647 158.479 108.934 148.145 112.312 138.829C112.817 137.41 117.195 127.869 118.665 128.022C119.711 128.129 117.022 137.02 117.516 137.966C122.572 146.904 123.95 157.651 123.134 167.973C122.264 177.99 120.311 187.876 117.31 197.448" fill="#263238"/>
<path d="M149.547 280.553C134.474 280.222 117.379 246.266 117.379 246.266L116.402 159.176C115.621 134.1 129.143 112.723 153.522 112.605L155.82 112.723C166.755 113.339 177.066 118.161 184.708 126.233C192.35 134.305 196.764 145.038 197.077 156.303C197.64 178.046 198.007 202.083 197.26 213.693C195.721 237.717 172.157 240.165 172.157 240.165C172.157 240.165 172.019 245.745 171.95 252.816C171.79 268.682 155.648 281.049 149.605 280.517L149.547 280.553Z" fill="#9B7564"/>
<path d="M172.1 240.2C172.1 240.2 157.325 240.283 142.16 229.263C142.16 229.263 148.662 247.164 172.088 246.289L172.1 240.2Z" fill="#7F6358"/>
<path d="M186.932 175.209C186.893 176.113 186.509 176.965 185.864 177.58C185.219 178.196 184.364 178.524 183.485 178.496C183.06 178.507 182.637 178.43 182.241 178.271C181.845 178.111 181.484 177.872 181.179 177.567C180.874 177.262 180.631 176.897 180.465 176.494C180.299 176.091 180.212 175.658 180.211 175.221C180.247 174.314 180.629 173.459 181.275 172.841C181.92 172.224 182.776 171.893 183.657 171.922C184.084 171.911 184.508 171.988 184.904 172.148C185.301 172.308 185.663 172.549 185.968 172.855C186.273 173.161 186.516 173.527 186.681 173.932C186.847 174.336 186.932 174.77 186.932 175.209Z" fill="#263238"/>
<path d="M191.504 166.045C191.068 166.471 188.644 164.402 185.048 164.213C181.452 164.024 178.729 165.738 178.361 165.253C178.189 165.052 178.648 164.26 179.843 163.468C181.452 162.442 183.332 161.959 185.22 162.085C187.088 162.18 188.878 162.884 190.333 164.095C191.39 165.088 191.723 165.856 191.504 166.045Z" fill="#263238"/>
<path d="M154.591 174.321C154.552 175.226 154.168 176.078 153.523 176.693C152.878 177.308 152.023 177.637 151.144 177.608C150.718 177.619 150.294 177.542 149.897 177.382C149.5 177.222 149.139 176.982 148.834 176.675C148.528 176.369 148.286 176.003 148.12 175.599C147.955 175.194 147.87 174.76 147.87 174.321C147.909 173.428 148.284 172.584 148.917 171.971C149.55 171.357 150.39 171.021 151.259 171.035C151.69 171.017 152.119 171.089 152.522 171.246C152.925 171.403 153.293 171.643 153.604 171.949C153.915 172.256 154.162 172.624 154.332 173.032C154.502 173.439 154.59 173.878 154.591 174.321Z" fill="#263238"/>
<path d="M156.257 165.595C155.82 166.021 153.384 163.964 149.8 163.775C146.215 163.586 143.481 165.288 143.113 164.815C142.93 164.602 143.389 163.822 144.595 163.018C146.207 161.999 148.084 161.516 149.972 161.635C151.84 161.733 153.63 162.436 155.085 163.645C156.13 164.579 156.463 165.406 156.257 165.595Z" fill="#263238"/>
<path d="M167.654 194.704C167.654 194.491 169.951 194.22 173.547 193.948C174.467 193.948 175.34 193.758 175.535 193.12C175.666 192.151 175.501 191.163 175.064 190.294C174.298 187.93 173.532 185.482 172.766 182.952C169.526 172.524 167.24 163.952 167.654 163.822C168.067 163.692 171.02 172.098 174.248 182.491C175.018 185.057 175.765 187.516 176.466 189.857C176.988 191.028 177.089 192.352 176.753 193.593C176.602 193.918 176.38 194.203 176.105 194.426C175.83 194.65 175.51 194.805 175.167 194.882C174.655 194.999 174.13 195.046 173.605 195.024C169.917 195.024 167.665 194.917 167.654 194.704Z" fill="#263238"/>
<path d="M156.957 196.679C157.543 196.679 157.336 200.687 160.53 203.714C163.724 206.741 167.883 206.54 167.883 207.095C167.883 207.355 166.918 207.828 165.172 207.781C162.886 207.686 160.706 206.765 159.014 205.18C157.386 203.652 156.401 201.532 156.268 199.268C156.199 197.613 156.693 196.644 156.957 196.679Z" fill="#263238"/>
<path d="M156.843 150.592C156.429 151.585 152.867 150.911 148.628 151.195C144.389 151.479 140.919 152.483 140.414 151.55C140.184 151.1 140.827 150.19 142.252 149.292C144.148 148.203 146.259 147.573 148.427 147.448C150.594 147.323 152.761 147.707 154.763 148.571C156.28 149.292 157.015 150.131 156.843 150.592Z" fill="#263238"/>
<path d="M190.666 153.678C189.988 154.482 187.552 153.477 184.588 153.276C181.624 153.075 179.062 153.536 178.533 152.626C178.292 152.189 178.74 151.361 179.878 150.628C181.407 149.76 183.151 149.377 184.892 149.529C186.632 149.68 188.289 150.359 189.655 151.479C190.666 152.401 190.964 153.264 190.666 153.678Z" fill="#263238"/>
<path d="M117.378 177.124C116.988 176.923 101.581 171.354 101.225 187.765C100.869 204.175 117.022 201.184 117.057 200.77C117.091 200.356 117.378 177.124 117.378 177.124Z" fill="#9B7564"/>
<path d="M112.3 194.433C112.231 194.433 112.013 194.622 111.542 194.835C110.875 195.112 110.13 195.112 109.463 194.835C107.785 194.161 106.418 191.359 106.395 188.391C106.391 186.978 106.689 185.582 107.268 184.3C107.429 183.791 107.708 183.329 108.08 182.955C108.452 182.58 108.907 182.303 109.405 182.149C109.728 182.069 110.068 182.109 110.366 182.26C110.664 182.411 110.901 182.664 111.037 182.976C111.243 183.437 111.129 183.768 111.22 183.792C111.312 183.816 111.565 183.52 111.45 182.846C111.369 182.435 111.154 182.064 110.841 181.794C110.629 181.618 110.384 181.487 110.121 181.41C109.859 181.333 109.584 181.311 109.313 181.345C108.654 181.464 108.036 181.754 107.517 182.189C106.998 182.624 106.596 183.188 106.349 183.828C105.633 185.239 105.266 186.811 105.281 188.403C105.281 191.725 106.901 194.858 109.198 195.603C109.626 195.743 110.078 195.781 110.521 195.716C110.965 195.65 111.389 195.483 111.76 195.225C112.266 194.823 112.358 194.457 112.3 194.433Z" fill="#7F6358"/>
<path d="M187.001 128.921C189.609 127.49 181.946 118.753 175.615 115.691C166.057 111.08 151.397 108.124 142.505 110.595C131.785 113.563 122.847 118.871 117.355 128.85C111.864 138.829 109.704 150.404 109.876 161.825C109.934 165.313 110.232 168.919 112.013 171.922C114.196 175.587 118.458 177.94 118.206 182.964C118.134 183.873 118.239 184.787 118.513 185.653C118.787 186.52 119.225 187.322 119.803 188.013C122.698 191.252 126.317 188.285 127.994 185.294C131.602 178.885 132.084 171.189 132.486 163.811C132.773 158.562 133.049 153.17 131.671 148.134C130.924 145.379 129.694 142.766 129.097 139.976C128.5 137.185 128.615 134.064 130.338 131.758C130.733 131.272 131.172 130.825 131.648 130.422C133.906 128.45 136.634 127.131 139.551 126.599C142.467 126.068 145.469 126.342 148.249 127.396C157.222 130.801 172.548 135.908 176.603 132.811C182.44 128.353 183.864 125.421 183.864 125.421L187.001 128.921Z" fill="#263238"/>
<path d="M143.366 108.337C152.19 105.428 162.208 105.724 170.376 110.228C174.719 112.593 178.625 116.4 179.889 121.283C181.153 126.166 179.062 132.16 174.489 134.005L174.168 134.206C167.274 136.476 162.886 135.482 156.107 132.964C150.363 130.848 145.354 127.147 139.644 125.055C133.523 122.838 126.898 122.554 120.618 124.239C126.822 117.168 134.531 111.281 143.366 108.337Z" fill="#263238"/>
<path d="M112.955 124.653C113.093 124.771 114.38 123.199 116.976 121.343C118.488 120.257 120.119 119.36 121.836 118.67C123.89 117.78 126.112 117.376 128.339 117.488C132.415 117.955 136.281 119.594 139.494 122.217C141.976 124.239 143.125 125.942 143.274 125.823C143.424 125.705 143.102 125.315 142.573 124.558C141.82 123.486 140.953 122.502 139.988 121.626C136.757 118.688 132.718 116.858 128.431 116.389C126.045 116.248 123.66 116.685 121.468 117.666C119.698 118.428 118.036 119.434 116.528 120.657C113.943 122.797 112.84 124.582 112.955 124.653Z" fill="#455A64"/>
<path d="M111.335 130.481C111.468 132.119 111.881 133.72 112.553 135.21C115.429 142.592 120.709 148.715 127.488 152.531C128.836 153.394 130.322 154.003 131.877 154.328C132.072 154.009 125.156 151.313 119.354 144.48C113.552 137.646 111.668 130.327 111.335 130.481Z" fill="#455A64"/>
<path d="M104.821 133.166C104.696 133.78 104.676 134.412 104.764 135.034C104.847 136.738 105.078 138.431 105.453 140.094C106.681 145.635 109.223 150.777 112.851 155.062C116.479 159.347 121.082 162.641 126.248 164.65C127.799 165.257 129.398 165.724 131.027 166.046C131.616 166.221 132.231 166.286 132.842 166.235C132.842 166.046 130.326 165.596 126.535 163.87C121.589 161.726 117.184 158.447 113.658 154.283C110.131 150.119 107.576 145.181 106.188 139.846C105.108 135.802 105.016 133.166 104.821 133.166Z" fill="#455A64"/>
<path d="M161.691 106.858C161.691 107.048 163.357 107.45 165.93 108.502C172.683 111.263 178.425 116.134 182.348 122.429C183.073 123.791 183.867 125.113 184.726 126.39C184.42 124.838 183.836 123.359 183.003 122.027C181.167 118.692 178.752 115.731 175.88 113.29C173.007 110.852 169.719 108.983 166.183 107.781C164.751 107.199 163.23 106.887 161.691 106.858Z" fill="#455A64"/>
<path d="M99.8005 108.928C99.5363 108.928 100.237 113.657 103.856 118.091C107.475 122.524 111.898 124.061 111.898 123.789C111.898 123.517 108.027 121.59 104.649 117.381C101.271 113.172 100.122 108.821 99.8005 108.928Z" fill="#455A64"/>
<path d="M269.824 402.886L260.334 396.892C258.724 395.884 256.876 395.348 254.992 395.343H236.61L217.63 413.137L211.966 416.045L214.08 446.785L226.419 445.225C226.419 445.225 252.763 446.407 255.313 444.645C257.864 442.884 261.552 437.35 261.552 437.35C261.552 437.35 275.993 432.538 277.407 431.238C282.772 426.284 280.612 425.102 280.612 425.102L283.082 423.919C283.542 424.818 287.138 418.788 286.758 415.761C286.54 414 287.046 414.011 287.046 414.011C288.243 413.304 289.275 412.335 290.069 411.173C290.863 410.01 291.4 408.683 291.641 407.284C291.905 405.487 284.748 406.776 284.748 406.776L266.906 407.024L269.824 402.886Z" fill="#9B7564"/>
<path d="M253.958 406.61L270.743 383.094C271.35 382.239 272.146 381.543 273.064 381.064C273.983 380.585 274.998 380.337 276.028 380.339H309.208C309.848 380.339 310.461 380.601 310.914 381.067C311.366 381.532 311.62 382.164 311.62 382.822C311.615 383.416 311.408 383.989 311.034 384.442L292.02 407.142L253.958 406.61Z" fill="#455A64"/>
<path d="M262.092 416.246C263.313 416.584 264.573 416.755 265.837 416.754C271.916 417.119 278.015 416.577 283.944 415.147C285.191 414.915 286.403 414.517 287.551 413.964C286.297 414.052 285.052 414.246 283.829 414.544C281.531 414.957 278.395 415.466 274.879 415.726C271.363 415.986 268.169 416.104 265.86 416.092C264.602 416.029 263.341 416.08 262.092 416.246Z" fill="#7F6358"/>
<path d="M257.324 426.544C258.546 426.879 259.805 427.05 261.069 427.052C264.105 427.239 267.15 427.195 270.18 426.922C273.213 426.655 276.224 426.162 279.187 425.444C280.431 425.214 281.64 424.817 282.783 424.262C281.529 424.351 280.284 424.545 279.061 424.841C276.763 425.255 273.627 425.764 270.111 426.024C266.596 426.284 263.402 426.402 261.092 426.39C259.834 426.327 258.573 426.378 257.324 426.544Z" fill="#7F6358"/>
<path d="M291.595 407.284C291.456 408.013 291.272 408.732 291.044 409.436C290.289 411.381 288.832 412.949 286.977 413.811L286.85 413.87V414.012C286.891 416.092 286.445 418.151 285.552 420.018C284.448 422.312 282.622 424.154 280.37 425.243L280.06 425.385L280.21 425.681C280.382 426.05 280.471 426.454 280.471 426.863C280.471 427.273 280.382 427.677 280.21 428.046C279.818 428.842 279.261 429.541 278.578 430.091C277.06 431.294 275.39 432.28 273.615 433.023C269.682 434.703 265.61 436.017 261.448 436.948H261.288L261.207 437.09C260.142 438.68 258.888 440.125 257.473 441.394C256.113 442.782 254.439 443.802 252.602 444.361C251.186 444.72 249.728 444.871 248.271 444.811L243.905 444.929L235.484 445.165L220.318 445.603H220.261L202.189 449.398L197.168 450.509L195.859 450.829C195.702 450.848 195.55 450.896 195.411 450.971C195.563 450.989 195.717 450.989 195.87 450.971L197.203 450.758L202.269 449.836L220.399 446.289H220.341L235.507 445.958L243.916 445.757L248.294 445.65C249.817 445.699 251.341 445.532 252.82 445.154C254.777 444.563 256.561 443.482 258.013 442.009C259.477 440.691 260.771 439.185 261.862 437.528L261.621 437.705C265.826 436.753 269.938 435.404 273.902 433.673C275.734 432.892 277.454 431.858 279.015 430.599C279.782 429.961 280.398 429.153 280.819 428.235C281.018 427.779 281.115 427.284 281.103 426.784C281.091 426.285 280.97 425.795 280.75 425.35L280.589 425.787C282.96 424.615 284.872 422.647 286.012 420.207C286.909 418.252 287.331 416.101 287.241 413.941L287.114 414.142C288.075 413.68 288.934 413.023 289.641 412.21C290.348 411.397 290.888 410.446 291.227 409.412C291.476 408.732 291.601 408.011 291.595 407.284Z" fill="#7F6358"/>
<path d="M251.89 435.589C251.798 435.778 254.027 436.948 257.048 437.362C260.07 437.776 262.505 437.256 262.471 437.055C262.436 436.854 260.047 436.948 257.152 436.535C254.256 436.121 251.97 435.364 251.89 435.589Z" fill="#7F6358"/>
<path d="M243.365 406.575C243.365 406.799 247.007 407.119 251.533 407.296C256.06 407.473 259.725 407.414 259.725 407.178C259.725 406.941 256.083 406.634 251.556 406.457C247.03 406.279 243.365 406.338 243.365 406.575Z" fill="#7F6358"/>
<path d="M212.322 413.527C212.322 413.527 212.667 413.87 213.471 414C214.625 414.128 215.788 413.862 216.78 413.243C218.167 412.31 219.464 411.241 220.652 410.051L225.178 405.972L233.45 398.653C234.651 397.707 235.773 396.659 236.805 395.52C235.486 396.289 234.244 397.188 233.094 398.204C230.877 399.954 227.867 402.46 224.638 405.298C223.03 406.74 221.513 408.136 220.158 409.424C219.025 410.614 217.8 411.706 216.493 412.687C215.608 413.296 214.57 413.625 213.506 413.633C212.747 413.645 212.345 413.456 212.322 413.527Z" fill="#7F6358"/>
<path d="M257.496 407.118C257.663 406.966 257.813 406.795 257.944 406.61L259.093 405.097L263.459 399.433L269.755 390.992L273.454 386.002C274.107 385.184 274.965 384.567 275.936 384.217C276.433 384.039 276.951 383.932 277.475 383.898C277.992 383.898 278.624 383.898 279.13 383.898L302.107 383.803L309.081 383.709H310.977C311.2 383.714 311.424 383.694 311.643 383.649C311.425 383.596 311.201 383.576 310.977 383.59L309.081 383.531L302.107 383.425L279.13 383.342C278.555 383.342 277.981 383.342 277.429 383.342C276.854 383.382 276.286 383.502 275.741 383.697C274.67 384.09 273.725 384.777 273.006 385.683L269.318 390.708L263.126 399.232C261.414 401.597 260.012 403.571 258.99 405.014C258.542 405.652 258.186 406.196 257.841 406.598C257.705 406.756 257.59 406.931 257.496 407.118Z" fill="#263238"/>
<path d="M293.582 387.232C293.369 387.063 293.112 386.963 292.844 386.943C292.575 386.924 292.307 386.986 292.073 387.123C291.839 387.26 291.649 387.464 291.528 387.711C291.406 387.958 291.358 388.237 291.39 388.512C291.421 388.787 291.531 389.046 291.705 389.257C291.88 389.468 292.111 389.622 292.369 389.698C292.628 389.775 292.903 389.771 293.159 389.688C293.416 389.605 293.643 389.445 293.812 389.23C294.026 388.941 294.126 388.579 294.092 388.217C294.058 387.856 293.892 387.521 293.628 387.279" fill="#F5F5F5"/>
<path d="M115.736 239.42L68.9989 267.689L60.4053 423.754L49.2381 512.049H217.205C217.205 512.049 215.355 404.589 214.781 372.087C214.367 349.304 214.965 305.144 207.474 277.987C204.28 266.412 173.007 251.456 173.007 251.456C155.877 267.027 136.726 262.38 115.736 239.42Z" fill="#438EEB"/>
<path d="M54.1783 473.033C54.1783 473.199 90.437 473.341 135.175 473.341C179.912 473.341 216.171 473.199 216.171 473.033C216.171 472.867 179.912 472.725 135.175 472.725C90.437 472.725 54.1783 472.855 54.1783 473.033Z" fill="white"/>
<g opacity="0.3">
<path d="M216.274 446.478C203.269 457.698 183.06 463.775 166.424 467.239C149.788 470.703 132.796 471.968 116.115 475.113C104.453 477.348 92.2178 480.505 80.9703 476.603C75.3707 474.557 70.4601 470.898 66.8225 466.063C63.185 461.227 60.9735 455.419 60.4512 449.327C60.3677 448.919 60.3696 448.497 60.4568 448.089C60.544 447.681 60.7144 447.297 60.9567 446.963C61.2918 446.7 61.6762 446.512 62.0856 446.41C62.4949 446.309 62.9203 446.295 63.3349 446.371C113.553 448.665 166.734 448.346 216.274 446.442" fill="black"/>
</g>
<path d="M225.167 414.13H107.797L107.222 350.486L53.064 343.297C53.064 343.297 52.8227 407.934 52.8227 429.133C52.8227 454.576 74.1919 472.264 92.1375 469.545C110.083 466.825 225.167 444.716 225.167 444.716V414.13Z" fill="#9B7564"/>
<path d="M49.3071 356.516L112.427 363.267V287.055C112.427 287.055 106.223 261.304 84.417 262.38C62.6112 263.456 49.7667 287.729 49.3071 309.992C48.8476 332.255 49.3071 356.516 49.3071 356.516Z" fill="#438EEB"/>
<path d="M200.799 269.048C200.799 269.048 221.031 282.751 226.453 297.873C232.14 313.728 240.125 365.088 240.125 365.088H211.759L200.799 269.048Z" fill="#438EEB"/>
<path d="M112.955 290.082C112.88 291.006 112.88 291.935 112.955 292.86C113.012 294.787 113.093 297.341 113.185 300.439C113.369 306.823 113.564 315.655 113.541 325.409C113.518 335.163 113.265 343.995 113.024 350.379C112.909 353.477 112.817 356.031 112.748 357.958C112.678 358.883 112.678 359.812 112.748 360.737C112.929 359.825 113.037 358.9 113.07 357.97C113.231 356.196 113.426 353.607 113.61 350.415C113.989 344.019 114.322 335.187 114.357 325.409C114.391 315.631 114.104 306.799 113.759 300.403C113.598 297.211 113.426 294.633 113.277 292.848C113.239 291.919 113.131 290.994 112.955 290.082Z" fill="#263238"/>
<path d="M81.1771 263.61C81.1771 263.775 83.2911 263.196 86.7148 263.255C91.1724 263.302 95.5339 264.594 99.3338 266.993C103.134 269.392 106.23 272.807 108.291 276.875C109.888 279.985 110.336 282.16 110.485 282.125C110.476 281.602 110.391 281.084 110.232 280.588C109.886 279.217 109.405 277.885 108.796 276.615C106.814 272.347 103.675 268.76 99.757 266.285C95.8395 263.809 91.3104 262.552 86.7148 262.664C85.3356 262.689 83.962 262.851 82.6132 263.149C82.1143 263.225 81.6299 263.381 81.1771 263.61Z" fill="#263238"/>
<path d="M213.792 304.943C213.739 305.227 213.712 305.516 213.712 305.806C213.712 306.468 213.712 307.284 213.643 308.277C213.643 310.417 213.574 313.515 213.574 317.346C213.574 325.007 213.689 335.589 213.907 347.27C214.126 358.951 214.344 369.415 214.493 377.182C214.562 380.918 214.62 383.992 214.666 386.251C214.666 387.244 214.735 388.06 214.758 388.722C214.743 389.008 214.77 389.295 214.838 389.573C214.898 389.294 214.925 389.008 214.919 388.722C214.919 388.06 214.919 387.244 214.988 386.251C214.988 384.111 215.057 381.013 215.057 377.182C215.057 369.521 214.942 358.939 214.723 347.246C214.505 335.553 214.298 325.102 214.149 317.346C214.068 313.598 214.011 310.535 213.965 308.277C213.965 307.284 213.896 306.468 213.884 305.806C213.893 305.515 213.862 305.225 213.792 304.943Z" fill="#263238"/>
<path d="M214.517 330.47C217.711 330.748 220.918 330.823 224.121 330.695C227.328 330.766 230.536 330.632 233.726 330.292C230.532 330.014 227.324 329.939 224.121 330.068C220.915 329.989 217.707 330.123 214.517 330.47Z" fill="white"/>
<path d="M114.035 312.877C114.035 313.042 135.864 313.184 162.69 313.184C189.517 313.184 211.369 313.042 211.369 312.877C211.369 312.711 189.54 312.569 162.69 312.569C135.841 312.569 114.035 312.675 114.035 312.877Z" fill="white"/>
<path d="M50.6742 302.448C50.8879 302.474 51.1038 302.474 51.3175 302.448L53.1327 302.294L59.7963 301.703C65.4373 301.219 73.2267 300.687 81.8434 300.438C90.46 300.19 98.2724 300.297 103.925 300.438L110.623 300.651H112.438C112.651 300.683 112.868 300.683 113.081 300.651C112.875 300.595 112.663 300.564 112.45 300.557L110.634 300.391C109.049 300.261 106.774 300.119 103.936 299.977C98.2839 299.705 90.4715 299.552 81.8319 299.788C73.1923 300.025 65.3914 300.639 59.7618 301.23C56.9471 301.526 54.6723 301.798 53.1098 302.022L51.306 302.283C51.0893 302.309 50.8768 302.365 50.6742 302.448Z" fill="white"/>
<path d="M50.0768 347.601C50.0768 347.778 64.3344 347.601 81.9009 347.175C99.4673 346.75 113.736 346.289 113.725 346.123C113.713 345.958 99.4788 346.123 81.8894 346.561C64.3 346.998 50.0768 347.436 50.0768 347.601Z" fill="white"/>
<path d="M107.417 274.913C107.417 275.091 129.913 275.221 157.658 275.221C185.404 275.221 207.899 275.091 207.899 274.913C207.899 274.736 185.404 274.605 157.658 274.605C129.913 274.605 107.417 274.747 107.417 274.913Z" fill="white"/>
<path d="M113.714 360.82C113.714 360.986 136.278 361.128 164.115 361.128C191.952 361.128 214.517 360.986 214.517 360.82C214.517 360.654 191.952 360.512 164.115 360.512C136.278 360.512 113.714 360.643 113.714 360.82Z" fill="white"/>
<path d="M106.475 398.748C106.475 398.914 131.016 399.056 161.277 399.056C191.539 399.056 216.09 398.914 216.09 398.748C216.09 398.582 191.55 398.44 161.277 398.44C131.004 398.44 106.475 398.571 106.475 398.748Z" fill="white"/>
<path d="M50.9959 508.112C50.9959 508.277 88.0015 508.419 133.635 508.419C179.269 508.419 216.274 508.277 216.274 508.112C216.274 507.946 179.28 507.804 133.635 507.804C87.99 507.804 50.9959 507.958 50.9959 508.112Z" fill="white"/>
<g opacity="0.3">
<path d="M113.197 363.988C113.932 348.925 113.403 334.832 114.15 319.781C119.134 341.87 121.487 364.5 121.158 387.173C121.078 392.553 120.825 398.027 119.136 403.123C117.447 408.218 112.771 412.581 107.992 414.757L107.533 363.338C109.681 363.503 111.037 363.882 113.197 363.988Z" fill="black"/>
</g>
<path d="M438.411 456.504L446.694 512.51H494.821L505.988 457.308L438.411 456.504Z" fill="#438EEB"/>
<path d="M499.256 492.399C499.256 492.565 486.928 492.695 471.683 492.695C456.437 492.695 444.109 492.565 444.109 492.399C444.109 492.233 456.437 492.115 471.683 492.115C486.928 492.115 499.256 492.245 499.256 492.399Z" fill="#FAFAFA"/>
<path d="M499.44 489.645C499.44 489.81 487.032 489.94 471.717 489.94C456.402 489.94 443.994 489.81 443.994 489.645C443.994 489.479 456.402 489.361 471.717 489.361C487.032 489.361 499.44 489.491 499.44 489.645Z" fill="#FAFAFA"/>
<path d="M499.348 486.535C499.348 486.701 486.94 486.831 471.625 486.831C456.311 486.831 443.903 486.701 443.903 486.535C443.903 486.37 456.311 486.24 471.625 486.24C486.94 486.24 499.348 486.37 499.348 486.535Z" fill="#FAFAFA"/>
<path d="M452.221 509.318C451.553 506.996 451.061 504.624 450.749 502.224C450.256 499.869 449.949 497.477 449.829 495.071C450.507 497.391 450.999 499.763 451.301 502.165C451.8 504.519 452.108 506.911 452.221 509.318Z" fill="#FAFAFA"/>
<path d="M455.495 508.727C455.168 506.447 454.968 504.149 454.897 501.846C454.654 499.553 454.551 497.247 454.587 494.941C455.112 497.189 455.405 499.487 455.46 501.798C455.717 504.1 455.728 506.423 455.495 508.727Z" fill="#FAFAFA"/>
<path d="M461.469 508.727C460.344 504.088 459.8 499.32 459.849 494.539C460.287 496.884 460.597 499.253 460.78 501.633C461.133 503.983 461.363 506.351 461.469 508.727Z" fill="#FAFAFA"/>
<path d="M465.663 509.022C464.924 504.269 464.773 499.438 465.214 494.646C465.464 497.033 465.579 499.433 465.559 501.834C465.732 504.226 465.767 506.626 465.663 509.022Z" fill="#FAFAFA"/>
<path d="M473.073 508.727C472.709 506.476 472.536 504.198 472.556 501.916C472.39 499.645 472.413 497.362 472.625 495.094C472.974 497.346 473.144 499.624 473.13 501.905C473.289 504.176 473.27 506.458 473.073 508.727Z" fill="#FAFAFA"/>
<path d="M478.484 509.022C478.211 506.669 478.134 504.295 478.254 501.928C478.179 499.578 478.294 497.225 478.599 494.894C478.857 497.248 478.93 499.621 478.817 501.987C478.893 504.338 478.781 506.69 478.484 509.022Z" fill="#FAFAFA"/>
<path d="M483.562 508.266C483.504 505.807 483.643 503.347 483.975 500.912C484.114 498.458 484.437 496.019 484.941 493.617C484.998 496.076 484.86 498.535 484.527 500.971C484.388 503.424 484.066 505.863 483.562 508.266Z" fill="#FAFAFA"/>
<path d="M490.11 507.533C490.118 505.421 490.389 503.319 490.914 501.278C491.26 499.198 491.863 497.172 492.707 495.249C492.402 497.323 491.988 499.38 491.466 501.408C491.13 503.475 490.677 505.52 490.11 507.533Z" fill="#FAFAFA"/>
<path d="M485.469 345.981C485.483 346.075 485.483 346.171 485.469 346.265C485.469 346.478 485.343 346.738 485.251 347.057C485.021 347.79 484.723 348.795 484.332 350.072C483.941 351.349 483.424 352.993 482.919 354.872C482.413 356.752 481.77 358.869 481.184 361.257C480.598 363.645 479.909 366.234 479.311 369.06C478.714 371.886 478.082 374.889 477.45 378.081C476.301 384.466 475.244 391.524 474.509 398.973C473.774 406.421 473.475 413.574 473.36 420.077C473.36 423.316 473.36 426.402 473.441 429.299C473.521 432.196 473.647 434.868 473.785 437.327C473.923 439.786 474.107 441.985 474.256 443.936C474.406 445.887 474.566 447.554 474.727 448.925C474.888 450.297 474.969 451.29 475.037 452.07C475.037 452.401 475.06 452.673 475.106 452.886C475.106 453.075 475.106 453.17 475.106 453.17C475.068 453.084 475.045 452.992 475.037 452.898C475.037 452.685 474.969 452.413 474.911 452.082C474.819 451.325 474.67 450.273 474.497 448.949C474.325 447.625 474.107 445.91 473.935 443.971C473.762 442.032 473.509 439.81 473.372 437.35C473.234 434.891 473.038 432.207 472.969 429.311C472.901 426.414 472.843 423.328 472.82 420.065C472.889 413.562 473.199 406.398 473.969 398.925C474.739 391.453 475.784 384.371 476.968 377.975C477.611 374.783 478.185 371.756 478.875 368.942C479.564 366.128 480.184 363.515 480.816 361.15C481.448 358.786 482.092 356.646 482.643 354.778C483.195 352.91 483.7 351.302 484.148 350.049C484.596 348.795 484.918 347.79 485.159 347.057C485.274 346.75 485.366 346.49 485.435 346.289C485.44 346.186 485.451 346.083 485.469 345.981Z" fill="#263238"/>
<path d="M476.784 380.658C478.109 376.619 480.757 373.18 484.274 370.928C485.423 370.171 486.963 369.556 488.227 370.183C489.904 371.023 490.042 373.446 489.536 375.302C488.664 378.448 486.713 381.162 484.045 382.94C481.7 384.728 478.764 385.488 475.876 385.057" fill="#263238"/>
<path d="M473.865 404.08C475.106 399.245 478.852 392.375 482.746 389.372C483.343 388.872 484.03 388.498 484.768 388.273C485.138 388.158 485.53 388.142 485.907 388.225C486.285 388.307 486.636 388.486 486.928 388.746C487.26 389.199 487.478 389.73 487.562 390.291C487.647 390.852 487.594 391.426 487.411 391.962C486.612 395.487 484.876 398.715 482.397 401.283C479.917 403.852 476.792 405.659 473.371 406.504" fill="#263238"/>
<path d="M473.061 424.688C474.994 420.074 478.087 416.075 482.023 413.102C482.439 412.697 482.93 412.384 483.467 412.181C484.004 411.977 484.576 411.888 485.148 411.919C486.848 412.227 487.618 414.367 487.445 416.14C487.135 419.782 484.424 422.714 481.632 424.972C479.069 426.801 476.284 428.276 473.349 429.358" fill="#263238"/>
<path d="M473.509 439.514C475.377 435.99 477.983 432.937 481.138 430.576C481.814 430.047 482.601 429.687 483.436 429.524C483.86 429.432 484.301 429.465 484.707 429.62C485.114 429.775 485.47 430.045 485.733 430.399C486.503 431.581 485.733 433.118 484.952 434.241C482.262 438.094 478.452 440.967 474.072 442.446" fill="#263238"/>
<path d="M473.13 433.473C469.844 429.329 466.19 425.51 462.216 422.064C461.951 421.748 461.613 421.506 461.234 421.359C460.855 421.213 460.446 421.166 460.044 421.224C459.754 421.348 459.505 421.556 459.328 421.822C459.151 422.089 459.052 422.403 459.045 422.726C459.045 423.376 459.186 424.019 459.459 424.606C460.762 427.585 462.702 430.223 465.132 432.325C467.563 434.427 470.422 435.939 473.498 436.748" fill="#263238"/>
<path d="M473.486 414.213L464.916 403.465C464.162 402.388 463.219 401.466 462.135 400.746C461.584 400.404 460.953 400.223 460.309 400.223C459.665 400.223 459.033 400.404 458.482 400.746C457.989 401.169 457.62 401.725 457.417 402.351C457.214 402.978 457.185 403.65 457.333 404.293C457.64 405.585 458.211 406.795 459.011 407.84C460.675 410.444 462.78 412.718 465.226 414.556C467.742 416.341 470.028 417.499 473.05 417.038" fill="#263238"/>
<path d="M474.67 392.494C472.997 387.348 470.023 382.753 466.053 379.181C465.42 378.525 464.626 378.06 463.755 377.833C462.882 377.762 462.012 378.007 461.295 378.525C460.578 379.043 460.058 379.801 459.826 380.671C459.551 381.644 459.478 382.666 459.613 383.671C459.748 384.675 460.086 385.639 460.607 386.499C461.65 388.223 463.017 389.714 464.628 390.886C467.515 393.152 470.729 394.94 474.153 396.182" fill="#263238"/>
<path d="M478.094 373.175C477.266 366.944 474.118 361.754 470.465 356.717C469.695 355.653 468.615 354.53 467.351 354.731C466.949 354.818 466.574 355.007 466.26 355.282C465.947 355.557 465.706 355.908 465.559 356.303C465.275 357.101 465.162 357.951 465.226 358.798C465.383 362.573 466.617 366.217 468.775 369.275C470.933 372.332 473.918 374.668 477.358 375.989" fill="#263238"/>
<path d="M480.495 363.244C480.099 360.053 479.995 356.83 480.184 353.62C480.379 350.388 481.454 347.278 483.286 344.646C484.052 343.516 485.111 342.631 486.342 342.092C486.968 341.835 487.648 341.748 488.316 341.839C488.984 341.93 489.618 342.196 490.157 342.612C490.613 343.052 490.967 343.592 491.194 344.191C491.42 344.791 491.514 345.435 491.466 346.076C491.351 347.354 491.025 348.601 490.501 349.765C488.204 355.417 484.412 361.671 480.437 363.244" fill="#263238"/>
<path d="M443.179 370.668C443.206 370.932 443.206 371.197 443.179 371.46C443.179 372.04 443.179 372.785 443.179 373.719C443.179 374.653 443.179 375.906 443.236 377.265C443.294 378.625 443.236 380.245 443.397 381.995C443.546 385.542 443.88 389.656 444.397 394.267C444.914 398.878 445.787 403.915 446.832 409.176C447.878 414.437 449.13 419.344 450.474 423.789C451.818 428.235 453.128 432.16 454.357 435.435C454.932 437.079 455.506 438.545 456.046 439.833C456.586 441.122 457.011 442.198 457.402 443.132L458.252 445.213C458.364 445.453 458.457 445.702 458.528 445.958C458.38 445.738 458.253 445.505 458.149 445.26C457.907 444.74 457.597 444.078 457.195 443.227C456.793 442.375 456.288 441.252 455.759 439.963C455.231 438.675 454.61 437.232 453.978 435.589C452.703 432.326 451.336 428.377 449.98 423.943C448.625 419.51 447.372 414.544 446.281 409.294C445.189 404.045 444.477 398.985 443.983 394.362C443.489 389.739 443.202 385.565 443.11 382.042C443.018 380.292 443.041 378.696 443.029 377.313C443.018 375.929 443.029 374.712 443.029 373.766C443.029 372.82 443.029 372.087 443.11 371.508C443.1 371.226 443.123 370.944 443.179 370.668Z" fill="#263238"/>
<path d="M444.523 396.206C444.581 393.167 445.661 390.242 447.579 387.93C447.861 387.504 448.24 387.156 448.682 386.915C449.125 386.674 449.617 386.547 450.118 386.547C451.439 386.748 452.037 388.367 452.083 389.739C452.153 392.068 451.402 394.344 449.969 396.147C448.746 397.88 446.909 399.048 444.856 399.398" fill="#263238"/>
<path d="M447.43 412.806C447.269 409.259 448.383 403.726 450.405 400.829C450.708 400.36 451.099 399.958 451.554 399.647C451.785 399.492 452.049 399.398 452.324 399.373C452.599 399.348 452.875 399.394 453.128 399.505C453.453 399.733 453.715 400.043 453.89 400.405C454.065 400.767 454.147 401.17 454.128 401.574C454.321 404.15 453.814 406.731 452.664 409.028C451.513 411.324 449.765 413.247 447.614 414.579" fill="#263238"/>
<path d="M451.198 427.017C451.544 423.446 452.809 420.034 454.863 417.133C455.069 416.771 455.342 416.456 455.668 416.204C455.993 415.952 456.364 415.77 456.759 415.667C457.976 415.501 458.953 416.79 459.217 418.032C459.769 420.574 458.539 423.163 457.115 425.326C455.75 427.137 454.162 428.759 452.393 430.15" fill="#263238"/>
<path d="M454.599 437.019C455.138 434.211 456.271 431.558 457.919 429.252C458.277 428.761 458.736 428.357 459.263 428.069C459.531 427.926 459.832 427.86 460.134 427.878C460.435 427.897 460.726 428 460.975 428.176C461.733 428.79 461.561 430.008 461.239 430.954C460.204 434.185 458.191 436.99 455.495 438.958" fill="#263238"/>
<path d="M453.025 432.988C449.923 430.893 446.638 429.1 443.213 427.632C442.968 427.473 442.687 427.382 442.398 427.365C442.109 427.348 441.82 427.408 441.559 427.537C441.397 427.68 441.277 427.866 441.212 428.075C441.147 428.284 441.14 428.507 441.191 428.72C441.326 429.162 441.558 429.567 441.869 429.902C443.378 431.644 445.25 433.014 447.344 433.908C449.439 434.803 451.703 435.2 453.967 435.069" fill="#263238"/>
<path d="M449.291 419.782C446.595 417.984 443.914 416.179 441.249 414.367C440.506 413.815 439.667 413.414 438.779 413.184C438.337 413.027 437.859 413.017 437.411 413.156C436.964 413.296 436.571 413.577 436.288 413.959C436.005 414.342 435.847 414.807 435.836 415.288C435.826 415.769 435.963 416.241 436.228 416.637C436.711 417.443 437.353 418.136 438.112 418.67C439.796 420.104 441.719 421.21 443.788 421.933C444.711 422.337 445.703 422.545 446.706 422.545C447.709 422.545 448.701 422.337 449.624 421.933" fill="#263238"/>
<path d="M445.557 404.742C443.336 401.612 440.352 399.141 436.906 397.578C436.344 397.285 435.72 397.142 435.091 397.164C434.481 397.309 433.941 397.668 433.561 398.18C433.181 398.691 432.987 399.323 433.011 399.966C433.031 400.69 433.197 401.401 433.5 402.055C433.803 402.708 434.235 403.29 434.769 403.761C435.838 404.704 437.08 405.416 438.422 405.854C440.861 406.761 443.425 407.263 446.017 407.343" fill="#263238"/>
<path d="M443.834 390.803C441.973 386.748 438.744 383.91 435.206 381.285C434.875 380.956 434.467 380.722 434.022 380.606C433.576 380.49 433.109 380.496 432.667 380.623C432.41 380.771 432.194 380.982 432.037 381.239C431.88 381.495 431.789 381.787 431.77 382.089C431.743 382.696 431.845 383.301 432.069 383.863C432.966 386.398 434.569 388.606 436.677 390.211C438.786 391.815 441.307 392.745 443.926 392.884" fill="#263238"/>
<path d="M443.397 383.543C442.461 381.456 441.718 379.283 441.18 377.053C440.634 374.809 440.713 372.453 441.41 370.254C441.716 369.331 442.265 368.512 442.995 367.89C443.368 367.575 443.813 367.364 444.288 367.277C444.762 367.19 445.251 367.23 445.706 367.393C446.108 367.592 446.461 367.881 446.739 368.239C447.018 368.597 447.214 369.015 447.315 369.462C447.514 370.354 447.553 371.275 447.43 372.181C447.062 376.532 445.775 381.64 443.397 383.603" fill="#263238"/>
<path d="M504.024 370.125C504.041 370.389 504.041 370.653 504.024 370.917C504.024 371.496 504.081 372.241 504.104 373.175C504.127 374.109 504.173 375.362 504.104 376.722C504.035 378.082 504.104 379.713 504.024 381.451C503.92 384.998 503.633 389.148 503.151 393.771C502.668 398.394 501.864 403.454 500.853 408.704C499.842 413.953 498.486 418.907 497.165 423.352C495.844 427.798 494.442 431.735 493.155 434.998C492.547 436.642 491.915 438.084 491.375 439.373C490.835 440.661 490.364 441.737 489.939 442.636L488.985 444.67C488.887 444.915 488.763 445.148 488.617 445.367C488.687 445.112 488.776 444.863 488.882 444.622L489.789 442.589C490.18 441.69 490.639 440.591 491.133 439.29C491.627 437.989 492.282 436.535 492.834 434.892C494.063 431.617 495.384 427.668 496.717 423.246C498.05 418.824 499.279 413.87 500.359 408.644C501.439 403.419 502.174 398.37 502.737 393.771C503.3 389.172 503.576 384.998 503.725 381.451C503.84 379.701 503.852 378.117 503.897 376.722C503.943 375.327 503.897 374.121 503.897 373.175C503.897 372.229 503.897 371.496 503.897 370.917C503.907 370.648 503.949 370.382 504.024 370.125Z" fill="#455A64"/>
<path d="M502.679 395.639C502.622 392.597 501.537 389.671 499.612 387.363C499.333 386.937 498.957 386.588 498.516 386.346C498.075 386.105 497.584 385.979 497.084 385.979C495.763 386.18 495.166 387.8 495.12 389.172C495.031 391.519 495.779 393.819 497.222 395.639C498.448 397.374 500.289 398.542 502.346 398.89" fill="#455A64"/>
<path d="M499.773 412.262C499.934 408.715 498.819 403.182 496.797 400.286C496.494 399.817 496.103 399.415 495.648 399.103C495.42 398.948 495.157 398.854 494.884 398.83C494.612 398.805 494.337 398.85 494.086 398.961C493.761 399.189 493.499 399.499 493.324 399.862C493.149 400.224 493.067 400.626 493.086 401.03C492.89 403.607 493.396 406.189 494.547 408.486C495.697 410.784 497.447 412.705 499.6 414.036" fill="#455A64"/>
<path d="M496.005 426.473C495.649 422.902 494.381 419.492 492.328 416.589C492.124 416.229 491.853 415.913 491.529 415.661C491.206 415.41 490.837 415.227 490.444 415.123C489.215 414.958 488.25 416.247 487.974 417.488C487.422 420.03 488.652 422.631 490.088 424.783C491.45 426.597 493.037 428.218 494.81 429.607" fill="#455A64"/>
<path d="M492.592 436.464C492.057 433.668 490.923 431.031 489.272 428.743C488.918 428.253 488.463 427.849 487.939 427.561C487.671 427.417 487.371 427.351 487.069 427.37C486.768 427.389 486.477 427.492 486.228 427.667C485.469 428.282 485.63 429.512 485.952 430.446C486.992 433.674 489.004 436.477 491.696 438.45" fill="#455A64"/>
<path d="M494.109 432.444C497.215 430.349 500.503 428.556 503.932 427.088C504.177 426.929 504.458 426.837 504.747 426.821C505.036 426.804 505.325 426.864 505.586 426.993C505.756 427.142 505.881 427.339 505.944 427.559C506.007 427.78 506.007 428.015 505.942 428.235C505.812 428.676 505.584 429.081 505.276 429.417C503.766 431.159 501.895 432.528 499.8 433.422C497.706 434.317 495.442 434.714 493.178 434.584" fill="#455A64"/>
<path d="M497.912 419.285L505.954 413.87C506.695 413.321 507.528 412.92 508.413 412.688C508.858 412.569 509.326 412.578 509.766 412.716C510.206 412.854 510.601 413.114 510.906 413.468C511.159 413.862 511.299 414.323 511.309 414.796C511.32 415.268 511.2 415.734 510.963 416.14C510.487 416.917 509.862 417.585 509.125 418.103C507.44 419.534 505.517 420.64 503.449 421.366C502.525 421.77 501.53 421.978 500.526 421.978C499.521 421.978 498.526 421.77 497.602 421.366" fill="#455A64"/>
<path d="M501.645 404.199C503.861 401.064 506.847 398.591 510.297 397.034C510.854 396.742 511.475 396.599 512.1 396.62C512.711 396.765 513.253 397.124 513.634 397.635C514.016 398.147 514.213 398.778 514.191 399.423C514.172 400.146 514.005 400.858 513.702 401.512C513.4 402.165 512.967 402.746 512.433 403.218C511.364 404.161 510.122 404.872 508.78 405.31C506.341 406.217 503.778 406.72 501.186 406.8" fill="#455A64"/>
<path d="M503.357 390.26C505.23 386.204 508.458 383.367 511.997 380.742C512.326 380.412 512.735 380.177 513.18 380.061C513.626 379.945 514.093 379.951 514.536 380.08C514.79 380.23 515.003 380.442 515.158 380.698C515.312 380.954 515.402 381.245 515.421 381.546C515.452 382.152 515.354 382.757 515.133 383.319C514.235 385.854 512.632 388.061 510.524 389.665C508.415 391.269 505.895 392.2 503.277 392.34" fill="#455A64"/>
<path d="M503.794 383C504.734 380.913 505.48 378.74 506.023 376.509C506.565 374.265 506.482 371.908 505.782 369.711C505.497 368.753 504.946 367.902 504.196 367.263C503.826 366.948 503.383 366.737 502.91 366.65C502.437 366.563 501.95 366.603 501.496 366.767C501.093 366.965 500.738 367.254 500.458 367.612C500.178 367.97 499.979 368.388 499.876 368.836C499.689 369.729 499.65 370.648 499.761 371.555C500.141 375.918 501.416 381.014 503.794 382.976" fill="#455A64"/>
<path d="M432.896 445.414V455.937C432.896 456.478 433 457.015 433.201 457.516C433.403 458.016 433.698 458.471 434.071 458.854C434.443 459.238 434.885 459.541 435.371 459.749C435.858 459.956 436.379 460.063 436.906 460.063H506.586C507.112 460.063 507.634 459.956 508.12 459.749C508.607 459.541 509.049 459.238 509.421 458.854C509.793 458.471 510.089 458.016 510.29 457.516C510.492 457.015 510.595 456.478 510.595 455.937V445.414H432.896Z" fill="#438EEB"/>
<g opacity="0.4">
<path d="M438.94 460.016L439.514 463.35L503.805 468.067L505.437 460.016H438.94Z" fill="black"/>
</g>
<path d="M18.6552 512.286C18.6552 512.451 132.395 512.593 272.639 512.593C412.883 512.593 526.646 512.451 526.646 512.286C526.646 512.12 412.906 511.978 272.639 511.978C132.372 511.978 18.6552 512.108 18.6552 512.286Z" fill="#263238"/>
</svg>
