<svg width="24" height="24" viewBox="0 0 24 24" fill="none" xmlns="http://www.w3.org/2000/svg">
<g clip-path="url(#clip0_22_6802)">
<path d="M2.00158 0.105587C2.12347 0.0358582 2.26158 -0.000555316 2.402 6.4017e-06C2.54243 0.00056812 2.68024 0.0380853 2.80158 0.108787L15.3504 7.42879L11.4672 10.9232L1.59998 2.04319V0.799987C1.59986 0.659133 1.63693 0.520745 1.70745 0.398814C1.77797 0.276884 1.87943 0.175732 2.00158 0.105587ZM1.59998 4.19679V19.8032L10.272 12L1.59998 4.19679ZM1.59998 21.9568V23.2C1.59993 23.3407 1.63703 23.479 1.70753 23.6009C1.77802 23.7227 1.87942 23.8238 2.00148 23.8939C2.12353 23.964 2.26193 24.0007 2.40269 24.0002C2.54345 23.9997 2.6816 23.9621 2.80318 23.8912L15.3504 16.5712L11.4672 13.0768L1.59998 21.9568ZM16.8016 15.7248L22.0016 12.6912C22.1224 12.6208 22.2227 12.5199 22.2924 12.3986C22.3621 12.2773 22.3988 12.1399 22.3988 12C22.3988 11.8601 22.3621 11.7227 22.2924 11.6014C22.2227 11.4801 22.1224 11.3792 22.0016 11.3088L16.8016 8.27519L12.6624 12L16.8016 15.7248Z" fill="#F4F3F4"/>
</g>
<defs>
<clipPath id="clip0_22_6802">
<rect width="24" height="24" fill="white"/>
</clipPath>
</defs>
</svg>
