<svg width="14" height="13" viewBox="0 0 14 13" fill="none" xmlns="http://www.w3.org/2000/svg">
<path d="M6.41601 0.463524C6.56569 0.00286841 7.21739 0.00286996 7.36707 0.463525L8.5754 4.18237C8.64233 4.38838 8.83431 4.52786 9.05092 4.52786H12.9612C13.4455 4.52786 13.6469 5.14767 13.255 5.43237L10.0916 7.73075C9.91636 7.85807 9.84303 8.08375 9.90997 8.28976L11.1183 12.0086C11.268 12.4693 10.7407 12.8523 10.3489 12.5676L7.18543 10.2693C7.01019 10.1419 6.77289 10.1419 6.59765 10.2693L3.43421 12.5676C3.04235 12.8523 2.51511 12.4693 2.66479 12.0086L3.87311 8.28976C3.94005 8.08375 3.86672 7.85807 3.69148 7.73075L0.528036 5.43237C0.136179 5.14767 0.337568 4.52786 0.82193 4.52786H4.73216C4.94877 4.52786 5.14075 4.38838 5.20769 4.18237L6.41601 0.463524Z" fill="#BDA9AB"/>
</svg>
