<svg width="135" height="44" viewBox="0 0 135 44" fill="none" xmlns="http://www.w3.org/2000/svg">
<g clip-path="url(#clip0_18_52)">
<path d="M0.5 19.9477C0.5402 19.7132 0.5804 19.4982 0.5938 19.2832C0.8216 15.4914 1.7596 11.8559 3.3006 8.80681C4.427 6.51472 5.87338 4.5965 7.54456 3.17835C9.21575 1.76021 11.0739 0.874281 12.9966 0.578865C14.9194 0.283449 16.8633 0.585237 18.7004 1.46437C20.5375 2.34351 22.2261 3.78007 23.6552 5.67953C25.0904 7.59193 26.2443 9.90969 27.0469 12.4922C27.8495 15.0747 28.284 17.8681 28.3241 20.703C28.3642 23.5378 28.0091 26.355 27.2802 28.9836C26.5513 31.6122 25.4639 33.9974 24.084 35.9945C22.2332 38.6335 19.9119 40.4619 17.384 41.2718C16.7676 41.4673 16.1244 41.5454 15.4812 41.6823L15.2132 41.7604H13.7124L13.4444 41.6823C11.5435 41.4618 9.69405 40.6729 8.01117 39.3649C6.32828 38.0569 4.84798 36.2576 3.6624 34.0791C1.91567 30.884 0.853028 27.009 0.6072 22.9382C0.58563 22.714 0.5543 22.492 0.5134 22.2736V19.9282L0.5 19.9477ZM15.1998 19.6936L15.2266 20.0259L15.5884 25.3814C15.6822 26.7886 15.7894 28.1959 15.8564 29.6032C15.877 30.247 15.9902 30.8774 16.1887 31.4532C16.3873 32.029 16.6667 32.5375 17.0088 32.9454C17.6625 33.7231 18.471 34.1717 19.3137 34.2246C20.1565 34.2774 20.9884 33.9316 21.6854 33.2386C22.1699 32.7845 22.5566 32.1399 22.8008 31.3791C23.045 30.6182 23.1368 29.7722 23.0656 28.9386L22.9316 27.2968C22.5941 22.229 22.2636 17.1602 21.94 12.0904C21.881 11.1451 21.6129 10.2533 21.1762 9.54953C20.9818 9.22788 20.7761 8.92125 20.5598 8.6309C20.1575 8.04403 19.6474 7.63949 19.0911 7.46608C18.5347 7.29268 17.9558 7.35781 17.4242 7.65363L16.8614 7.90772L10.3758 10.7614L6.2888 12.5204C5.7796 12.755 5.3106 13.1459 4.9354 13.6932C4.23504 14.7476 3.8335 16.1489 3.81114 17.6166C3.78878 19.0844 4.14725 20.5103 4.8148 21.6091C5.6188 22.8209 6.5568 23.3291 7.6958 22.9968C7.9906 22.8991 8.2854 22.7427 8.5802 22.6059L14.8246 19.8695L15.1998 19.6741V19.6936Z" fill="#717272"/>
<path d="M124.45 35.3496V36.9523C124.452 36.9916 124.449 37.0312 124.439 37.0683C124.43 37.1055 124.415 37.1392 124.396 37.1673C124.378 37.1962 124.355 37.2184 124.329 37.2319C124.303 37.2455 124.276 37.2502 124.249 37.2455H116.383C116.222 37.2455 116.169 37.1673 116.155 36.9327V35.3691L116.423 35.2323C117.308 34.8023 117.656 34.1768 117.723 32.7891C117.763 31.8509 117.79 30.9127 117.79 29.9746V19.7914C117.79 18.7946 117.75 17.7977 117.723 16.8009C117.723 16.6055 117.696 16.41 117.656 16.2146C117.611 15.8828 117.507 15.5742 117.354 15.3202C117.201 15.0661 117.005 14.8757 116.785 14.7682L115.981 14.4164V12.4618H116.182L122.386 12.2273H122.574C122.815 12.2468 122.855 12.3446 122.842 12.6964L122.641 15.4523V15.8432L122.909 15.4914C123.607 14.5781 124.37 13.7785 125.187 13.1068C126.527 12.0318 128.081 11.7386 129.555 12.325C131.003 12.8136 131.927 14.1818 132.396 16.2536C132.611 17.2309 132.745 18.2473 132.771 19.2636C132.812 19.9673 132.825 20.6905 132.825 21.4137V29.8964C132.825 30.8737 132.865 31.8509 132.879 32.8282L132.905 33.1214C132.932 33.61 133.066 34.0596 133.281 34.4309C133.495 34.8218 133.79 35.0564 134.111 35.1737L134.446 35.33L134.5 35.4082V36.9718C134.502 37.0112 134.499 37.0508 134.489 37.0879C134.48 37.125 134.465 37.1588 134.446 37.1868C134.426 37.2188 134.401 37.2427 134.373 37.2564C134.345 37.2701 134.315 37.273 134.286 37.265H126.447C126.246 37.265 126.192 37.1868 126.192 36.9132V35.3496L126.594 35.1541C126.854 35.0653 127.09 34.8653 127.271 34.5797C127.453 34.2942 127.571 33.9361 127.612 33.5514C127.693 32.8868 127.746 32.2223 127.746 31.5577C127.775 27.8245 127.761 24.0908 127.706 20.3582C127.687 19.6903 127.615 19.0278 127.492 18.3841C127.157 16.625 126.339 15.9214 125.12 16.4296C124.503 16.6555 123.951 17.1616 123.544 17.8747C123.137 18.5879 122.896 19.4712 122.855 20.3973L122.869 31.5187C122.869 32.105 122.909 32.6718 122.963 33.2387C122.989 33.7273 123.11 34.1768 123.324 34.5287C123.539 34.8805 123.834 35.115 124.142 35.2127C124.246 35.2536 124.348 35.2992 124.45 35.3496Z" fill="#717272"/>
<path d="M80.9938 34.7436V36.3659C80.9981 36.4084 80.9955 36.4518 80.9862 36.4925C80.9769 36.5333 80.9611 36.5702 80.9402 36.6005C80.9202 36.6324 80.8949 36.6563 80.8667 36.67C80.8386 36.6837 80.8085 36.6867 80.7794 36.6786H74.8164C74.6154 36.6591 74.5618 36.5809 74.5752 36.2877L74.6824 33.9618L74.7092 33.4146C74.5752 33.3559 74.535 33.4927 74.468 33.5709C73.999 34.1377 73.5434 34.7436 73.061 35.2518C71.816 36.5848 70.2867 37.2291 68.7462 37.0696C67.9588 37.0219 67.1891 36.7145 66.495 36.1705C65.9938 35.785 65.5594 35.2378 65.2251 34.5706C64.8907 33.9033 64.6651 33.1336 64.5654 32.32C64.3597 31.1079 64.3996 29.8348 64.6802 28.6552C64.9609 27.4756 65.4703 26.4401 66.1466 25.6746C66.965 24.7591 67.8915 24.0702 68.8802 23.6418C70.0862 23.0946 71.3458 22.7036 72.6054 22.5082L74.1062 22.2541C74.133 22.2346 74.1464 22.215 74.1464 22.1759C74.1464 20.7882 74.2 19.3809 74.0526 17.9736C73.9862 17.2286 73.8176 16.5106 73.5568 15.8627C73.3979 15.4703 73.1757 15.1405 72.9094 14.902C72.6432 14.6636 72.341 14.5237 72.0292 14.4946C71.6138 14.4164 71.185 14.4946 70.783 14.6509C70.4212 14.8073 70.0862 15.12 69.845 15.55C69.4966 16.1364 69.242 16.84 69.108 17.6023C68.9874 18.1886 68.907 18.775 68.7998 19.3809L68.572 19.4005H65.6374C65.6126 19.401 65.588 19.3943 65.565 19.3809C65.542 19.3675 65.5211 19.3476 65.5034 19.3223C65.4833 19.2912 65.4681 19.2542 65.4588 19.2137C65.4495 19.1731 65.4465 19.1302 65.4498 19.0877V14.6118L67.1382 13.5759C68.4782 12.7159 69.912 12.11 71.3592 11.7191C72.8682 11.3078 74.4191 11.3544 75.9152 11.8559C77.0006 12.2468 77.885 13.0873 78.4612 14.5727C78.7292 15.2764 78.9168 16.0386 79.024 16.84C79.1446 17.7586 79.1982 18.6968 79.1982 19.6546V29.4664C79.1982 30.4827 79.2518 31.5186 79.292 32.535C79.292 32.7305 79.3188 32.9259 79.359 33.0823C79.399 33.3886 79.4948 33.6736 79.6362 33.9074C79.7777 34.1412 79.9596 34.3153 80.163 34.4114L80.9938 34.7436ZM74.1598 24.9905L72.4714 25.3227C71.8952 25.4596 71.3324 25.7527 70.8098 26.1827C70.469 26.4625 70.1723 26.8438 69.9391 27.3018C69.706 27.7597 69.5415 28.2841 69.4564 28.8409C69.3492 29.4859 69.3224 30.17 69.376 30.8346C69.4001 31.341 69.5317 31.824 69.7526 32.2163C69.9736 32.6087 70.2728 32.8908 70.6088 33.0236C71.0242 33.2191 71.4798 33.2191 71.8952 33.0823C72.5384 32.8868 73.1012 32.3591 73.5166 31.6164C73.9186 30.8541 74.1598 29.9355 74.1732 28.9777V25.3618L74.1464 24.9905H74.1598Z" fill="#717272"/>
<path d="M96.6049 35.3495L96.9935 35.1541C97.3955 34.9586 97.7975 34.6264 98.1057 34.1964C98.5613 33.61 98.9901 32.9845 99.3921 32.3395L103.144 26.085L103.224 25.8895L103.064 25.5377L99.1911 17.4264C98.8963 16.8205 98.5747 16.2536 98.2531 15.6673L98.0923 15.4132C97.7707 14.9245 97.4223 14.475 96.8863 14.3968V13.6345V12.8136C96.8863 12.5009 96.9399 12.4618 97.1141 12.4227H104.98C105.005 12.4222 105.029 12.4289 105.052 12.4423C105.075 12.4557 105.096 12.4756 105.114 12.5009C105.136 12.5302 105.154 12.5664 105.166 12.607C105.177 12.6476 105.182 12.6915 105.181 12.7355V14.3773L104.953 14.4555L104.457 14.7682C104.34 14.8603 104.245 15.0046 104.187 15.1803C104.129 15.3559 104.111 15.5539 104.136 15.7455C104.162 16.0191 104.216 16.2732 104.296 16.4882C104.377 16.7618 104.484 17.0159 104.605 17.2505L106.266 20.7686L106.36 20.9445L106.494 20.7491L108.035 17.8759C108.196 17.5827 108.33 17.2895 108.45 16.9768C108.584 16.6445 108.638 16.2927 108.651 15.9214C108.667 15.6437 108.621 15.3661 108.519 15.13C108.418 14.894 108.267 14.7122 108.089 14.6118L107.646 14.4164L107.378 14.3577V12.6964C107.38 12.6588 107.386 12.6221 107.398 12.5885C107.41 12.5548 107.426 12.525 107.445 12.5009C107.463 12.4747 107.484 12.4541 107.507 12.4406C107.53 12.4271 107.555 12.421 107.579 12.4227H113.717C113.904 12.4227 113.958 12.5205 113.971 12.7745V14.3382C113.919 14.3699 113.865 14.396 113.81 14.4164C113.261 14.6314 112.765 15.0614 112.363 15.6477C111.975 16.2145 111.613 16.8009 111.251 17.3873C110.032 19.4403 108.817 21.4991 107.606 23.5636L107.767 23.935L111.492 31.7532L112.323 33.4145C112.792 34.2745 113.341 34.9782 114.092 35.2909L114.145 35.3495V36.9523C114.145 37.1477 114.065 37.2455 113.931 37.2455H106.052C105.864 37.2259 105.811 37.1673 105.797 36.8741V35.3105L106.092 35.2127C106.226 35.1736 106.36 35.115 106.481 35.0173C106.587 34.9449 106.677 34.8286 106.739 34.6828C106.801 34.5369 106.832 34.3678 106.829 34.1964C106.836 33.8319 106.771 33.4723 106.641 33.1605C105.973 31.7125 105.303 30.2662 104.631 28.8214L104.471 28.5086L104.323 28.7432L102.648 31.7923L102.219 32.6718C102.072 33.0236 101.992 33.4536 102.005 33.8445C101.993 34.0936 102.036 34.3417 102.128 34.5526C102.22 34.7635 102.355 34.9263 102.514 35.0173C102.755 35.1541 102.983 35.2518 103.224 35.33V36.9718C103.227 37.0253 103.218 37.0786 103.199 37.1242C103.18 37.1699 103.151 37.2055 103.117 37.2259H96.8193C96.7912 37.2364 96.7618 37.2365 96.7338 37.2263C96.7057 37.216 96.6798 37.1958 96.6585 37.1673C96.6386 37.14 96.6234 37.1064 96.6141 37.0691C96.6048 37.0317 96.6016 36.9917 96.6049 36.9523V35.3495Z" fill="#717272"/>
<path d="M46.7836 14.9636L46.462 13.3218C46.3414 12.7941 46.2342 12.3445 46.1002 11.8754C46.0064 11.5823 45.8858 11.2891 45.7518 11.0154C45.5882 10.6792 45.3738 10.4021 45.1252 10.2056C44.8767 10.0091 44.6005 9.89831 44.318 9.88181C43.782 9.82317 43.246 9.82317 42.71 9.80362C42.6778 9.81141 42.6464 9.82452 42.6162 9.84272L42.5894 10.1945V32.0268C42.5894 32.6132 42.6296 33.1995 42.6966 33.7859C42.7248 34.082 42.8086 34.3611 42.9386 34.5922C43.0687 34.8232 43.24 34.9974 43.4336 35.0954C43.6748 35.2323 43.9428 35.2909 44.184 35.4082L44.3716 35.4668V36.9132C44.376 36.9834 44.3616 37.0535 44.3314 37.1086C44.3142 37.1349 44.2934 37.1554 44.2702 37.1689C44.2471 37.1824 44.2223 37.1885 44.1974 37.1868H36.2378C36.0368 37.1868 35.9832 37.1282 35.9832 36.835V35.4864L36.1708 35.4082L36.747 35.1932C37.3634 34.9586 37.6582 34.3136 37.7118 33.4145C37.752 32.8868 37.7654 32.3591 37.7654 31.8314V9.90135C37.7386 9.86226 37.7118 9.82317 37.685 9.82317C37.0552 9.78408 36.4388 9.82317 35.809 9.9209C35.3132 10.0577 34.871 10.4486 34.5628 11.0545C34.3216 11.5627 34.134 12.1295 34.0134 12.7159L33.6114 14.6509C33.6114 14.7486 33.5846 14.8464 33.5578 14.9441H31.6684C31.4004 14.9441 31.3602 14.905 31.3602 14.5141V7.36044C31.3602 7.00862 31.4004 6.96953 31.655 6.96953H48.5658C48.9678 6.96953 48.9812 6.89135 48.9812 7.59499V14.5923C48.9812 14.905 48.941 14.9441 48.74 14.9636H46.7836Z" fill="#717272"/>
<path d="M95.2648 32.4959C93.8042 34.6068 92.2498 36.3268 90.213 36.8545C88.6106 37.2677 86.962 37.0656 85.4292 36.2682C84.5758 35.7846 83.8057 35.0331 83.1735 34.0671C82.5414 33.1011 82.0625 31.9441 81.771 30.6782C81.4419 29.3568 81.239 27.9757 81.168 26.5736C81.101 25.3618 81.101 24.1109 81.1546 22.86C81.2639 20.5145 81.7904 18.251 82.6822 16.2927C83.6496 14.2572 85.0699 12.7725 86.7022 12.0904C87.7885 11.6216 88.9203 11.4169 90.0522 11.4845C91.5798 11.5041 93.1074 11.8364 94.5948 12.4227L94.9432 12.5791L94.9566 12.9504V18.56C94.9566 18.6382 94.9432 18.6968 94.903 18.7554C94.8693 18.7965 94.8263 18.8174 94.7824 18.8141H91.6468L91.4458 18.7945L91.2984 17.7195C91.1985 16.9814 91.0223 16.2696 90.7758 15.6086C90.6769 15.3223 90.5353 15.0719 90.3614 14.8758C90.1875 14.6796 89.9857 14.5427 89.7708 14.475C89.4057 14.3559 89.0253 14.3819 88.6694 14.5504C88.3135 14.7188 87.9951 15.0235 87.7474 15.4327C87.4258 15.9409 87.1846 16.5273 87.0372 17.1918C86.7522 18.3381 86.572 19.5341 86.5012 20.7491C86.3672 22.4691 86.3538 24.2086 86.4342 25.9286C86.4744 27.1014 86.6218 28.2741 86.8764 29.4077C86.9747 29.8125 87.0958 30.2047 87.2382 30.5804C87.4814 31.2783 87.854 31.8625 88.3135 32.2668C88.7731 32.671 89.3012 32.8791 89.8378 32.8673C90.6552 32.9259 91.4726 32.5936 92.1426 31.9291C92.5982 31.4795 93.0136 30.9518 93.4558 30.4632L93.6568 30.2091C93.7908 30.0332 93.8712 30.0136 93.9784 30.2091L95.2648 32.5154V32.4959Z" fill="#717272"/>
<path d="M63.9624 12.4227V18.99C63.9624 19.42 63.9088 19.5373 63.5738 19.5373H60.7598L60.6526 19.1268C60.5186 18.5991 60.3578 18.1105 60.1702 17.6218C60.0781 17.3788 59.9538 17.165 59.8045 16.9928C59.6551 16.8206 59.4838 16.6935 59.3004 16.6189C59.1171 16.5443 58.9254 16.5237 58.7365 16.5583C58.5476 16.5929 58.3654 16.682 58.2004 16.8205C57.7372 17.1251 57.3413 17.612 57.0573 18.2265C56.7732 18.8411 56.6122 19.559 56.5924 20.2995C56.5656 20.8859 56.5522 21.4918 56.5522 22.1173V30.2091C56.5522 31.1082 56.6058 32.0073 56.646 32.9064L56.713 33.395C56.7619 33.8063 56.8918 34.188 57.0869 34.4935C57.282 34.7989 57.5339 35.0149 57.8118 35.115L58.3478 35.3105V36.9523C58.3464 36.9898 58.3398 37.0266 58.3282 37.0602C58.3167 37.0938 58.3006 37.1236 58.2808 37.1477C58.2636 37.174 58.2427 37.1945 58.2196 37.208C58.1965 37.2215 58.1716 37.2276 58.1468 37.2259H50.1872C49.9192 37.2259 49.879 37.1868 49.879 36.7568V35.3105L50.2408 35.1345C50.9644 34.8414 51.3396 34.0791 51.4066 33.0041C51.4697 32.0947 51.5055 31.1817 51.5138 30.2677V19.3809C51.5138 18.4427 51.4468 17.5241 51.42 16.5859C51.42 16.4491 51.3932 16.3318 51.3664 16.195C51.3195 15.8668 51.2144 15.5623 51.0615 15.3119C50.9087 15.0615 50.7135 14.874 50.4954 14.7682C50.2274 14.6314 49.9594 14.5336 49.678 14.4164V12.4618L49.8522 12.4227L56.1502 12.2273H56.2842C56.5254 12.2273 56.579 12.325 56.5522 12.6768L56.3646 15.7064L56.3512 16.0386L56.5656 15.7259C57.0212 14.9441 57.5572 14.2405 58.12 13.6541C59.2858 12.4814 60.666 11.895 62.073 12.0514C62.6492 12.0905 63.2254 12.2468 63.8016 12.3445L63.9624 12.4032V12.4227Z" fill="#717272"/>
</g>
<defs>
<clipPath id="clip0_18_52">
<rect width="134" height="43" fill="white" transform="translate(0.5 0.5)"/>
</clipPath>
</defs>
</svg>
